{"glyphs":{"0":{"ha":633,"x_min":0,"x_max":0,"o":"m 604 390 b 485 133 574 300 532 215 b 317 -96 436 51 382 -26 b 204 -187 283 -131 247 -162 b 132 -210 182 -199 158 -208 b 56 -190 106 -211 79 -206 b 10 -126 33 -175 18 -151 b 0 -51 3 -101 0 -76 b 29 90 3 -3 14 44 b 160 346 61 182 108 265 b 339 569 213 425 269 501 b 454 658 374 603 411 633 b 522 690 475 671 497 682 b 560 701 535 694 547 699 b 579 704 567 703 572 703 b 590 704 583 704 586 704 b 603 703 594 704 597 704 b 622 675 615 701 625 689 b 594 656 619 663 607 654 b 590 657 594 656 592 657 b 582 656 588 657 585 657 b 568 654 578 656 572 656 b 538 647 557 653 547 650 b 476 619 517 640 496 631 b 368 538 438 597 403 569 b 192 325 301 475 243 401 b 61 79 139 247 93 167 b 31 -53 46 36 33 -8 b 38 -118 31 -75 32 -97 b 72 -167 44 -137 56 -156 b 131 -183 88 -179 110 -183 b 192 -164 151 -182 172 -175 b 300 -81 232 -143 267 -112 b 469 143 365 -14 419 63 b 592 394 518 222 560 307 b 622 531 607 439 619 485 b 613 597 622 553 621 576 b 592 622 607 607 600 617 b 561 633 583 629 572 632 b 557 639 558 635 557 636 b 561 642 557 640 560 642 b 597 631 574 640 586 638 b 621 601 607 622 615 613 b 632 531 632 579 633 554 b 604 390 631 482 618 436 "},"1":{"ha":560,"x_min":0,"x_max":0,"o":"m 556 717 b 560 704 560 711 560 707 b 560 699 560 701 560 700 b 550 678 557 688 553 683 b 532 649 544 668 538 658 l 494 593 b 426 482 471 557 449 519 l 292 256 b 225 142 269 218 247 181 b 160 28 203 104 182 67 b 99 -87 139 -10 118 -49 b 71 -146 89 -107 79 -126 b 58 -175 65 -156 61 -165 b 53 -190 56 -181 54 -185 b 50 -200 51 -194 50 -199 b 31 -229 53 -214 43 -226 b 1 -208 17 -231 4 -222 b 1 -200 1 -206 1 -203 l 3 -194 b 10 -174 4 -185 7 -179 b 18 -157 13 -168 15 -162 b 33 -128 22 -147 28 -137 b 68 -71 44 -108 56 -89 l 138 42 l 279 264 b 418 488 326 338 372 413 b 482 601 440 524 463 563 b 508 661 492 621 500 642 b 510 668 508 664 510 665 b 507 669 510 668 508 669 b 494 704 494 675 489 692 b 507 717 497 710 501 714 l 513 719 b 526 726 517 721 519 724 b 531 726 528 726 529 726 b 538 728 533 728 535 728 b 542 726 539 728 540 726 b 547 725 543 726 546 725 b 556 717 551 722 554 719 m 518 703 b 518 701 518 703 518 703 b 518 697 518 700 518 700 b 518 703 519 700 519 703 "},"2":{"ha":872,"x_min":0,"x_max":0,"o":"m 863 718 b 874 699 868 714 872 707 b 863 660 875 683 869 671 b 817 599 850 636 833 617 b 764 543 800 579 782 561 b 533 344 690 474 613 410 b 299 153 456 281 376 218 b 185 54 260 121 222 89 b 76 -50 147 21 110 -12 b 33 -107 60 -68 43 -87 b 29 -121 31 -112 29 -117 b 31 -128 28 -125 29 -126 b 56 -136 33 -132 44 -136 b 128 -132 78 -139 103 -136 b 200 -118 151 -128 176 -124 b 347 -81 250 -107 299 -93 l 421 -61 b 458 -53 433 -58 446 -56 b 479 -49 465 -51 472 -50 b 490 -47 482 -49 486 -49 b 499 -49 493 -47 496 -47 l 503 -49 b 510 -51 506 -49 507 -50 b 522 -82 522 -56 528 -71 b 493 -96 517 -93 504 -99 b 493 -96 493 -96 493 -96 b 493 -96 493 -96 493 -96 b 493 -96 493 -96 493 -96 b 490 -96 492 -96 492 -96 b 483 -96 489 -94 486 -96 b 467 -97 478 -96 472 -96 b 431 -104 454 -99 443 -101 b 357 -119 406 -108 381 -114 b 207 -151 307 -131 258 -142 b 132 -162 182 -156 157 -160 b 53 -165 106 -165 79 -168 b 31 -160 46 -164 38 -162 b 8 -146 24 -158 15 -154 b 1 -118 1 -137 0 -126 b 8 -96 3 -108 6 -101 b 57 -32 22 -71 40 -51 b 169 71 93 4 132 38 b 288 167 208 104 249 136 l 525 356 b 756 553 604 419 682 483 b 808 606 774 569 792 588 b 854 665 825 624 842 643 b 863 697 860 675 864 688 b 842 718 863 708 853 714 b 768 718 818 724 793 721 b 488 622 668 708 568 679 b 390 515 449 593 413 557 b 368 450 379 494 371 471 b 381 393 365 428 369 406 b 378 360 389 383 389 368 b 344 363 368 351 353 353 b 342 365 343 363 343 364 l 342 367 b 329 457 324 396 324 429 b 363 532 336 485 349 510 b 476 639 393 576 432 611 b 767 731 564 696 665 722 b 844 728 792 732 818 735 b 863 718 850 726 857 724 "},"3":{"ha":836,"x_min":0,"x_max":0,"o":"m 481 18 b 504 -36 490 1 499 -17 b 501 -96 510 -56 510 -76 b 467 -144 494 -115 482 -132 b 363 -199 436 -169 399 -185 b 136 -242 292 -224 215 -244 b 76 -233 115 -242 96 -239 b 19 -199 56 -226 35 -218 b 3 -165 11 -190 6 -178 b 3 -129 0 -153 1 -140 b 33 -69 10 -106 21 -86 b 67 -64 40 -58 56 -57 b 71 -97 76 -72 79 -87 b 69 -100 71 -99 69 -99 b 43 -139 58 -112 47 -125 b 47 -176 39 -153 39 -165 b 85 -204 56 -189 69 -197 b 138 -215 101 -210 119 -214 b 249 -211 174 -219 211 -217 b 358 -183 286 -206 322 -194 b 457 -133 393 -171 429 -157 b 489 -92 471 -122 483 -108 b 492 -39 496 -75 496 -57 b 432 53 482 -4 458 26 b 339 114 404 78 372 100 b 338 114 339 114 338 114 b 319 128 329 115 322 121 b 331 160 314 140 319 154 b 333 161 332 160 332 161 b 631 321 440 196 543 250 b 749 443 674 357 715 397 b 819 594 782 489 811 540 b 807 672 824 622 821 651 b 736 704 792 694 764 704 b 653 693 708 706 681 699 b 572 665 626 686 599 676 b 429 578 519 644 471 615 b 376 515 408 560 390 539 b 360 481 369 504 363 492 b 356 465 357 475 356 469 b 357 460 356 460 358 457 b 350 426 364 449 361 433 b 317 435 339 419 324 424 b 313 471 308 450 311 461 b 321 496 314 481 317 489 b 346 536 328 511 336 525 b 411 600 365 561 388 581 b 565 683 458 636 511 663 b 650 707 593 693 621 700 b 738 719 678 714 707 721 b 782 710 753 718 767 715 b 818 681 796 704 810 694 b 835 593 836 654 839 622 b 764 433 825 533 797 481 b 646 303 729 385 690 342 b 386 132 569 233 481 178 b 446 65 407 111 426 89 b 481 18 458 50 471 35 "},"4":{"ha":615,"x_min":0,"x_max":0,"o":"m 472 182 b 499 164 479 179 490 175 b 492 131 506 153 503 138 b 458 138 481 124 465 126 b 456 140 461 136 458 139 b 442 146 451 143 447 144 b 407 151 431 149 418 150 b 397 151 404 151 400 151 b 383 129 393 144 388 136 b 281 -50 347 71 313 11 b 236 -142 265 -79 250 -110 b 218 -187 229 -157 224 -172 b 213 -211 215 -196 214 -203 b 211 -219 213 -214 211 -217 b 213 -221 211 -222 213 -225 b 199 -253 217 -233 211 -247 b 168 -240 186 -258 172 -251 b 165 -215 164 -228 165 -222 b 169 -200 167 -210 168 -204 b 179 -174 172 -190 176 -182 b 204 -125 188 -157 196 -140 b 256 -35 221 -94 238 -65 b 365 140 292 24 328 82 b 371 151 367 144 369 149 b 332 150 358 151 346 151 b 182 129 282 147 232 139 b 107 113 157 124 132 118 b 71 103 94 110 83 107 b 31 96 58 100 44 96 b 18 99 26 97 22 97 b 6 110 14 100 8 104 b 6 136 0 121 4 129 b 26 171 11 149 18 160 b 75 232 42 193 58 211 b 179 344 108 269 144 307 b 282 457 214 382 249 419 b 381 572 317 494 350 532 b 422 635 396 593 410 614 b 439 665 429 644 435 656 b 447 694 443 676 446 686 b 471 718 447 708 458 718 b 494 693 485 717 494 706 b 494 690 494 692 494 692 b 479 646 492 672 485 658 b 457 611 472 633 465 622 b 408 550 442 589 426 569 b 304 436 375 511 340 474 b 90 218 232 364 158 293 b 42 160 74 199 57 179 b 24 129 35 150 28 139 b 22 118 22 124 22 118 b 31 115 22 118 25 115 b 103 131 53 115 78 125 b 178 149 128 138 153 143 b 329 179 228 161 278 171 b 393 186 350 182 371 185 b 474 317 419 229 447 274 b 572 497 508 376 543 436 b 604 510 578 510 592 515 b 615 478 615 504 621 489 b 614 474 615 476 614 475 b 554 388 593 444 574 417 b 494 303 533 360 514 332 b 421 188 469 265 444 226 b 449 188 429 188 439 188 b 472 182 456 186 464 185 "},"5":{"ha":690,"x_min":0,"x_max":0,"o":"m 688 619 b 690 611 689 618 690 615 b 681 606 689 608 685 606 b 675 611 678 607 676 608 b 674 613 675 611 674 611 b 665 614 671 613 668 614 b 647 615 660 615 653 615 b 610 618 635 617 622 618 b 535 617 585 618 560 618 b 460 611 510 615 485 614 b 438 608 451 611 444 610 b 436 606 438 607 436 606 b 433 601 435 604 435 603 l 433 600 b 315 442 389 551 349 497 b 269 354 297 414 282 385 b 264 332 267 347 265 339 b 264 311 263 325 263 317 b 278 306 267 307 271 306 b 301 310 285 306 293 308 b 501 304 365 329 438 329 b 581 239 533 292 564 271 b 592 186 589 222 593 204 b 578 136 590 168 585 151 b 515 54 563 104 540 78 b 439 -11 492 29 465 8 b 267 -117 383 -51 326 -85 b 175 -160 238 -132 207 -147 b 72 -183 143 -172 111 -183 b 42 -179 63 -183 51 -182 b 13 -157 31 -175 19 -168 b 1 -125 6 -147 3 -135 b 3 -94 0 -114 1 -104 b 19 -42 6 -75 11 -58 b 51 7 28 -25 36 -8 b 86 7 61 17 76 17 b 86 -26 94 -1 96 -17 b 85 -28 85 -26 85 -28 l 83 -28 b 60 -61 75 -35 67 -49 b 43 -101 51 -74 46 -87 b 44 -135 40 -115 40 -128 b 74 -147 49 -142 60 -147 b 164 -131 101 -149 133 -140 b 254 -92 194 -119 225 -106 b 425 7 314 -62 371 -31 b 503 68 453 25 479 44 b 561 143 526 90 547 115 b 567 232 576 171 581 204 b 496 290 553 260 525 279 b 304 297 436 314 367 314 b 279 292 297 294 289 292 b 264 293 274 290 268 292 b 251 306 258 296 253 300 b 249 335 246 315 247 325 b 256 360 250 343 253 351 b 296 453 265 393 281 422 b 376 597 322 501 349 549 b 369 600 374 597 372 599 b 365 633 360 608 357 624 b 378 643 372 642 375 642 b 386 646 381 644 383 646 b 397 649 390 647 394 647 b 418 650 404 649 411 650 b 457 651 432 651 444 651 b 535 649 483 651 510 650 b 611 640 560 646 586 644 b 650 635 624 639 636 638 b 669 631 656 633 663 632 b 679 626 672 629 675 628 b 685 624 681 626 682 625 b 688 619 686 622 688 622 m 675 615 b 675 613 675 614 675 614 b 675 615 675 614 675 614 "},"6":{"ha":578,"x_min":0,"x_max":0,"o":"m 571 678 b 508 654 549 674 529 664 b 451 619 489 644 469 633 b 346 535 414 594 379 565 b 174 326 281 472 222 403 b 101 190 146 282 122 238 b 197 225 133 203 164 214 b 307 246 232 235 268 244 b 365 239 326 247 346 246 b 392 221 375 235 385 229 b 407 192 400 213 404 201 b 406 131 413 171 410 150 b 386 76 401 113 393 94 b 326 -19 369 42 349 10 b 254 -106 304 -50 281 -79 b 165 -179 226 -132 199 -158 b 111 -206 149 -189 132 -200 b 76 -211 101 -210 89 -211 b 44 -203 67 -211 54 -208 b 40 -201 43 -203 42 -201 b 38 -200 39 -200 39 -200 l 38 -199 l 35 -197 b 31 -193 33 -196 32 -194 b 10 -160 21 -182 14 -171 b 1 -121 6 -146 3 -133 b 0 -85 0 -108 1 -96 b 1 -49 0 -72 0 -60 b 25 92 4 -1 13 46 b 144 344 50 182 93 268 b 326 556 196 422 258 493 b 438 640 361 586 399 615 b 499 675 457 654 478 665 b 567 699 519 686 542 694 b 579 690 572 700 578 696 b 571 678 581 685 576 679 m 200 211 b 97 178 165 201 131 190 b 65 81 85 146 74 114 b 46 -50 54 38 47 -7 b 46 -83 46 -61 44 -72 b 47 -115 46 -94 46 -106 b 65 -160 50 -135 57 -153 b 65 -161 65 -160 65 -160 b 99 -162 71 -165 83 -167 b 143 -143 113 -158 128 -151 b 228 -78 172 -125 201 -103 b 360 89 279 -29 326 26 b 381 138 368 106 375 121 b 385 186 385 154 388 171 b 375 206 383 193 379 200 b 357 219 371 211 364 215 b 307 228 342 225 325 228 b 200 211 272 228 236 221 "},"7":{"ha":604,"x_min":0,"x_max":0,"o":"m 603 653 b 607 636 607 647 607 642 b 603 622 606 631 604 626 b 592 601 600 615 596 608 b 564 564 583 588 574 575 b 446 424 526 515 485 471 b 226 135 368 331 294 235 b 132 -19 193 85 161 33 b 49 -181 101 -72 74 -126 b 17 -193 43 -193 29 -199 b 6 -161 6 -187 0 -174 b 7 -160 6 -161 6 -160 b 99 -1 36 -106 67 -53 b 201 151 132 51 167 101 b 431 438 274 251 351 344 b 550 575 471 483 511 528 b 576 611 558 588 568 599 b 586 629 581 617 583 624 b 588 643 589 636 589 642 b 574 649 588 646 581 647 b 553 649 568 649 560 649 b 510 642 539 647 524 644 b 421 621 479 636 450 628 b 331 601 390 614 361 608 b 239 588 300 596 269 590 b 189 586 222 586 207 585 b 161 593 181 588 172 588 b 143 606 156 594 149 599 b 136 621 140 610 138 615 b 136 629 136 624 136 626 b 136 635 136 632 136 633 b 139 640 138 636 138 638 b 171 651 144 653 158 657 b 183 631 179 647 183 639 b 196 626 188 629 190 628 b 238 622 208 624 222 622 b 326 628 267 622 297 624 b 506 660 386 635 446 647 b 551 667 521 663 536 665 b 576 667 560 667 568 667 b 590 664 581 665 585 665 b 603 653 594 661 600 658 m 181 632 b 181 632 181 632 181 632 b 181 632 181 632 181 632 b 181 632 179 633 179 633 m 182 619 b 182 622 182 621 182 622 b 182 619 182 621 182 621 "},"8":{"ha":726,"x_min":0,"x_max":0,"o":"m 683 664 b 722 606 703 650 717 628 b 722 542 726 583 726 561 b 678 431 715 500 697 464 b 531 251 638 363 586 304 b 353 108 475 199 415 151 b 379 8 363 72 372 39 b 290 -178 394 -61 363 -129 b 290 -178 290 -178 290 -178 b 289 -179 290 -178 290 -179 b 194 -218 260 -197 228 -211 b 90 -219 161 -225 126 -228 b 40 -196 74 -215 56 -207 b 7 -149 25 -183 14 -167 b 1 -94 1 -131 0 -112 b 15 -44 4 -76 8 -60 b 69 40 28 -12 47 15 b 138 108 90 65 114 88 b 275 207 181 144 228 178 b 440 665 232 385 215 593 b 442 665 440 665 440 665 b 442 665 442 665 442 665 b 443 665 442 665 443 665 b 560 689 481 676 519 686 l 575 690 l 590 690 b 621 688 600 690 611 689 b 683 664 642 683 664 678 m 263 -139 b 332 -1 289 -121 349 -72 b 306 99 326 28 317 63 b 281 190 297 126 288 158 b 154 90 235 160 193 126 b 90 22 131 69 110 46 b 44 -56 71 -1 56 -28 b 36 -97 40 -69 36 -83 b 40 -136 35 -111 36 -125 b 100 -181 50 -160 72 -175 b 185 -175 126 -186 156 -183 b 263 -139 213 -168 239 -156 b 263 -139 263 -139 263 -139 b 263 -139 263 -139 263 -139 m 686 547 b 660 631 692 582 685 615 b 564 644 635 647 599 649 b 457 619 528 640 492 632 b 456 619 457 619 456 619 b 456 619 456 619 456 619 b 347 126 247 553 281 357 b 513 268 406 169 461 217 b 649 446 565 322 614 381 b 686 547 667 478 682 513 "},"9":{"ha":546,"x_min":0,"x_max":0,"o":"m 536 593 b 547 561 547 588 553 574 b 546 558 546 560 546 560 b 478 460 522 524 500 492 l 411 363 b 285 164 368 297 325 231 b 167 -40 243 97 204 29 b 115 -144 149 -74 131 -108 b 94 -197 108 -162 100 -181 b 88 -224 92 -207 89 -215 b 86 -235 86 -228 86 -232 b 86 -239 86 -237 88 -240 b 74 -269 92 -250 86 -264 b 43 -257 61 -275 47 -268 b 40 -231 39 -244 40 -237 b 44 -212 42 -224 43 -218 b 56 -183 47 -203 51 -193 b 83 -129 64 -164 74 -146 b 142 -25 101 -93 122 -60 b 265 176 182 42 224 108 b 389 376 307 242 349 310 b 472 519 418 424 446 471 b 325 393 425 476 376 433 b 211 315 289 365 251 339 b 149 283 192 303 171 293 b 78 267 126 275 104 267 b 38 276 64 267 50 269 b 10 311 24 285 14 297 b 7 388 0 338 3 364 b 60 519 17 435 36 478 b 143 632 83 560 111 597 b 250 721 174 665 210 696 b 250 722 250 721 250 721 b 253 724 251 722 253 722 b 336 750 278 735 304 747 b 385 740 351 751 369 750 b 417 703 400 732 411 717 b 422 618 426 674 425 646 b 406 540 419 592 414 565 b 400 536 406 538 403 536 b 396 542 397 538 396 540 b 403 619 401 568 403 594 b 390 692 403 644 400 671 b 342 711 379 711 363 717 b 276 682 319 707 297 694 b 276 682 276 682 276 682 b 276 681 276 682 276 681 b 93 499 201 639 139 574 b 40 381 69 461 50 422 b 40 322 36 360 35 339 b 78 297 44 306 58 297 b 139 310 97 296 118 303 b 199 338 160 317 179 326 b 311 411 238 358 275 385 b 492 557 374 456 433 506 b 503 581 494 565 500 572 l 504 582 b 536 593 510 593 524 599 "}," ":{"ha":435,"x_min":0,"x_max":0,"o":""},"!":{"ha":594,"x_min":0,"x_max":0,"o":"m 565 888 b 567 879 567 882 567 881 b 567 875 567 876 567 876 b 564 868 565 871 565 869 b 556 853 561 861 558 857 b 539 831 550 846 544 838 b 508 785 529 815 519 800 b 453 692 489 754 471 724 l 346 503 b 240 313 310 440 275 376 b 190 217 224 281 207 249 l 165 168 b 154 144 161 161 158 153 b 144 121 150 136 146 128 b 114 107 140 108 126 103 b 99 138 101 111 94 125 b 100 140 100 139 100 139 b 115 165 106 150 110 157 l 131 189 l 160 235 l 218 326 b 333 510 257 388 296 449 b 444 697 371 572 408 635 b 494 792 463 728 481 760 b 515 843 503 808 510 825 b 517 846 515 843 517 844 b 507 876 507 851 503 864 b 517 889 508 882 513 886 l 521 892 l 526 894 b 536 900 528 896 529 897 b 540 901 539 900 538 900 b 549 900 543 901 546 901 b 560 894 551 900 557 897 b 565 888 563 892 564 890 m 524 874 b 525 879 525 875 525 878 b 524 879 525 879 525 881 b 524 876 524 878 524 878 b 524 874 524 875 524 875 m 72 56 b 88 25 85 51 92 38 b 83 17 86 22 85 19 b 69 0 79 11 74 6 l 63 -8 l 61 -12 b 60 -12 60 -12 60 -12 b 58 -8 60 -12 60 -10 b 46 -26 60 -18 54 -25 b 28 -14 38 -28 29 -22 b 28 -7 28 -11 28 -8 l 29 -4 l 29 0 l 31 7 l 35 18 b 42 40 36 25 39 33 b 72 56 46 53 60 60 "},"\"":{"ha":394,"x_min":0,"x_max":0,"o":"m 221 743 b 194 708 211 731 203 719 b 167 674 185 696 176 685 b 135 642 156 663 146 651 b 114 628 128 638 122 632 b 86 619 107 624 97 619 b 69 633 78 618 69 625 b 82 650 69 642 75 649 l 86 650 b 110 668 90 651 101 658 b 136 699 119 676 128 688 b 158 733 143 710 151 721 b 179 768 165 744 172 757 b 213 778 186 781 200 785 b 221 746 224 771 228 757 b 221 743 221 744 221 744 m 313 778 b 322 746 324 771 328 757 b 321 743 321 744 321 744 b 294 708 313 731 304 719 b 267 674 286 696 276 685 b 235 642 257 663 246 651 b 215 628 228 638 222 632 b 186 619 207 624 199 619 b 169 633 178 618 171 625 b 183 650 169 642 175 649 l 186 650 b 211 668 190 651 203 658 b 236 699 219 676 228 688 b 258 733 244 710 251 721 b 279 768 267 744 274 757 b 313 778 286 781 300 785 "},"“":{"ha":394,"x_min":0,"x_max":0,"o":"m 221 743 b 221 746 221 744 221 744 b 213 778 228 757 224 771 b 179 768 200 785 186 781 b 158 733 172 757 165 744 b 136 699 151 721 143 710 b 110 668 128 688 119 676 b 86 650 101 658 90 651 l 82 650 b 69 633 75 649 69 642 b 86 619 69 625 78 618 b 114 628 97 619 107 624 b 135 642 122 632 128 638 b 167 674 146 651 156 663 b 194 708 176 685 185 696 b 221 743 203 719 211 731 m 313 778 b 279 768 300 785 286 781 b 258 733 274 757 267 744 b 236 699 251 721 244 710 b 211 668 228 688 219 676 b 186 650 203 658 190 651 l 183 650 b 169 633 175 649 169 642 b 186 619 171 625 178 618 b 215 628 199 619 207 624 b 235 642 222 632 228 638 b 267 674 246 651 257 663 b 294 708 276 685 286 696 b 321 743 304 719 313 731 b 322 746 321 744 321 744 b 313 778 328 757 324 771 "},"”":{"ha":394,"x_min":0,"x_max":0,"o":"m 221 743 b 194 708 211 731 203 719 b 167 674 185 696 176 685 b 135 642 156 663 146 651 b 114 628 128 638 122 632 b 86 619 107 624 97 619 b 69 633 78 618 69 625 b 82 650 69 642 75 649 l 86 650 b 110 668 90 651 101 658 b 136 699 119 676 128 688 b 158 733 143 710 151 721 b 179 768 165 744 172 757 b 213 778 186 781 200 785 b 221 746 224 771 228 757 b 221 743 221 744 221 744 m 313 778 b 322 746 324 771 328 757 b 321 743 321 744 321 744 b 294 708 313 731 304 719 b 267 674 286 696 276 685 b 235 642 257 663 246 651 b 215 628 228 638 222 632 b 186 619 207 624 199 619 b 169 633 178 618 171 625 b 183 650 169 642 175 649 l 186 650 b 211 668 190 651 203 658 b 236 699 219 676 228 688 b 258 733 244 710 251 721 b 279 768 267 744 274 757 b 313 778 286 781 300 785 "},"#":{"ha":597,"x_min":0,"x_max":0,"o":"m 561 243 b 568 236 565 243 568 240 b 561 228 568 232 565 228 b 486 222 536 225 511 224 l 411 132 l 385 100 b 465 100 411 100 439 99 b 474 93 469 100 474 97 b 467 85 474 89 471 85 b 365 78 432 81 400 79 l 340 47 b 272 -40 317 18 293 -11 l 271 -40 b 261 -42 269 -44 264 -44 b 258 -32 257 -40 257 -35 b 322 61 279 0 300 31 l 332 76 l 264 72 l 142 67 l 122 42 b 42 -61 94 8 67 -26 b 31 -62 39 -64 33 -65 b 29 -53 28 -61 26 -56 b 104 57 53 -14 78 21 l 110 65 l 61 64 b 36 86 47 63 36 74 b 58 111 36 100 46 111 b 61 111 60 111 60 111 l 140 108 l 181 164 l 214 210 l 110 206 b 85 229 96 206 85 215 b 107 253 83 242 94 253 b 110 254 108 254 108 254 l 243 249 l 336 375 b 369 381 343 386 358 389 b 374 347 379 374 382 358 b 374 346 374 347 374 347 l 292 247 l 335 246 l 447 243 b 453 243 450 243 451 243 l 517 332 b 550 338 525 343 539 344 b 556 304 561 329 563 314 b 554 303 556 303 554 303 l 504 243 b 560 243 522 242 542 242 l 561 243 m 435 219 l 335 215 l 261 211 l 206 144 l 175 107 l 264 104 l 350 101 l 386 151 "},"$":{"ha":824,"x_min":0,"x_max":0,"o":"m 799 588 b 781 558 801 575 793 561 b 779 558 781 558 779 558 l 778 558 b 606 521 721 550 663 536 b 599 508 604 517 601 513 l 421 197 b 415 188 418 194 417 190 b 468 88 433 154 451 121 b 513 -10 485 56 499 24 b 540 -112 525 -42 536 -76 b 538 -169 543 -131 543 -150 b 503 -217 533 -187 521 -207 b 447 -232 485 -228 465 -232 b 393 -229 429 -233 410 -232 b 289 -199 357 -222 322 -214 b 219 -158 264 -187 242 -175 b 158 -271 199 -196 178 -233 l 115 -350 b 96 -390 108 -364 101 -376 b 78 -429 89 -403 82 -417 b 46 -443 72 -442 58 -447 b 33 -411 33 -437 28 -424 b 33 -410 33 -411 33 -410 b 57 -368 42 -394 49 -382 l 81 -331 l 126 -254 l 199 -139 b 197 -139 197 -139 197 -139 b 135 -44 171 -112 149 -82 b 128 15 129 -26 125 -6 b 156 76 129 38 139 60 b 190 76 165 86 181 86 b 190 43 199 67 199 51 b 188 42 189 42 189 42 b 171 10 179 35 172 24 b 174 -33 168 -3 169 -18 b 217 -110 181 -61 196 -87 l 221 -101 b 393 181 279 -8 336 86 b 346 258 378 207 363 233 b 319 304 338 274 328 288 b 308 363 310 321 306 342 b 333 415 311 383 321 400 b 374 454 344 431 360 443 b 565 546 433 497 500 522 b 618 564 583 553 601 558 b 676 671 639 599 658 635 b 713 753 689 699 701 725 b 725 786 718 764 722 775 b 719 819 714 794 711 808 b 725 826 721 822 722 825 l 726 826 l 732 831 b 744 838 735 833 736 835 b 749 839 746 838 746 838 b 757 838 751 839 754 839 b 768 832 760 838 765 836 b 774 825 772 829 772 828 b 775 815 776 819 775 818 b 775 811 775 813 775 813 b 772 801 775 806 774 804 b 761 779 768 793 765 786 b 738 740 753 765 744 753 l 689 664 b 633 568 671 632 651 600 b 769 606 678 582 724 594 b 799 588 782 608 796 600 m 732 815 b 732 814 732 814 732 815 b 732 811 732 813 732 813 b 733 814 732 813 733 813 b 732 815 733 814 733 817 m 449 78 b 401 165 435 107 418 136 b 244 -114 349 72 296 -21 b 236 -129 242 -119 239 -124 b 397 -204 279 -168 336 -193 b 446 -208 414 -207 431 -208 b 490 -197 463 -207 478 -204 b 515 -162 503 -190 511 -178 b 518 -115 519 -149 519 -132 b 492 -17 514 -82 504 -49 b 449 78 479 15 465 46 m 590 514 b 592 517 590 515 592 515 b 576 513 586 515 582 514 b 479 478 543 503 511 492 b 390 431 449 465 418 450 b 333 358 363 413 338 388 b 340 315 331 344 333 329 b 367 271 349 301 358 286 b 406 201 379 247 393 225 b 408 206 407 203 407 204 b 590 514 469 307 531 410 "},"%":{"ha":1033,"x_min":0,"x_max":0,"o":"m 1008 764 b 1008 760 1008 763 1008 761 b 1008 757 1008 758 1008 758 b 1006 749 1007 751 1006 751 b 1001 742 1004 746 1003 744 b 985 724 996 735 990 729 l 953 689 b 890 619 932 665 911 643 b 771 479 850 574 810 526 l 535 196 b 300 -89 456 101 378 6 b 185 -233 261 -137 224 -185 l 129 -306 b 101 -343 119 -318 110 -331 b 75 -379 92 -354 82 -368 b 42 -387 68 -390 54 -394 b 35 -354 31 -381 28 -365 b 36 -353 35 -353 36 -353 b 67 -315 46 -339 56 -328 l 97 -281 l 158 -211 l 281 -72 b 524 206 363 19 443 113 b 763 486 604 299 685 392 b 879 629 803 533 842 581 b 932 706 897 654 915 679 b 953 739 939 717 946 728 b 954 769 946 749 947 761 b 960 774 956 771 958 772 l 961 774 l 967 778 b 979 783 969 779 971 781 b 982 783 981 783 981 783 b 988 785 983 785 985 785 b 993 783 989 783 990 783 b 1001 778 994 783 999 781 b 1007 769 1004 775 1007 771 b 1008 764 1008 768 1008 767 m 965 763 b 967 767 967 765 967 765 b 965 764 967 767 967 767 l 965 763 b 965 763 965 763 965 763 m 393 299 b 368 332 379 307 372 319 b 371 401 361 357 365 381 b 421 515 382 443 401 479 b 522 668 451 569 486 619 b 514 667 519 668 517 667 l 513 667 b 504 672 510 665 506 668 b 510 681 504 675 506 679 b 535 685 518 682 526 685 b 560 718 543 696 551 707 b 593 722 568 728 582 729 b 597 688 603 714 606 699 b 596 688 597 688 597 688 b 583 672 592 682 588 676 b 599 653 590 667 594 660 b 606 619 603 642 604 631 b 581 499 607 576 594 538 b 525 389 565 460 547 424 b 488 339 514 371 501 354 b 435 297 474 322 458 307 b 415 293 429 294 422 293 b 393 299 407 293 399 294 m 404 392 b 400 342 399 374 396 356 b 408 326 401 335 406 329 b 424 326 413 324 417 324 b 467 358 439 332 453 344 b 503 403 479 372 492 388 b 560 507 525 436 544 471 b 586 619 574 543 588 582 b 574 660 586 635 582 650 b 456 496 531 607 490 553 b 404 392 435 461 417 426 m 665 43 b 672 10 671 32 672 21 b 649 -111 675 -33 663 -74 b 593 -222 633 -150 615 -186 b 556 -272 582 -239 569 -256 b 503 -312 542 -287 526 -303 b 483 -317 497 -315 490 -317 b 460 -311 475 -317 467 -315 b 436 -278 447 -303 440 -290 b 439 -210 429 -253 433 -231 b 489 -94 450 -168 469 -131 b 590 58 519 -42 553 10 b 581 57 588 58 583 57 b 572 61 578 56 574 58 b 578 71 572 65 574 69 b 603 75 586 72 594 74 b 626 107 611 86 618 97 b 661 111 635 118 650 119 b 665 78 671 103 672 89 b 664 78 664 78 664 78 l 664 76 b 651 63 660 72 656 67 b 665 43 658 57 663 50 m 628 -103 b 654 10 642 -67 654 -29 b 642 49 654 25 650 39 b 524 -115 599 -3 558 -58 b 472 -219 503 -149 483 -183 b 468 -269 467 -236 464 -256 b 476 -283 469 -275 474 -282 b 492 -285 481 -286 485 -286 b 535 -253 507 -279 521 -265 b 571 -207 547 -239 560 -222 b 628 -103 593 -175 613 -139 "},"&":{"ha":1285,"x_min":0,"x_max":0,"o":"m 1264 564 b 1263 529 1272 554 1272 539 b 1261 529 1263 529 1263 529 b 726 67 1085 374 907 218 b 782 -8 743 40 763 15 b 882 -92 811 -42 844 -72 b 994 -100 918 -111 961 -117 b 1026 -111 1006 -94 1021 -99 b 1015 -143 1032 -122 1028 -137 b 1014 -144 1015 -143 1014 -143 b 974 -154 1000 -149 988 -153 b 933 -153 960 -156 947 -156 b 863 -126 907 -149 883 -139 b 754 -31 818 -103 785 -68 b 703 46 735 -7 718 19 b 424 -185 610 -32 517 -110 b 203 -351 351 -242 279 -299 b 83 -422 164 -376 126 -403 b 49 -435 72 -428 61 -432 b 26 -432 42 -435 35 -436 b 17 -422 24 -431 19 -426 b 14 -411 15 -418 15 -415 b 22 -375 14 -397 18 -386 b 38 -343 26 -364 32 -353 b 110 -225 58 -301 83 -262 b 190 -112 136 -186 163 -150 b 360 104 246 -39 303 33 l 535 317 b 589 389 553 340 571 364 b 586 492 586 422 585 457 b 663 758 590 585 614 678 b 703 815 675 778 689 797 b 756 863 718 832 735 850 b 790 875 765 868 778 874 b 811 871 797 875 806 874 b 825 854 818 867 822 860 b 831 818 831 842 831 829 b 825 782 829 806 828 793 b 774 653 814 736 794 694 b 704 533 753 613 729 572 b 611 400 675 488 643 443 b 651 225 618 340 631 282 b 711 92 667 179 688 135 b 825 193 750 125 788 158 b 1229 564 961 315 1096 439 b 1264 564 1239 574 1254 574 m 675 750 b 606 492 629 672 608 582 b 610 415 606 465 607 440 b 694 540 639 456 668 497 b 763 658 719 578 743 618 b 813 785 783 699 801 742 b 813 849 817 807 821 831 b 792 861 808 857 801 863 b 763 850 782 861 772 856 b 675 750 726 826 699 788 m 408 -167 b 688 71 503 -89 596 -10 b 625 217 663 118 642 167 b 592 374 610 268 597 319 b 543 310 575 351 560 331 b 369 96 486 238 426 168 b 201 -121 313 25 257 -47 b 122 -233 175 -158 147 -196 b 51 -350 97 -271 72 -310 b 38 -381 46 -360 40 -369 b 31 -410 33 -390 29 -401 b 35 -418 31 -414 32 -417 b 46 -418 36 -418 42 -418 b 76 -407 56 -415 67 -412 b 192 -336 117 -387 154 -361 b 408 -167 267 -282 338 -225 "},"'":{"ha":293,"x_min":0,"x_max":0,"o":"m 213 778 b 221 746 224 771 228 757 b 221 743 221 744 221 744 b 194 708 211 731 203 719 b 167 674 185 696 176 685 b 135 642 156 663 146 651 b 114 628 128 638 122 632 b 86 619 107 624 97 619 b 69 633 78 618 69 625 b 82 650 69 642 75 649 l 86 650 b 110 668 90 651 101 658 b 136 699 119 676 128 688 b 158 733 143 710 151 721 b 179 768 165 744 172 757 b 213 778 186 781 200 785 "},"‘":{"ha":293,"x_min":0,"x_max":0,"o":"m 213 778 b 179 768 200 785 186 781 b 158 733 172 757 165 744 b 136 699 151 721 143 710 b 110 668 128 688 119 676 b 86 650 101 658 90 651 l 82 650 b 69 633 75 649 69 642 b 86 619 69 625 78 618 b 114 628 97 619 107 624 b 135 642 122 632 128 638 b 167 674 146 651 156 663 b 194 708 176 685 185 696 b 221 743 203 719 211 731 b 221 746 221 744 221 744 b 213 778 228 757 224 771 "},"’":{"ha":293,"x_min":0,"x_max":0,"o":"m 213 778 b 221 746 224 771 228 757 b 221 743 221 744 221 744 b 194 708 211 731 203 719 b 167 674 185 696 176 685 b 135 642 156 663 146 651 b 114 628 128 638 122 632 b 86 619 107 624 97 619 b 69 633 78 618 69 625 b 82 650 69 642 75 649 l 86 650 b 110 668 90 651 101 658 b 136 699 119 676 128 688 b 158 733 143 710 151 721 b 179 768 165 744 172 757 b 213 778 186 781 200 785 "},"(":{"ha":938,"x_min":0,"x_max":0,"o":"m 886 928 b 911 904 899 928 910 918 b 889 879 911 892 901 881 b 888 879 888 879 888 879 b 844 868 875 879 858 875 b 800 842 829 861 814 851 b 717 776 771 822 744 800 b 568 621 664 728 615 675 b 310 271 474 511 388 393 b 108 -112 232 149 161 22 b 54 -319 83 -181 61 -250 b 64 -424 53 -356 53 -392 b 89 -467 69 -439 78 -454 b 128 -497 100 -479 114 -489 l 129 -497 b 133 -511 135 -500 136 -506 b 119 -517 131 -517 125 -519 b 72 -482 101 -508 85 -496 b 42 -431 58 -467 49 -449 b 31 -318 29 -394 28 -356 b 82 -103 36 -243 57 -172 b 281 290 133 35 204 165 b 536 647 357 414 442 535 b 688 808 583 704 633 758 b 774 881 714 835 743 858 b 824 910 790 892 806 901 b 886 928 842 918 863 926 "},")":{"ha":964,"x_min":0,"x_max":0,"o":"m 938 825 b 928 710 940 785 935 747 b 864 494 914 636 890 564 b 669 96 811 356 744 222 b 406 -262 593 -32 507 -153 b 242 -412 356 -317 301 -368 b 43 -517 181 -457 115 -494 b 29 -510 38 -518 31 -515 b 36 -496 28 -504 31 -499 b 226 -393 106 -475 168 -437 b 385 -243 283 -349 336 -297 b 639 113 482 -135 565 -14 b 825 508 713 240 776 372 b 883 718 850 578 871 647 b 892 822 890 753 894 789 b 879 864 890 838 886 854 b 854 879 874 875 865 879 l 851 879 b 829 906 839 881 828 892 b 856 928 831 918 842 928 b 893 917 868 926 881 924 b 919 889 904 910 914 899 b 938 825 932 867 935 846 "},"*":{"ha":257,"x_min":0,"x_max":0,"o":"m 226 886 b 229 876 229 885 229 879 b 225 869 228 872 225 869 b 224 867 225 868 225 868 b 219 864 222 865 221 865 b 217 864 218 864 218 864 b 211 863 213 863 213 863 l 204 863 l 193 864 l 169 865 l 144 867 b 158 847 149 860 154 854 b 171 832 163 842 167 836 b 178 824 174 829 176 826 b 181 821 179 824 181 822 b 182 821 182 821 182 821 b 188 818 185 821 186 821 b 186 810 190 815 189 811 b 181 808 185 808 183 808 b 178 808 179 808 179 808 b 174 810 176 808 175 810 b 169 814 172 811 171 813 b 161 821 165 815 163 818 b 146 836 156 825 150 831 b 125 858 138 843 132 851 b 103 828 117 849 110 838 b 90 808 99 821 93 814 b 85 799 88 804 86 801 b 82 793 83 797 83 794 b 82 793 82 793 82 793 b 82 786 83 790 83 788 b 72 785 79 783 75 782 b 69 792 69 788 69 790 b 69 797 69 794 69 796 b 71 804 69 800 71 801 b 76 815 72 807 75 811 b 88 836 79 822 83 829 b 106 869 93 847 100 858 b 79 871 97 869 88 871 b 57 871 71 871 64 871 b 46 869 53 871 49 869 b 42 868 44 869 42 869 b 40 868 40 868 40 868 b 33 865 39 867 36 865 b 28 872 31 865 28 868 b 32 879 29 876 31 878 b 36 881 33 881 35 881 b 43 883 39 882 40 882 b 54 886 47 885 51 885 b 78 888 63 886 71 888 b 97 889 85 889 90 889 l 89 897 l 75 913 b 68 919 74 915 71 918 b 68 919 68 919 68 919 b 56 935 61 921 56 928 b 60 946 56 938 57 942 b 69 951 63 949 64 950 b 76 951 72 951 74 951 b 79 950 76 951 78 950 l 82 949 b 86 946 85 947 85 946 b 90 940 88 943 89 942 b 97 932 93 938 96 935 l 110 914 l 122 897 l 135 919 b 147 940 139 926 143 933 b 151 949 149 943 150 946 b 163 968 149 957 154 965 b 167 968 164 968 165 968 b 171 968 168 968 169 968 b 176 965 174 967 175 967 b 182 960 179 964 181 963 b 183 956 182 958 183 957 b 185 950 185 953 183 953 b 182 943 183 946 183 944 b 179 936 181 940 181 938 b 172 925 176 932 175 928 b 158 904 168 918 163 911 l 149 892 l 169 892 l 193 893 l 203 893 b 215 896 207 896 211 896 b 219 894 217 894 217 894 l 219 893 b 222 892 219 893 221 893 b 225 890 224 892 224 890 b 226 886 225 889 225 890 m 171 936 b 165 936 169 936 168 936 b 168 936 167 936 167 936 b 171 936 168 936 169 936 m 65 922 b 65 922 65 922 65 922 b 65 922 65 922 65 922 m 85 925 b 85 926 85 925 85 926 b 85 925 85 925 85 925 b 85 925 85 925 85 925 "},"+":{"ha":400,"x_min":0,"x_max":0,"o":"m 372 194 b 368 183 374 190 372 186 b 358 188 364 182 360 185 b 354 189 358 188 357 189 b 347 192 353 190 350 190 b 328 193 340 192 335 193 b 289 193 315 193 303 193 b 211 186 264 192 238 189 b 194 161 206 178 200 169 b 143 88 176 138 160 113 b 119 50 135 75 126 63 b 108 32 115 44 111 38 b 104 22 107 28 106 25 b 103 18 103 21 103 19 l 101 17 b 101 10 103 14 103 11 b 90 8 99 6 93 6 b 86 17 86 11 86 15 b 86 21 86 19 86 19 b 89 28 88 24 88 25 b 93 39 90 32 92 35 b 103 60 96 46 99 53 b 124 100 110 74 117 86 b 168 179 138 126 153 153 b 169 181 168 179 168 181 b 57 164 131 175 93 171 l 56 164 b 29 183 43 163 31 171 b 49 211 26 197 35 210 b 51 211 49 211 50 211 b 190 217 97 214 143 217 b 260 333 214 256 236 294 b 293 342 267 344 282 349 b 301 308 304 335 308 319 b 300 307 300 308 300 307 b 235 218 278 278 256 247 b 290 217 253 217 271 217 b 331 213 303 215 317 214 b 350 208 336 211 343 210 b 361 204 354 207 357 207 b 372 194 365 203 369 200 "},",":{"ha":210,"x_min":0,"x_max":0,"o":"m 171 68 b 179 36 182 63 186 47 b 179 35 179 36 179 35 b 153 -1 169 22 161 10 b 125 -35 143 -12 135 -24 b 93 -67 114 -46 104 -57 b 72 -82 86 -72 81 -78 b 44 -90 65 -86 56 -90 b 28 -75 36 -90 28 -83 b 40 -60 28 -68 33 -61 l 44 -58 b 68 -42 49 -58 60 -50 b 94 -11 78 -32 86 -21 b 117 24 101 0 110 13 b 138 58 124 35 131 47 l 138 60 b 171 68 144 71 158 75 "},"-":{"ha":276,"x_min":0,"x_max":0,"o":"m 250 194 b 247 185 251 192 251 186 b 238 186 244 182 239 183 b 231 188 238 185 235 188 b 219 188 228 188 224 188 b 197 188 213 188 206 188 b 151 183 182 186 167 185 b 58 169 119 179 89 175 b 31 189 44 167 32 176 b 50 217 28 203 36 215 b 54 217 51 217 53 217 b 150 214 86 217 118 217 b 197 211 165 214 182 213 b 222 207 206 210 214 208 b 235 204 226 207 231 206 b 242 201 238 203 239 203 b 250 194 244 200 247 199 "},".":{"ha":110,"x_min":0,"x_max":0,"o":"m 76 54 b 78 21 86 46 86 31 b 78 19 78 21 78 21 b 57 0 75 10 68 1 b 54 0 56 0 54 0 b 29 21 42 0 32 8 b 43 53 28 35 38 47 b 76 54 51 63 67 64 "},"/":{"ha":1126,"x_min":0,"x_max":0,"o":"m 1100 869 b 1100 865 1100 868 1100 867 b 1100 860 1100 860 1100 860 b 1099 856 1100 858 1099 857 l 1099 854 b 1097 851 1097 853 1097 851 b 1092 843 1094 849 1093 846 b 1075 822 1086 835 1081 829 b 1040 782 1064 808 1051 796 l 972 703 b 840 542 928 650 883 596 l 581 217 b 322 -108 494 110 408 0 b 196 -274 279 -162 238 -218 l 133 -356 b 103 -397 122 -369 113 -383 b 75 -439 93 -411 82 -426 l 74 -440 b 42 -447 67 -451 53 -454 b 33 -415 31 -440 26 -426 b 35 -414 33 -414 33 -414 b 68 -371 46 -397 57 -385 l 101 -331 l 168 -251 l 303 -92 b 569 226 392 14 482 119 b 833 549 658 333 746 440 b 960 713 876 601 919 657 b 1018 799 981 740 1000 769 b 1044 840 1028 813 1036 826 b 1046 871 1038 850 1038 863 b 1050 875 1047 874 1049 875 l 1057 881 b 1071 886 1061 882 1061 883 b 1075 886 1071 886 1074 886 b 1081 886 1078 888 1079 886 b 1088 885 1083 886 1083 886 b 1097 876 1092 882 1094 879 b 1100 869 1099 872 1099 871 m 1057 865 b 1057 868 1057 867 1057 868 b 1057 868 1058 868 1057 868 b 1057 868 1057 868 1057 868 b 1057 867 1057 868 1057 867 b 1057 865 1057 865 1057 865 "},":":{"ha":163,"x_min":0,"x_max":0,"o":"m 111 243 b 136 221 124 244 136 233 b 114 196 138 208 128 196 b 111 196 113 196 113 196 b 85 215 90 196 85 210 b 103 242 82 228 90 239 b 110 243 106 243 107 243 l 111 243 m 57 135 b 82 113 69 136 81 126 b 60 88 83 100 72 88 b 56 88 58 88 57 88 b 29 107 35 88 31 101 b 49 135 28 119 36 132 b 56 135 50 135 53 135 l 57 135 "},";":{"ha":221,"x_min":0,"x_max":0,"o":"m 167 243 b 192 221 181 244 192 233 b 171 196 193 208 183 196 b 167 196 169 196 168 196 b 140 215 146 196 142 210 b 158 242 139 228 146 239 b 165 243 161 243 164 243 l 167 243 m 129 122 b 140 89 142 115 146 101 b 138 86 139 89 139 88 b 121 63 132 78 126 71 b 101 42 114 56 108 49 b 79 19 94 33 88 26 b 65 11 75 17 71 14 b 43 4 60 7 53 4 b 28 19 35 4 28 11 b 43 35 28 28 35 35 b 56 46 43 36 50 40 b 71 65 61 51 65 58 b 85 88 75 74 81 81 b 97 111 89 96 93 104 b 129 122 103 124 118 128 "},"<":{"ha":369,"x_min":0,"x_max":0,"o":"m 340 250 b 338 238 343 246 342 240 b 325 240 333 235 328 236 b 317 240 326 239 322 240 b 303 239 313 240 307 239 b 271 232 292 236 282 235 b 208 213 250 226 229 219 b 85 171 168 199 125 185 b 63 158 75 168 65 163 b 61 158 63 158 61 158 b 65 153 61 158 63 156 b 117 121 78 142 97 131 b 175 90 135 111 156 101 b 206 69 186 85 196 79 b 222 50 211 65 217 60 b 226 31 225 44 226 38 b 218 10 225 22 222 15 b 185 6 211 0 196 -3 b 178 33 176 13 174 24 b 175 36 176 35 176 35 b 153 53 169 42 161 47 b 97 88 135 65 117 75 b 68 106 88 93 78 99 b 40 129 58 113 49 119 b 28 153 36 135 31 142 b 39 182 26 165 33 176 b 75 200 51 193 64 196 l 201 236 b 267 251 224 242 244 247 b 300 258 278 254 288 257 b 317 258 306 258 311 260 b 328 258 321 258 324 258 b 340 250 331 257 336 256 "},"=":{"ha":358,"x_min":0,"x_max":0,"o":"m 331 221 b 329 210 333 217 332 213 b 318 213 325 208 321 208 b 317 213 319 211 318 213 b 311 213 315 213 314 213 b 300 214 307 214 304 214 b 275 213 292 214 283 214 b 224 208 258 213 240 211 b 124 196 190 206 157 200 b 96 215 110 193 97 203 b 115 243 93 228 103 240 b 119 243 117 243 118 243 b 224 240 154 243 189 242 b 275 236 240 239 258 239 b 301 233 283 236 293 235 b 315 231 306 232 310 231 b 322 228 317 229 319 229 b 331 221 325 226 328 225 m 257 125 b 265 118 258 124 263 122 b 263 107 268 114 267 110 b 253 110 260 106 254 107 b 251 110 253 108 253 110 b 246 111 250 110 247 110 b 233 111 242 111 238 111 b 208 111 225 111 217 111 b 158 107 192 110 175 108 b 57 93 125 103 90 99 b 29 113 44 90 32 100 b 50 140 28 126 36 139 b 54 140 51 140 53 140 b 157 138 89 140 122 140 b 210 135 175 138 192 136 b 236 131 218 133 226 132 b 249 128 240 129 244 129 b 257 125 251 126 254 126 "},">":{"ha":386,"x_min":0,"x_max":0,"o":"m 353 189 b 361 171 357 185 361 178 b 354 153 361 163 357 157 b 338 138 349 144 343 140 b 321 126 332 133 326 129 b 186 72 276 104 231 89 b 122 46 165 64 143 56 b 92 32 111 42 101 36 b 79 24 88 29 83 26 b 76 21 78 22 78 22 b 49 7 72 10 60 3 b 32 36 35 10 28 24 b 42 53 35 44 39 49 b 51 61 46 57 49 60 b 71 72 58 65 64 69 b 106 88 82 78 93 83 b 174 110 128 96 151 103 b 306 157 218 125 265 138 b 328 169 314 161 324 167 b 321 174 326 171 324 172 l 257 206 b 192 233 235 215 214 225 b 160 243 182 238 171 240 b 131 242 149 244 138 246 b 118 246 126 240 121 242 b 122 258 117 250 118 256 b 163 263 136 265 150 264 b 199 254 175 261 188 257 b 267 229 222 246 244 238 l 333 201 b 353 189 339 199 346 196 "},"?":{"ha":646,"x_min":0,"x_max":0,"o":"m 617 926 b 610 872 619 908 615 890 b 592 822 606 856 599 839 b 543 728 576 790 560 758 b 489 636 525 697 507 667 b 372 460 450 576 411 518 l 253 283 l 196 194 b 143 106 176 165 158 136 b 111 94 136 93 122 89 b 100 126 99 100 94 115 b 101 129 100 128 100 128 b 164 217 121 161 143 189 l 228 301 b 356 471 271 358 314 414 b 476 644 397 528 438 585 b 582 826 515 703 553 763 b 600 875 589 843 596 860 b 607 926 606 892 610 910 b 599 947 607 933 604 942 b 578 956 593 951 586 954 b 526 950 561 958 543 954 b 478 933 510 946 494 940 b 429 913 461 926 446 919 b 338 863 397 897 367 881 b 257 797 308 843 281 821 b 201 713 232 772 213 744 b 196 618 189 682 188 649 b 249 549 204 589 225 561 l 250 549 b 260 517 261 543 267 529 b 228 506 254 506 240 500 b 224 508 226 507 225 507 b 176 724 154 561 143 656 b 242 811 192 758 217 786 b 329 875 269 836 299 857 b 425 924 360 893 392 910 b 474 943 440 931 457 938 b 525 961 490 950 507 956 b 579 965 542 965 560 968 b 606 954 588 964 599 961 b 617 926 613 946 615 936 m 72 56 b 88 25 85 51 92 38 b 83 17 86 22 85 19 b 69 0 79 11 74 6 l 63 -8 l 61 -12 b 60 -12 60 -12 60 -12 b 58 -8 60 -12 60 -10 b 46 -26 60 -18 54 -25 b 28 -14 38 -28 29 -22 b 28 -7 28 -11 28 -8 l 29 -4 l 29 0 l 31 7 l 35 18 b 42 40 36 25 39 33 b 72 56 46 53 60 60 "},"@":{"ha":899,"x_min":0,"x_max":0,"o":"m 850 801 b 869 618 875 743 876 679 b 818 439 863 556 844 496 b 711 286 793 382 757 329 b 636 228 689 264 663 244 b 593 207 621 221 607 213 b 547 190 578 200 564 194 b 519 186 539 188 529 186 b 501 190 514 186 508 188 b 485 206 496 193 489 199 b 479 240 478 218 479 231 b 479 240 479 240 479 240 b 333 119 433 199 386 157 b 281 89 317 108 300 97 b 246 81 269 85 260 81 b 224 89 240 81 231 82 b 215 110 218 96 215 104 b 218 144 214 124 217 133 b 229 175 221 156 225 165 b 256 229 238 193 246 213 b 324 331 276 265 299 299 b 407 422 349 364 375 394 b 461 458 424 436 440 449 b 501 465 472 463 485 468 b 525 456 510 464 518 461 b 540 438 532 450 538 444 b 556 369 554 413 554 390 b 556 364 556 367 556 365 b 565 360 558 363 563 361 b 572 326 576 353 579 338 b 571 325 572 326 571 325 l 571 324 b 524 251 553 301 535 276 b 518 233 521 246 519 239 b 517 224 517 228 517 224 b 517 224 517 224 517 224 b 522 222 518 222 519 222 b 540 224 526 221 533 222 b 622 253 567 228 596 240 b 694 303 649 267 672 283 b 856 619 785 383 839 500 b 839 797 864 679 861 742 b 786 867 828 825 811 850 b 703 892 763 885 733 892 b 533 833 643 890 588 861 b 385 728 481 803 431 768 b 153 447 293 649 214 553 b 79 281 124 394 99 339 b 54 104 61 224 50 164 b 78 21 57 75 64 46 b 135 -37 90 -4 111 -25 b 306 -56 185 -65 247 -65 b 629 92 424 -37 533 19 b 663 88 639 100 654 97 b 657 53 669 76 668 61 b 657 53 657 53 657 53 b 492 -39 604 18 550 -14 b 310 -89 433 -64 374 -82 b 214 -92 279 -93 247 -94 b 121 -62 182 -87 150 -81 b 54 8 92 -47 68 -21 b 31 103 39 39 32 71 b 60 288 26 167 40 229 b 138 456 79 347 107 403 b 375 739 200 563 281 660 b 528 844 422 779 472 815 b 611 885 554 860 582 872 b 703 904 640 896 671 903 b 793 876 735 904 768 896 b 850 801 819 858 839 831 m 503 304 b 503 313 503 307 503 310 b 503 314 503 313 503 313 b 510 369 507 332 510 351 b 503 417 510 388 508 406 b 496 424 500 422 499 424 b 478 421 492 425 485 424 b 432 392 463 414 447 404 b 350 310 403 368 375 339 b 282 214 325 279 303 247 b 254 164 272 197 263 181 b 240 113 247 146 240 128 b 242 107 240 110 242 107 b 247 106 243 106 243 106 b 271 111 254 104 263 107 b 322 138 289 117 306 128 b 486 264 379 175 433 219 b 486 267 486 265 486 265 b 503 304 492 279 497 292 "},"A":{"ha":1408,"x_min":0,"x_max":0,"o":"m 1426 926 b 1436 893 1433 915 1435 903 b 1431 835 1438 872 1433 854 b 1417 782 1426 817 1422 799 b 1338 579 1394 713 1367 646 b 1167 225 1285 460 1226 342 b 1233 233 1189 228 1211 231 b 1417 250 1294 240 1354 247 b 1422 244 1419 251 1422 249 b 1417 239 1422 242 1421 239 b 1236 217 1357 235 1296 225 b 1157 206 1210 214 1183 210 b 1150 192 1156 201 1153 196 b 957 -192 1086 64 1021 -64 b 931 -249 949 -211 939 -229 b 935 -290 933 -262 935 -276 b 925 -372 936 -318 932 -346 b 900 -449 919 -399 911 -425 b 828 -582 881 -496 856 -540 b 800 -599 824 -593 813 -600 b 774 -579 790 -597 778 -589 b 767 -557 768 -571 768 -564 b 769 -524 767 -544 768 -533 b 785 -468 774 -504 779 -486 b 825 -367 796 -433 811 -400 b 892 -225 846 -319 869 -272 b 890 -219 892 -224 892 -221 b 849 -160 881 -197 867 -178 b 719 -86 814 -126 767 -103 b 568 -51 671 -69 619 -58 b 467 -43 535 -47 500 -44 b 267 -317 399 -133 332 -225 b 253 -339 261 -324 257 -332 b 243 -354 250 -344 247 -349 b 240 -361 243 -357 242 -360 b 239 -364 240 -362 239 -364 b 219 -383 238 -374 231 -382 b 192 -364 207 -386 194 -378 b 193 -351 192 -361 192 -356 l 194 -347 b 197 -342 196 -344 196 -343 b 203 -332 199 -337 200 -335 b 213 -314 206 -325 210 -319 b 233 -282 219 -303 226 -292 l 276 -218 l 363 -90 b 397 -40 374 -74 385 -57 b 113 -57 301 -39 207 -46 b 113 -57 113 -57 113 -57 b 113 -57 113 -57 113 -57 b 85 -61 103 -60 94 -61 b 51 -56 75 -61 65 -61 b 31 -36 46 -54 36 -47 b 32 -7 26 -24 29 -12 b 38 1 33 -4 35 -1 b 44 10 39 6 42 8 b 57 19 49 14 53 17 b 103 42 72 29 88 35 b 147 56 118 46 132 51 b 328 99 207 72 267 86 b 510 132 388 110 449 121 b 532 164 517 143 525 154 b 686 428 586 250 639 338 b 749 565 710 472 732 518 b 768 636 757 589 764 613 b 753 696 771 660 768 685 b 750 711 747 699 746 706 b 765 714 753 717 760 718 b 790 675 779 706 788 690 b 790 633 793 661 793 647 b 772 557 788 607 781 582 b 711 414 756 507 735 461 b 561 146 665 322 614 233 b 557 139 560 144 558 142 b 579 143 564 140 571 142 b 722 328 626 206 674 267 b 1001 656 813 439 904 550 b 1154 808 1050 708 1101 760 b 1239 878 1182 832 1208 856 b 1333 935 1268 900 1299 919 b 1393 949 1350 942 1368 951 b 1426 926 1406 947 1421 938 m 550 104 b 533 101 544 103 539 101 b 468 -3 513 67 490 32 b 469 -3 469 -3 469 -3 b 550 104 496 33 522 68 m 414 1 b 424 0 418 0 421 0 b 483 92 444 31 464 61 b 336 60 435 82 385 71 b 160 14 276 46 217 32 b 118 -1 146 10 132 4 b 96 -11 111 -4 103 -7 b 414 1 203 1 308 4 m 239 -361 b 239 -356 240 -360 240 -357 b 239 -361 239 -358 239 -360 m 810 -551 b 811 -551 810 -551 810 -551 b 810 -551 810 -551 810 -551 m 900 -367 b 907 -297 904 -343 907 -321 b 867 -385 893 -326 881 -356 b 829 -483 853 -418 840 -450 b 817 -532 824 -500 818 -517 b 814 -553 815 -540 814 -547 b 814 -553 814 -553 814 -553 b 818 -556 817 -554 817 -554 b 876 -440 840 -518 861 -479 b 900 -367 886 -415 894 -392 m 918 -172 b 1108 199 981 -47 1046 75 b 1054 190 1090 196 1072 193 b 694 131 935 172 814 153 b 583 111 657 124 619 118 b 494 -4 553 72 524 33 b 574 -14 521 -7 547 -10 b 731 -53 626 -22 679 -35 b 871 -137 782 -72 832 -97 b 910 -190 886 -154 899 -171 b 918 -172 913 -185 915 -178 m 1397 842 b 1403 892 1401 858 1403 876 b 1399 910 1403 899 1401 906 b 1389 915 1396 914 1394 915 b 1346 906 1378 918 1361 913 b 1257 853 1315 892 1285 874 b 1175 785 1229 832 1201 808 b 1022 636 1122 738 1071 688 b 742 313 925 532 832 422 b 613 149 699 258 654 203 b 689 161 638 153 664 157 b 1051 211 810 179 931 196 b 1119 219 1075 214 1097 217 b 1304 594 1183 343 1247 468 b 1383 792 1333 660 1363 725 b 1397 842 1389 808 1393 825 "},"À":{"ha":1408,"x_min":0,"x_max":0,"o":"m 1426 926 b 1393 949 1421 938 1406 947 b 1333 935 1368 951 1350 942 b 1239 878 1299 919 1268 900 b 1154 808 1208 856 1182 832 b 1001 656 1101 760 1050 708 b 722 328 904 550 813 439 b 579 143 674 267 626 206 b 557 139 571 142 564 140 b 561 146 558 142 560 144 b 711 414 614 233 665 322 b 772 557 735 461 756 507 b 790 633 781 582 788 607 b 790 675 793 647 793 661 b 765 714 788 690 779 706 b 750 711 760 718 753 717 b 753 696 746 706 747 699 b 768 636 768 685 771 660 b 749 565 764 613 757 589 b 686 428 732 518 710 472 b 532 164 639 338 586 250 b 510 132 525 154 517 143 b 328 99 449 121 388 110 b 147 56 267 86 207 72 b 103 42 132 51 118 46 b 57 19 88 35 72 29 b 44 10 53 17 49 14 b 38 1 42 8 39 6 b 32 -7 35 -1 33 -4 b 31 -36 29 -12 26 -24 b 51 -56 36 -47 46 -54 b 85 -61 65 -61 75 -61 b 113 -57 94 -61 103 -60 b 113 -57 113 -57 113 -57 b 113 -57 113 -57 113 -57 b 397 -40 207 -46 301 -39 b 363 -90 385 -57 374 -74 l 276 -218 l 233 -282 b 213 -314 226 -292 219 -303 b 203 -332 210 -319 206 -325 b 197 -342 200 -335 199 -337 b 194 -347 196 -343 196 -344 l 193 -351 b 192 -364 192 -356 192 -361 b 219 -383 194 -378 207 -386 b 239 -364 231 -382 238 -374 b 240 -361 239 -364 240 -362 b 243 -354 242 -360 243 -357 b 253 -339 247 -349 250 -344 b 267 -317 257 -332 261 -324 b 467 -43 332 -225 399 -133 b 568 -51 500 -44 535 -47 b 719 -86 619 -58 671 -69 b 849 -160 767 -103 814 -126 b 890 -219 867 -178 881 -197 b 892 -225 892 -221 892 -224 b 825 -367 869 -272 846 -319 b 785 -468 811 -400 796 -433 b 769 -524 779 -486 774 -504 b 767 -557 768 -533 767 -544 b 774 -579 768 -564 768 -571 b 800 -599 778 -589 790 -597 b 828 -582 813 -600 824 -593 b 900 -449 856 -540 881 -496 b 925 -372 911 -425 919 -399 b 935 -290 932 -346 936 -318 b 931 -249 935 -276 933 -262 b 957 -192 939 -229 949 -211 b 1150 192 1021 -64 1086 64 b 1157 206 1153 196 1156 201 b 1236 217 1183 210 1210 214 b 1417 239 1296 225 1357 235 b 1422 244 1421 239 1422 242 b 1417 250 1422 249 1419 251 b 1233 233 1354 247 1294 240 b 1167 225 1211 231 1189 228 b 1338 579 1226 342 1285 460 b 1417 782 1367 646 1394 713 b 1431 835 1422 799 1426 817 b 1436 893 1433 854 1438 872 b 1426 926 1435 903 1433 915 m 550 104 b 469 -3 522 68 496 33 b 468 -3 469 -3 469 -3 b 533 101 490 32 513 67 b 550 104 539 101 544 103 m 414 1 b 96 -11 308 4 203 1 b 118 -1 103 -7 111 -4 b 160 14 132 4 146 10 b 336 60 217 32 276 46 b 483 92 385 71 435 82 b 424 0 464 61 444 31 b 414 1 421 0 418 0 m 239 -361 b 239 -356 239 -360 239 -358 b 239 -361 240 -357 240 -360 m 810 -551 b 811 -551 810 -551 810 -551 b 810 -551 810 -551 810 -551 m 900 -367 b 876 -440 894 -392 886 -415 b 818 -556 861 -479 840 -518 b 814 -553 817 -554 817 -554 b 814 -553 814 -553 814 -553 b 817 -532 814 -547 815 -540 b 829 -483 818 -517 824 -500 b 867 -385 840 -450 853 -418 b 907 -297 881 -356 893 -326 b 900 -367 907 -321 904 -343 m 918 -172 b 910 -190 915 -178 913 -185 b 871 -137 899 -171 886 -154 b 731 -53 832 -97 782 -72 b 574 -14 679 -35 626 -22 b 494 -4 547 -10 521 -7 b 583 111 524 33 553 72 b 694 131 619 118 657 124 b 1054 190 814 153 935 172 b 1108 199 1072 193 1090 196 b 918 -172 1046 75 981 -47 m 1397 842 b 1383 792 1393 825 1389 808 b 1304 594 1363 725 1333 660 b 1119 219 1247 468 1183 343 b 1051 211 1097 217 1075 214 b 689 161 931 196 810 179 b 613 149 664 157 638 153 b 742 313 654 203 699 258 b 1022 636 832 422 925 532 b 1175 785 1071 688 1122 738 b 1257 853 1201 808 1229 832 b 1346 906 1285 874 1315 892 b 1389 915 1361 913 1378 918 b 1399 910 1394 915 1396 914 b 1403 892 1401 906 1403 899 b 1397 842 1403 876 1401 858 "},"Á":{"ha":1408,"x_min":0,"x_max":0,"o":"m 1426 926 b 1436 893 1433 915 1435 903 b 1431 835 1438 872 1433 854 b 1417 782 1426 817 1422 799 b 1338 579 1394 713 1367 646 b 1167 225 1285 460 1226 342 b 1233 233 1189 228 1211 231 b 1417 250 1294 240 1354 247 b 1422 244 1419 251 1422 249 b 1417 239 1422 242 1421 239 b 1236 217 1357 235 1296 225 b 1157 206 1210 214 1183 210 b 1150 192 1156 201 1153 196 b 957 -192 1086 64 1021 -64 b 931 -249 949 -211 939 -229 b 935 -290 933 -262 935 -276 b 925 -372 936 -318 932 -346 b 900 -449 919 -399 911 -425 b 828 -582 881 -496 856 -540 b 800 -599 824 -593 813 -600 b 774 -579 790 -597 778 -589 b 767 -557 768 -571 768 -564 b 769 -524 767 -544 768 -533 b 785 -468 774 -504 779 -486 b 825 -367 796 -433 811 -400 b 892 -225 846 -319 869 -272 b 890 -219 892 -224 892 -221 b 849 -160 881 -197 867 -178 b 719 -86 814 -126 767 -103 b 568 -51 671 -69 619 -58 b 467 -43 535 -47 500 -44 b 267 -317 399 -133 332 -225 b 253 -339 261 -324 257 -332 b 243 -354 250 -344 247 -349 b 240 -361 243 -357 242 -360 b 239 -364 240 -362 239 -364 b 219 -383 238 -374 231 -382 b 192 -364 207 -386 194 -378 b 193 -351 192 -361 192 -356 l 194 -347 b 197 -342 196 -344 196 -343 b 203 -332 199 -337 200 -335 b 213 -314 206 -325 210 -319 b 233 -282 219 -303 226 -292 l 276 -218 l 363 -90 b 397 -40 374 -74 385 -57 b 113 -57 301 -39 207 -46 b 113 -57 113 -57 113 -57 b 113 -57 113 -57 113 -57 b 85 -61 103 -60 94 -61 b 51 -56 75 -61 65 -61 b 31 -36 46 -54 36 -47 b 32 -7 26 -24 29 -12 b 38 1 33 -4 35 -1 b 44 10 39 6 42 8 b 57 19 49 14 53 17 b 103 42 72 29 88 35 b 147 56 118 46 132 51 b 328 99 207 72 267 86 b 510 132 388 110 449 121 b 532 164 517 143 525 154 b 686 428 586 250 639 338 b 749 565 710 472 732 518 b 768 636 757 589 764 613 b 753 696 771 660 768 685 b 750 711 747 699 746 706 b 765 714 753 717 760 718 b 790 675 779 706 788 690 b 790 633 793 661 793 647 b 772 557 788 607 781 582 b 711 414 756 507 735 461 b 561 146 665 322 614 233 b 557 139 560 144 558 142 b 579 143 564 140 571 142 b 722 328 626 206 674 267 b 1001 656 813 439 904 550 b 1154 808 1050 708 1101 760 b 1239 878 1182 832 1208 856 b 1333 935 1268 900 1299 919 b 1393 949 1350 942 1368 951 b 1426 926 1406 947 1421 938 m 550 104 b 533 101 544 103 539 101 b 468 -3 513 67 490 32 b 469 -3 469 -3 469 -3 b 550 104 496 33 522 68 m 414 1 b 424 0 418 0 421 0 b 483 92 444 31 464 61 b 336 60 435 82 385 71 b 160 14 276 46 217 32 b 118 -1 146 10 132 4 b 96 -11 111 -4 103 -7 b 414 1 203 1 308 4 m 239 -361 b 239 -356 240 -360 240 -357 b 239 -361 239 -358 239 -360 m 810 -551 b 811 -551 810 -551 810 -551 b 810 -551 810 -551 810 -551 m 900 -367 b 907 -297 904 -343 907 -321 b 867 -385 893 -326 881 -356 b 829 -483 853 -418 840 -450 b 817 -532 824 -500 818 -517 b 814 -553 815 -540 814 -547 b 814 -553 814 -553 814 -553 b 818 -556 817 -554 817 -554 b 876 -440 840 -518 861 -479 b 900 -367 886 -415 894 -392 m 918 -172 b 1108 199 981 -47 1046 75 b 1054 190 1090 196 1072 193 b 694 131 935 172 814 153 b 583 111 657 124 619 118 b 494 -4 553 72 524 33 b 574 -14 521 -7 547 -10 b 731 -53 626 -22 679 -35 b 871 -137 782 -72 832 -97 b 910 -190 886 -154 899 -171 b 918 -172 913 -185 915 -178 m 1397 842 b 1403 892 1401 858 1403 876 b 1399 910 1403 899 1401 906 b 1389 915 1396 914 1394 915 b 1346 906 1378 918 1361 913 b 1257 853 1315 892 1285 874 b 1175 785 1229 832 1201 808 b 1022 636 1122 738 1071 688 b 742 313 925 532 832 422 b 613 149 699 258 654 203 b 689 161 638 153 664 157 b 1051 211 810 179 931 196 b 1119 219 1075 214 1097 217 b 1304 594 1183 343 1247 468 b 1383 792 1333 660 1363 725 b 1397 842 1389 808 1393 825 "},"Â":{"ha":1408,"x_min":0,"x_max":0,"o":"m 1426 926 b 1393 949 1421 938 1406 947 b 1333 935 1368 951 1350 942 b 1239 878 1299 919 1268 900 b 1154 808 1208 856 1182 832 b 1001 656 1101 760 1050 708 b 722 328 904 550 813 439 b 579 143 674 267 626 206 b 557 139 571 142 564 140 b 561 146 558 142 560 144 b 711 414 614 233 665 322 b 772 557 735 461 756 507 b 790 633 781 582 788 607 b 790 675 793 647 793 661 b 765 714 788 690 779 706 b 750 711 760 718 753 717 b 753 696 746 706 747 699 b 768 636 768 685 771 660 b 749 565 764 613 757 589 b 686 428 732 518 710 472 b 532 164 639 338 586 250 b 510 132 525 154 517 143 b 328 99 449 121 388 110 b 147 56 267 86 207 72 b 103 42 132 51 118 46 b 57 19 88 35 72 29 b 44 10 53 17 49 14 b 38 1 42 8 39 6 b 32 -7 35 -1 33 -4 b 31 -36 29 -12 26 -24 b 51 -56 36 -47 46 -54 b 85 -61 65 -61 75 -61 b 113 -57 94 -61 103 -60 b 113 -57 113 -57 113 -57 b 113 -57 113 -57 113 -57 b 397 -40 207 -46 301 -39 b 363 -90 385 -57 374 -74 l 276 -218 l 233 -282 b 213 -314 226 -292 219 -303 b 203 -332 210 -319 206 -325 b 197 -342 200 -335 199 -337 b 194 -347 196 -343 196 -344 l 193 -351 b 192 -364 192 -356 192 -361 b 219 -383 194 -378 207 -386 b 239 -364 231 -382 238 -374 b 240 -361 239 -364 240 -362 b 243 -354 242 -360 243 -357 b 253 -339 247 -349 250 -344 b 267 -317 257 -332 261 -324 b 467 -43 332 -225 399 -133 b 568 -51 500 -44 535 -47 b 719 -86 619 -58 671 -69 b 849 -160 767 -103 814 -126 b 890 -219 867 -178 881 -197 b 892 -225 892 -221 892 -224 b 825 -367 869 -272 846 -319 b 785 -468 811 -400 796 -433 b 769 -524 779 -486 774 -504 b 767 -557 768 -533 767 -544 b 774 -579 768 -564 768 -571 b 800 -599 778 -589 790 -597 b 828 -582 813 -600 824 -593 b 900 -449 856 -540 881 -496 b 925 -372 911 -425 919 -399 b 935 -290 932 -346 936 -318 b 931 -249 935 -276 933 -262 b 957 -192 939 -229 949 -211 b 1150 192 1021 -64 1086 64 b 1157 206 1153 196 1156 201 b 1236 217 1183 210 1210 214 b 1417 239 1296 225 1357 235 b 1422 244 1421 239 1422 242 b 1417 250 1422 249 1419 251 b 1233 233 1354 247 1294 240 b 1167 225 1211 231 1189 228 b 1338 579 1226 342 1285 460 b 1417 782 1367 646 1394 713 b 1431 835 1422 799 1426 817 b 1436 893 1433 854 1438 872 b 1426 926 1435 903 1433 915 m 550 104 b 469 -3 522 68 496 33 b 468 -3 469 -3 469 -3 b 533 101 490 32 513 67 b 550 104 539 101 544 103 m 414 1 b 96 -11 308 4 203 1 b 118 -1 103 -7 111 -4 b 160 14 132 4 146 10 b 336 60 217 32 276 46 b 483 92 385 71 435 82 b 424 0 464 61 444 31 b 414 1 421 0 418 0 m 239 -361 b 239 -356 239 -360 239 -358 b 239 -361 240 -357 240 -360 m 810 -551 b 811 -551 810 -551 810 -551 b 810 -551 810 -551 810 -551 m 900 -367 b 876 -440 894 -392 886 -415 b 818 -556 861 -479 840 -518 b 814 -553 817 -554 817 -554 b 814 -553 814 -553 814 -553 b 817 -532 814 -547 815 -540 b 829 -483 818 -517 824 -500 b 867 -385 840 -450 853 -418 b 907 -297 881 -356 893 -326 b 900 -367 907 -321 904 -343 m 918 -172 b 910 -190 915 -178 913 -185 b 871 -137 899 -171 886 -154 b 731 -53 832 -97 782 -72 b 574 -14 679 -35 626 -22 b 494 -4 547 -10 521 -7 b 583 111 524 33 553 72 b 694 131 619 118 657 124 b 1054 190 814 153 935 172 b 1108 199 1072 193 1090 196 b 918 -172 1046 75 981 -47 m 1397 842 b 1383 792 1393 825 1389 808 b 1304 594 1363 725 1333 660 b 1119 219 1247 468 1183 343 b 1051 211 1097 217 1075 214 b 689 161 931 196 810 179 b 613 149 664 157 638 153 b 742 313 654 203 699 258 b 1022 636 832 422 925 532 b 1175 785 1071 688 1122 738 b 1257 853 1201 808 1229 832 b 1346 906 1285 874 1315 892 b 1389 915 1361 913 1378 918 b 1399 910 1394 915 1396 914 b 1403 892 1401 906 1403 899 b 1397 842 1403 876 1401 858 "},"Ã":{"ha":1408,"x_min":0,"x_max":0,"o":"m 1426 926 b 1436 893 1433 915 1435 903 b 1431 835 1438 872 1433 854 b 1417 782 1426 817 1422 799 b 1338 579 1394 713 1367 646 b 1167 225 1285 460 1226 342 b 1233 233 1189 228 1211 231 b 1417 250 1294 240 1354 247 b 1422 244 1419 251 1422 249 b 1417 239 1422 242 1421 239 b 1236 217 1357 235 1296 225 b 1157 206 1210 214 1183 210 b 1150 192 1156 201 1153 196 b 957 -192 1086 64 1021 -64 b 931 -249 949 -211 939 -229 b 935 -290 933 -262 935 -276 b 925 -372 936 -318 932 -346 b 900 -449 919 -399 911 -425 b 828 -582 881 -496 856 -540 b 800 -599 824 -593 813 -600 b 774 -579 790 -597 778 -589 b 767 -557 768 -571 768 -564 b 769 -524 767 -544 768 -533 b 785 -468 774 -504 779 -486 b 825 -367 796 -433 811 -400 b 892 -225 846 -319 869 -272 b 890 -219 892 -224 892 -221 b 849 -160 881 -197 867 -178 b 719 -86 814 -126 767 -103 b 568 -51 671 -69 619 -58 b 467 -43 535 -47 500 -44 b 267 -317 399 -133 332 -225 b 253 -339 261 -324 257 -332 b 243 -354 250 -344 247 -349 b 240 -361 243 -357 242 -360 b 239 -364 240 -362 239 -364 b 219 -383 238 -374 231 -382 b 192 -364 207 -386 194 -378 b 193 -351 192 -361 192 -356 l 194 -347 b 197 -342 196 -344 196 -343 b 203 -332 199 -337 200 -335 b 213 -314 206 -325 210 -319 b 233 -282 219 -303 226 -292 l 276 -218 l 363 -90 b 397 -40 374 -74 385 -57 b 113 -57 301 -39 207 -46 b 113 -57 113 -57 113 -57 b 113 -57 113 -57 113 -57 b 85 -61 103 -60 94 -61 b 51 -56 75 -61 65 -61 b 31 -36 46 -54 36 -47 b 32 -7 26 -24 29 -12 b 38 1 33 -4 35 -1 b 44 10 39 6 42 8 b 57 19 49 14 53 17 b 103 42 72 29 88 35 b 147 56 118 46 132 51 b 328 99 207 72 267 86 b 510 132 388 110 449 121 b 532 164 517 143 525 154 b 686 428 586 250 639 338 b 749 565 710 472 732 518 b 768 636 757 589 764 613 b 753 696 771 660 768 685 b 750 711 747 699 746 706 b 765 714 753 717 760 718 b 790 675 779 706 788 690 b 790 633 793 661 793 647 b 772 557 788 607 781 582 b 711 414 756 507 735 461 b 561 146 665 322 614 233 b 557 139 560 144 558 142 b 579 143 564 140 571 142 b 722 328 626 206 674 267 b 1001 656 813 439 904 550 b 1154 808 1050 708 1101 760 b 1239 878 1182 832 1208 856 b 1333 935 1268 900 1299 919 b 1393 949 1350 942 1368 951 b 1426 926 1406 947 1421 938 m 550 104 b 533 101 544 103 539 101 b 468 -3 513 67 490 32 b 469 -3 469 -3 469 -3 b 550 104 496 33 522 68 m 414 1 b 424 0 418 0 421 0 b 483 92 444 31 464 61 b 336 60 435 82 385 71 b 160 14 276 46 217 32 b 118 -1 146 10 132 4 b 96 -11 111 -4 103 -7 b 414 1 203 1 308 4 m 239 -361 b 239 -356 240 -360 240 -357 b 239 -361 239 -358 239 -360 m 810 -551 b 811 -551 810 -551 810 -551 b 810 -551 810 -551 810 -551 m 900 -367 b 907 -297 904 -343 907 -321 b 867 -385 893 -326 881 -356 b 829 -483 853 -418 840 -450 b 817 -532 824 -500 818 -517 b 814 -553 815 -540 814 -547 b 814 -553 814 -553 814 -553 b 818 -556 817 -554 817 -554 b 876 -440 840 -518 861 -479 b 900 -367 886 -415 894 -392 m 918 -172 b 1108 199 981 -47 1046 75 b 1054 190 1090 196 1072 193 b 694 131 935 172 814 153 b 583 111 657 124 619 118 b 494 -4 553 72 524 33 b 574 -14 521 -7 547 -10 b 731 -53 626 -22 679 -35 b 871 -137 782 -72 832 -97 b 910 -190 886 -154 899 -171 b 918 -172 913 -185 915 -178 m 1397 842 b 1403 892 1401 858 1403 876 b 1399 910 1403 899 1401 906 b 1389 915 1396 914 1394 915 b 1346 906 1378 918 1361 913 b 1257 853 1315 892 1285 874 b 1175 785 1229 832 1201 808 b 1022 636 1122 738 1071 688 b 742 313 925 532 832 422 b 613 149 699 258 654 203 b 689 161 638 153 664 157 b 1051 211 810 179 931 196 b 1119 219 1075 214 1097 217 b 1304 594 1183 343 1247 468 b 1383 792 1333 660 1363 725 b 1397 842 1389 808 1393 825 "},"Ä":{"ha":1408,"x_min":0,"x_max":0,"o":"m 1426 926 b 1393 949 1421 938 1406 947 b 1333 935 1368 951 1350 942 b 1239 878 1299 919 1268 900 b 1154 808 1208 856 1182 832 b 1001 656 1101 760 1050 708 b 722 328 904 550 813 439 b 579 143 674 267 626 206 b 557 139 571 142 564 140 b 561 146 558 142 560 144 b 711 414 614 233 665 322 b 772 557 735 461 756 507 b 790 633 781 582 788 607 b 790 675 793 647 793 661 b 765 714 788 690 779 706 b 750 711 760 718 753 717 b 753 696 746 706 747 699 b 768 636 768 685 771 660 b 749 565 764 613 757 589 b 686 428 732 518 710 472 b 532 164 639 338 586 250 b 510 132 525 154 517 143 b 328 99 449 121 388 110 b 147 56 267 86 207 72 b 103 42 132 51 118 46 b 57 19 88 35 72 29 b 44 10 53 17 49 14 b 38 1 42 8 39 6 b 32 -7 35 -1 33 -4 b 31 -36 29 -12 26 -24 b 51 -56 36 -47 46 -54 b 85 -61 65 -61 75 -61 b 113 -57 94 -61 103 -60 b 113 -57 113 -57 113 -57 b 113 -57 113 -57 113 -57 b 397 -40 207 -46 301 -39 b 363 -90 385 -57 374 -74 l 276 -218 l 233 -282 b 213 -314 226 -292 219 -303 b 203 -332 210 -319 206 -325 b 197 -342 200 -335 199 -337 b 194 -347 196 -343 196 -344 l 193 -351 b 192 -364 192 -356 192 -361 b 219 -383 194 -378 207 -386 b 239 -364 231 -382 238 -374 b 240 -361 239 -364 240 -362 b 243 -354 242 -360 243 -357 b 253 -339 247 -349 250 -344 b 267 -317 257 -332 261 -324 b 467 -43 332 -225 399 -133 b 568 -51 500 -44 535 -47 b 719 -86 619 -58 671 -69 b 849 -160 767 -103 814 -126 b 890 -219 867 -178 881 -197 b 892 -225 892 -221 892 -224 b 825 -367 869 -272 846 -319 b 785 -468 811 -400 796 -433 b 769 -524 779 -486 774 -504 b 767 -557 768 -533 767 -544 b 774 -579 768 -564 768 -571 b 800 -599 778 -589 790 -597 b 828 -582 813 -600 824 -593 b 900 -449 856 -540 881 -496 b 925 -372 911 -425 919 -399 b 935 -290 932 -346 936 -318 b 931 -249 935 -276 933 -262 b 957 -192 939 -229 949 -211 b 1150 192 1021 -64 1086 64 b 1157 206 1153 196 1156 201 b 1236 217 1183 210 1210 214 b 1417 239 1296 225 1357 235 b 1422 244 1421 239 1422 242 b 1417 250 1422 249 1419 251 b 1233 233 1354 247 1294 240 b 1167 225 1211 231 1189 228 b 1338 579 1226 342 1285 460 b 1417 782 1367 646 1394 713 b 1431 835 1422 799 1426 817 b 1436 893 1433 854 1438 872 b 1426 926 1435 903 1433 915 m 550 104 b 469 -3 522 68 496 33 b 468 -3 469 -3 469 -3 b 533 101 490 32 513 67 b 550 104 539 101 544 103 m 414 1 b 96 -11 308 4 203 1 b 118 -1 103 -7 111 -4 b 160 14 132 4 146 10 b 336 60 217 32 276 46 b 483 92 385 71 435 82 b 424 0 464 61 444 31 b 414 1 421 0 418 0 m 239 -361 b 239 -356 239 -360 239 -358 b 239 -361 240 -357 240 -360 m 810 -551 b 811 -551 810 -551 810 -551 b 810 -551 810 -551 810 -551 m 900 -367 b 876 -440 894 -392 886 -415 b 818 -556 861 -479 840 -518 b 814 -553 817 -554 817 -554 b 814 -553 814 -553 814 -553 b 817 -532 814 -547 815 -540 b 829 -483 818 -517 824 -500 b 867 -385 840 -450 853 -418 b 907 -297 881 -356 893 -326 b 900 -367 907 -321 904 -343 m 918 -172 b 910 -190 915 -178 913 -185 b 871 -137 899 -171 886 -154 b 731 -53 832 -97 782 -72 b 574 -14 679 -35 626 -22 b 494 -4 547 -10 521 -7 b 583 111 524 33 553 72 b 694 131 619 118 657 124 b 1054 190 814 153 935 172 b 1108 199 1072 193 1090 196 b 918 -172 1046 75 981 -47 m 1397 842 b 1383 792 1393 825 1389 808 b 1304 594 1363 725 1333 660 b 1119 219 1247 468 1183 343 b 1051 211 1097 217 1075 214 b 689 161 931 196 810 179 b 613 149 664 157 638 153 b 742 313 654 203 699 258 b 1022 636 832 422 925 532 b 1175 785 1071 688 1122 738 b 1257 853 1201 808 1229 832 b 1346 906 1285 874 1315 892 b 1389 915 1361 913 1378 918 b 1399 910 1394 915 1396 914 b 1403 892 1401 906 1403 899 b 1397 842 1403 876 1401 858 "},"Å":{"ha":1408,"x_min":0,"x_max":0,"o":"m 1426 926 b 1436 893 1433 915 1435 903 b 1431 835 1438 872 1433 854 b 1417 782 1426 817 1422 799 b 1338 579 1394 713 1367 646 b 1167 225 1285 460 1226 342 b 1233 233 1189 228 1211 231 b 1417 250 1294 240 1354 247 b 1422 244 1419 251 1422 249 b 1417 239 1422 242 1421 239 b 1236 217 1357 235 1296 225 b 1157 206 1210 214 1183 210 b 1150 192 1156 201 1153 196 b 957 -192 1086 64 1021 -64 b 931 -249 949 -211 939 -229 b 935 -290 933 -262 935 -276 b 925 -372 936 -318 932 -346 b 900 -449 919 -399 911 -425 b 828 -582 881 -496 856 -540 b 800 -599 824 -593 813 -600 b 774 -579 790 -597 778 -589 b 767 -557 768 -571 768 -564 b 769 -524 767 -544 768 -533 b 785 -468 774 -504 779 -486 b 825 -367 796 -433 811 -400 b 892 -225 846 -319 869 -272 b 890 -219 892 -224 892 -221 b 849 -160 881 -197 867 -178 b 719 -86 814 -126 767 -103 b 568 -51 671 -69 619 -58 b 467 -43 535 -47 500 -44 b 267 -317 399 -133 332 -225 b 253 -339 261 -324 257 -332 b 243 -354 250 -344 247 -349 b 240 -361 243 -357 242 -360 b 239 -364 240 -362 239 -364 b 219 -383 238 -374 231 -382 b 192 -364 207 -386 194 -378 b 193 -351 192 -361 192 -356 l 194 -347 b 197 -342 196 -344 196 -343 b 203 -332 199 -337 200 -335 b 213 -314 206 -325 210 -319 b 233 -282 219 -303 226 -292 l 276 -218 l 363 -90 b 397 -40 374 -74 385 -57 b 113 -57 301 -39 207 -46 b 113 -57 113 -57 113 -57 b 113 -57 113 -57 113 -57 b 85 -61 103 -60 94 -61 b 51 -56 75 -61 65 -61 b 31 -36 46 -54 36 -47 b 32 -7 26 -24 29 -12 b 38 1 33 -4 35 -1 b 44 10 39 6 42 8 b 57 19 49 14 53 17 b 103 42 72 29 88 35 b 147 56 118 46 132 51 b 328 99 207 72 267 86 b 510 132 388 110 449 121 b 532 164 517 143 525 154 b 686 428 586 250 639 338 b 749 565 710 472 732 518 b 768 636 757 589 764 613 b 753 696 771 660 768 685 b 750 711 747 699 746 706 b 765 714 753 717 760 718 b 790 675 779 706 788 690 b 790 633 793 661 793 647 b 772 557 788 607 781 582 b 711 414 756 507 735 461 b 561 146 665 322 614 233 b 557 139 560 144 558 142 b 579 143 564 140 571 142 b 722 328 626 206 674 267 b 1001 656 813 439 904 550 b 1154 808 1050 708 1101 760 b 1239 878 1182 832 1208 856 b 1333 935 1268 900 1299 919 b 1393 949 1350 942 1368 951 b 1426 926 1406 947 1421 938 m 550 104 b 533 101 544 103 539 101 b 468 -3 513 67 490 32 b 469 -3 469 -3 469 -3 b 550 104 496 33 522 68 m 414 1 b 424 0 418 0 421 0 b 483 92 444 31 464 61 b 336 60 435 82 385 71 b 160 14 276 46 217 32 b 118 -1 146 10 132 4 b 96 -11 111 -4 103 -7 b 414 1 203 1 308 4 m 239 -361 b 239 -356 240 -360 240 -357 b 239 -361 239 -358 239 -360 m 810 -551 b 811 -551 810 -551 810 -551 b 810 -551 810 -551 810 -551 m 900 -367 b 907 -297 904 -343 907 -321 b 867 -385 893 -326 881 -356 b 829 -483 853 -418 840 -450 b 817 -532 824 -500 818 -517 b 814 -553 815 -540 814 -547 b 814 -553 814 -553 814 -553 b 818 -556 817 -554 817 -554 b 876 -440 840 -518 861 -479 b 900 -367 886 -415 894 -392 m 918 -172 b 1108 199 981 -47 1046 75 b 1054 190 1090 196 1072 193 b 694 131 935 172 814 153 b 583 111 657 124 619 118 b 494 -4 553 72 524 33 b 574 -14 521 -7 547 -10 b 731 -53 626 -22 679 -35 b 871 -137 782 -72 832 -97 b 910 -190 886 -154 899 -171 b 918 -172 913 -185 915 -178 m 1397 842 b 1403 892 1401 858 1403 876 b 1399 910 1403 899 1401 906 b 1389 915 1396 914 1394 915 b 1346 906 1378 918 1361 913 b 1257 853 1315 892 1285 874 b 1175 785 1229 832 1201 808 b 1022 636 1122 738 1071 688 b 742 313 925 532 832 422 b 613 149 699 258 654 203 b 689 161 638 153 664 157 b 1051 211 810 179 931 196 b 1119 219 1075 214 1097 217 b 1304 594 1183 343 1247 468 b 1383 792 1333 660 1363 725 b 1397 842 1389 808 1393 825 "},"B":{"ha":1629,"x_min":0,"x_max":0,"o":"m 1649 249 b 1651 246 1650 249 1651 247 b 1649 242 1651 243 1650 242 b 1322 218 1539 239 1431 231 b 1339 171 1329 203 1336 188 b 1342 103 1344 149 1344 125 b 1328 39 1339 81 1335 58 b 1303 -22 1322 18 1313 -3 b 1232 -129 1283 -61 1258 -96 b 1050 -303 1178 -194 1117 -250 b 611 -537 918 -404 769 -486 b 365 -587 532 -564 449 -582 b 115 -557 281 -593 196 -585 b 58 -518 94 -549 74 -536 b 32 -456 43 -501 35 -478 b 65 -329 28 -410 44 -367 b 142 -229 86 -293 113 -260 b 235 -146 171 -199 203 -171 b 674 85 367 -43 518 29 b 1156 206 831 140 992 179 b 1265 221 1192 211 1229 217 b 1185 269 1244 243 1215 258 b 950 286 1111 293 1028 294 b 950 286 950 286 950 286 b 950 286 950 286 950 286 l 949 286 b 946 286 947 286 947 286 b 944 286 946 286 944 286 b 922 307 933 288 924 296 b 943 333 921 319 931 332 b 944 333 943 333 943 333 b 944 333 944 333 944 333 b 1072 375 988 338 1031 354 b 1188 451 1113 396 1151 422 b 1379 657 1261 510 1326 579 b 1446 778 1406 694 1429 736 b 1461 842 1453 800 1460 821 b 1449 897 1463 864 1460 883 b 1397 921 1438 910 1419 918 b 1332 918 1376 922 1354 921 b 1200 875 1286 911 1242 896 b 968 714 1117 833 1040 776 b 767 511 897 651 831 583 b 432 81 646 376 535 231 b 432 79 432 81 432 79 b 431 75 432 78 431 76 b 411 53 431 64 422 54 b 383 72 397 50 385 58 b 383 79 383 75 383 76 l 383 82 l 383 83 b 385 89 385 86 385 89 b 388 97 386 93 388 94 b 394 110 390 103 392 107 b 407 135 399 118 403 126 l 433 179 l 486 268 b 590 447 521 328 556 388 b 685 629 624 507 656 567 b 722 724 699 660 713 692 b 733 771 728 739 732 756 b 726 810 736 788 733 803 l 725 810 b 724 825 721 814 719 819 b 739 828 728 829 735 831 b 756 799 749 819 754 808 b 757 769 758 789 758 779 b 747 717 756 751 751 733 b 711 618 738 682 725 650 b 621 431 683 553 653 492 b 522 247 589 368 556 308 l 513 232 b 746 529 586 335 664 435 b 949 736 810 601 876 672 b 1185 906 1019 801 1097 861 b 1325 954 1229 928 1276 946 b 1403 958 1350 958 1376 961 b 1442 947 1415 956 1429 953 b 1478 921 1456 942 1468 933 b 1500 839 1499 897 1503 865 b 1483 764 1499 813 1492 788 b 1414 633 1465 717 1440 674 b 1217 417 1358 551 1292 479 b 1093 335 1178 386 1138 357 b 1093 333 1093 333 1093 333 b 1199 313 1129 331 1164 324 b 1311 236 1240 297 1283 275 b 1317 226 1313 233 1315 229 b 1649 249 1426 239 1538 246 m 1275 210 b 1274 211 1275 210 1274 211 b 1157 194 1235 207 1196 200 b 681 69 994 167 835 126 b 249 -162 526 13 376 -61 b 158 -246 217 -189 186 -215 b 86 -342 131 -275 106 -307 b 58 -453 68 -376 54 -415 b 79 -501 60 -471 67 -487 b 125 -531 90 -514 107 -525 b 363 -557 200 -557 282 -564 b 600 -507 443 -551 524 -533 b 1026 -272 754 -454 899 -374 b 1201 -103 1090 -222 1150 -165 b 1267 -4 1226 -72 1249 -39 b 1288 50 1275 14 1282 32 b 1299 107 1293 69 1297 88 b 1275 210 1303 144 1296 182 "},"C":{"ha":1303,"x_min":0,"x_max":0,"o":"m 1315 249 b 1326 250 1318 253 1324 253 b 1328 238 1331 247 1331 242 b 988 -122 1219 113 1107 -7 b 608 -440 868 -236 744 -346 b 390 -562 539 -486 468 -529 b 269 -599 351 -578 313 -592 b 142 -593 228 -606 183 -606 b 82 -562 119 -587 99 -578 b 43 -506 64 -547 51 -526 b 33 -376 28 -462 28 -418 b 106 -136 44 -292 74 -212 b 357 292 174 15 261 157 b 678 671 454 426 560 554 b 867 835 738 729 800 785 b 1089 957 935 883 1006 929 b 1153 972 1108 964 1129 969 b 1189 972 1164 974 1176 974 b 1231 950 1203 971 1219 965 b 1243 907 1242 936 1243 919 b 1238 871 1243 893 1240 882 b 1211 810 1231 849 1221 829 b 1143 703 1190 772 1168 736 b 1067 603 1119 668 1094 636 b 1033 600 1058 593 1043 592 b 1031 633 1024 608 1022 624 l 1031 635 b 1171 831 1082 696 1132 761 b 1193 883 1179 849 1188 867 b 1199 908 1196 892 1197 901 b 1196 922 1199 915 1197 921 b 1182 928 1193 925 1190 926 b 1157 928 1175 929 1167 929 b 1101 915 1139 926 1121 921 b 892 800 1028 890 957 849 b 707 642 826 753 765 699 b 386 271 589 529 483 403 b 135 -150 290 139 203 -1 b 63 -381 103 -224 74 -301 b 71 -494 58 -419 58 -460 b 149 -567 83 -531 113 -557 b 265 -571 186 -578 226 -578 b 381 -537 304 -565 343 -553 b 594 -419 456 -507 526 -465 b 974 -107 729 -328 854 -219 b 1315 249 1093 7 1207 125 "},"Ç":{"ha":1303,"x_min":0,"x_max":0,"o":"m 1315 249 b 974 -107 1207 125 1093 7 b 594 -419 854 -219 729 -328 b 381 -537 526 -465 456 -507 b 265 -571 343 -553 304 -565 b 149 -567 226 -578 186 -578 b 71 -494 113 -557 83 -531 b 63 -381 58 -460 58 -419 b 135 -150 74 -301 103 -224 b 386 271 203 -1 290 139 b 707 642 483 403 589 529 b 892 800 765 699 826 753 b 1101 915 957 849 1028 890 b 1157 928 1121 921 1139 926 b 1182 928 1167 929 1175 929 b 1196 922 1190 926 1193 925 b 1199 908 1197 921 1199 915 b 1193 883 1197 901 1196 892 b 1171 831 1188 867 1179 849 b 1031 635 1132 761 1082 696 l 1031 633 b 1033 600 1022 624 1024 608 b 1067 603 1043 592 1058 593 b 1143 703 1094 636 1119 668 b 1211 810 1168 736 1190 772 b 1238 871 1221 829 1231 849 b 1243 907 1240 882 1243 893 b 1231 950 1243 919 1242 936 b 1189 972 1219 965 1203 971 b 1153 972 1176 974 1164 974 b 1089 957 1129 969 1108 964 b 867 835 1006 929 935 883 b 678 671 800 785 738 729 b 357 292 560 554 454 426 b 106 -136 261 157 174 15 b 33 -376 74 -212 44 -292 b 43 -506 28 -418 28 -462 b 82 -562 51 -526 64 -547 b 142 -593 99 -578 119 -587 b 269 -599 183 -606 228 -606 b 390 -562 313 -592 351 -578 b 608 -440 468 -529 539 -486 b 988 -122 744 -346 868 -236 b 1328 238 1107 -7 1219 113 b 1326 250 1331 242 1331 247 b 1315 249 1324 253 1318 253 "},"D":{"ha":1493,"x_min":0,"x_max":0,"o":"m 1515 247 b 1517 244 1517 247 1517 246 b 1515 243 1517 244 1517 243 b 1207 226 1413 244 1310 239 b 1133 101 1185 183 1160 143 b 919 -176 1071 3 1000 -90 b 654 -407 840 -262 751 -340 b 501 -493 606 -439 554 -468 b 335 -551 449 -519 392 -537 b 158 -571 278 -564 218 -575 b 72 -542 129 -568 97 -562 b 31 -458 47 -519 35 -490 b 44 -369 28 -428 35 -397 b 88 -292 56 -342 71 -315 b 206 -161 121 -242 161 -200 b 499 31 294 -83 394 -22 b 824 157 603 83 713 125 b 1175 229 939 190 1057 215 b 1265 425 1210 293 1240 358 b 1318 590 1286 479 1304 535 b 1339 758 1331 646 1339 703 b 1294 911 1339 814 1328 872 b 1229 947 1276 929 1254 942 b 1149 949 1203 953 1176 953 b 990 892 1094 939 1042 918 b 847 800 940 867 893 835 b 597 563 756 729 674 649 b 379 292 519 476 447 386 b 189 3 313 199 247 101 l 188 3 b 156 -6 182 -8 167 -12 b 151 -3 154 -6 153 -4 b 140 14 146 1 140 7 b 139 22 139 17 139 19 b 140 26 140 25 140 25 l 142 29 l 142 32 b 144 40 143 35 144 38 b 151 54 147 44 149 50 b 164 79 156 63 160 71 l 192 128 l 247 225 b 356 418 283 289 319 353 b 454 614 390 482 425 547 b 494 717 469 647 483 682 b 507 768 500 733 506 750 b 500 810 510 785 508 803 b 499 825 496 814 494 821 b 514 826 501 829 508 831 b 531 796 525 818 529 806 b 531 765 532 785 532 775 b 519 708 529 746 524 726 b 481 603 508 672 496 638 b 386 401 453 535 419 468 b 343 319 372 374 358 346 b 565 590 413 413 486 504 b 824 831 644 678 729 760 b 974 926 871 867 919 899 b 1143 985 1026 953 1083 975 b 1238 983 1174 989 1206 990 b 1321 935 1268 976 1299 958 b 1363 850 1342 910 1356 879 b 1374 758 1371 819 1374 789 b 1350 582 1374 699 1364 639 b 1294 414 1335 525 1317 468 b 1211 233 1271 353 1242 292 b 1515 247 1311 244 1414 249 m 1110 117 b 1171 222 1131 151 1151 186 b 826 149 1054 207 939 182 b 504 19 715 115 607 72 b 215 -172 400 -33 301 -96 b 100 -300 172 -211 132 -253 b 61 -375 85 -324 71 -349 b 49 -457 51 -401 46 -431 b 60 -496 50 -471 54 -483 b 83 -528 65 -508 74 -519 b 160 -551 104 -543 132 -549 b 329 -532 217 -554 274 -544 b 642 -387 442 -506 546 -453 b 900 -158 736 -322 822 -244 b 1110 117 979 -74 1049 19 "},"E":{"ha":808,"x_min":0,"x_max":0,"o":"m 1264 907 b 1206 913 1244 908 1225 911 b 1088 914 1167 914 1126 915 b 850 897 1008 914 929 908 b 736 878 813 892 774 886 b 735 872 735 876 735 875 b 701 803 725 849 714 826 b 631 669 679 758 654 714 b 479 406 581 581 529 493 b 371 215 443 342 406 279 b 453 235 397 222 425 229 b 575 258 493 244 533 251 b 636 267 596 261 615 264 b 668 269 647 268 657 269 b 685 271 674 271 679 271 b 694 271 688 271 692 271 b 703 269 697 271 699 271 b 706 268 703 269 704 268 l 708 267 b 711 264 708 267 711 265 b 715 261 713 263 714 263 b 721 249 718 258 721 253 b 719 238 721 243 721 240 b 715 229 718 235 717 232 b 682 226 707 219 692 218 b 681 226 682 226 682 226 b 668 228 676 228 672 228 b 639 231 658 229 649 231 b 578 231 618 231 597 231 b 456 218 538 229 496 225 b 361 197 424 213 392 207 b 189 -126 300 90 242 -17 b 126 -264 167 -171 146 -217 b 78 -404 108 -310 90 -357 b 67 -475 72 -428 68 -451 b 82 -532 67 -497 71 -521 b 136 -546 92 -544 113 -549 b 204 -529 158 -543 181 -537 b 338 -465 250 -512 294 -490 b 467 -387 382 -442 424 -415 b 713 -214 550 -333 632 -274 b 747 -218 724 -206 739 -208 b 742 -253 754 -229 753 -244 b 490 -425 660 -312 576 -371 b 358 -503 447 -453 404 -479 b 218 -568 314 -528 267 -550 b 139 -586 193 -576 167 -583 b 94 -583 125 -587 110 -587 b 53 -558 79 -581 64 -572 b 32 -517 40 -546 35 -531 b 28 -474 28 -501 28 -487 b 42 -394 29 -446 35 -419 b 93 -249 54 -344 74 -296 b 157 -111 113 -203 135 -156 b 317 183 207 -11 261 88 b 282 167 304 179 293 174 b 239 126 265 157 249 143 b 204 115 232 113 217 108 b 193 151 190 122 186 138 b 208 164 196 157 201 161 l 210 164 l 274 183 b 326 201 292 190 310 196 b 454 419 369 275 411 347 b 608 682 506 507 558 594 b 681 814 633 725 658 769 b 708 871 690 833 700 851 b 619 846 678 864 649 856 b 415 739 546 822 472 788 b 382 740 406 729 390 731 b 383 775 372 751 374 767 b 386 776 385 775 386 776 b 611 875 457 822 533 853 b 721 903 647 886 685 894 b 725 915 722 907 724 911 b 729 932 728 922 728 928 b 729 940 729 938 728 942 b 726 956 724 944 722 951 b 742 958 731 961 738 961 b 750 943 747 954 750 947 b 751 931 751 939 751 935 b 747 910 750 924 749 917 b 747 908 747 910 747 908 b 846 926 779 915 813 921 b 965 940 886 932 926 938 b 1086 949 1006 944 1046 947 b 1207 951 1126 951 1167 951 b 1268 950 1226 951 1247 951 b 1299 947 1278 950 1288 949 b 1315 944 1304 947 1310 946 b 1326 942 1318 944 1322 943 b 1329 940 1326 942 1328 940 b 1335 938 1331 939 1332 939 b 1339 933 1336 936 1338 935 b 1344 925 1339 933 1343 929 b 1346 913 1346 921 1346 917 b 1340 900 1344 907 1342 903 b 1306 897 1331 890 1317 889 b 1303 900 1306 897 1304 899 b 1292 903 1300 901 1296 901 b 1264 907 1283 904 1274 906 m 1308 899 b 1308 899 1308 899 1308 897 b 1307 899 1308 899 1308 899 b 1308 899 1308 899 1308 899 m 1300 925 b 1300 926 1300 925 1300 926 b 1300 925 1300 926 1300 925 m 688 225 b 685 225 686 225 686 225 l 686 225 b 688 225 686 225 688 225 b 688 225 689 225 688 225 m 676 256 b 679 260 676 257 678 258 b 676 256 678 258 676 257 "},"È":{"ha":808,"x_min":0,"x_max":0,"o":"m 1264 907 b 1292 903 1274 906 1283 904 b 1303 900 1296 901 1300 901 b 1306 897 1304 899 1306 897 b 1340 900 1317 889 1331 890 b 1346 913 1342 903 1344 907 b 1344 925 1346 917 1346 921 b 1339 933 1343 929 1339 933 b 1335 938 1338 935 1336 936 b 1329 940 1332 939 1331 939 b 1326 942 1328 940 1326 942 b 1315 944 1322 943 1318 944 b 1299 947 1310 946 1304 947 b 1268 950 1288 949 1278 950 b 1207 951 1247 951 1226 951 b 1086 949 1167 951 1126 951 b 965 940 1046 947 1006 944 b 846 926 926 938 886 932 b 747 908 813 921 779 915 b 747 910 747 908 747 910 b 751 931 749 917 750 924 b 750 943 751 935 751 939 b 742 958 750 947 747 954 b 726 956 738 961 731 961 b 729 940 722 951 724 944 b 729 932 728 942 729 938 b 725 915 728 928 728 922 b 721 903 724 911 722 907 b 611 875 685 894 647 886 b 386 776 533 853 457 822 b 383 775 386 776 385 775 b 382 740 374 767 372 751 b 415 739 390 731 406 729 b 619 846 472 788 546 822 b 708 871 649 856 678 864 b 681 814 700 851 690 833 b 608 682 658 769 633 725 b 454 419 558 594 506 507 b 326 201 411 347 369 275 b 274 183 310 196 292 190 l 210 164 l 208 164 b 193 151 201 161 196 157 b 204 115 186 138 190 122 b 239 126 217 108 232 113 b 282 167 249 143 265 157 b 317 183 293 174 304 179 b 157 -111 261 88 207 -11 b 93 -249 135 -156 113 -203 b 42 -394 74 -296 54 -344 b 28 -474 35 -419 29 -446 b 32 -517 28 -487 28 -501 b 53 -558 35 -531 40 -546 b 94 -583 64 -572 79 -581 b 139 -586 110 -587 125 -587 b 218 -568 167 -583 193 -576 b 358 -503 267 -550 314 -528 b 490 -425 404 -479 447 -453 b 742 -253 576 -371 660 -312 b 747 -218 753 -244 754 -229 b 713 -214 739 -208 724 -206 b 467 -387 632 -274 550 -333 b 338 -465 424 -415 382 -442 b 204 -529 294 -490 250 -512 b 136 -546 181 -537 158 -543 b 82 -532 113 -549 92 -544 b 67 -475 71 -521 67 -497 b 78 -404 68 -451 72 -428 b 126 -264 90 -357 108 -310 b 189 -126 146 -217 167 -171 b 361 197 242 -17 300 90 b 456 218 392 207 424 213 b 578 231 496 225 538 229 b 639 231 597 231 618 231 b 668 228 649 231 658 229 b 681 226 672 228 676 228 b 682 226 682 226 682 226 b 715 229 692 218 707 219 b 719 238 717 232 718 235 b 721 249 721 240 721 243 b 715 261 721 253 718 258 b 711 264 714 263 713 263 b 708 267 711 265 708 267 l 706 268 b 703 269 704 268 703 269 b 694 271 699 271 697 271 b 685 271 692 271 688 271 b 668 269 679 271 674 271 b 636 267 657 269 647 268 b 575 258 615 264 596 261 b 453 235 533 251 493 244 b 371 215 425 229 397 222 b 479 406 406 279 443 342 b 631 669 529 493 581 581 b 701 803 654 714 679 758 b 735 872 714 826 725 849 b 736 878 735 875 735 876 b 850 897 774 886 813 892 b 1088 914 929 908 1008 914 b 1206 913 1126 915 1167 914 b 1264 907 1225 911 1244 908 m 1308 899 b 1307 899 1308 899 1308 899 b 1308 899 1308 899 1308 899 b 1308 899 1308 897 1308 899 m 1300 925 b 1300 926 1300 925 1300 926 b 1300 925 1300 926 1300 925 m 688 225 b 688 225 688 225 689 225 b 686 225 688 225 686 225 l 685 225 b 688 225 686 225 686 225 m 676 256 b 679 260 676 257 678 258 b 676 256 678 258 676 257 "},"É":{"ha":808,"x_min":0,"x_max":0,"o":"m 1264 907 b 1206 913 1244 908 1225 911 b 1088 914 1167 914 1126 915 b 850 897 1008 914 929 908 b 736 878 813 892 774 886 b 735 872 735 876 735 875 b 701 803 725 849 714 826 b 631 669 679 758 654 714 b 479 406 581 581 529 493 b 371 215 443 342 406 279 b 453 235 397 222 425 229 b 575 258 493 244 533 251 b 636 267 596 261 615 264 b 668 269 647 268 657 269 b 685 271 674 271 679 271 b 694 271 688 271 692 271 b 703 269 697 271 699 271 b 706 268 703 269 704 268 l 708 267 b 711 264 708 267 711 265 b 715 261 713 263 714 263 b 721 249 718 258 721 253 b 719 238 721 243 721 240 b 715 229 718 235 717 232 b 682 226 707 219 692 218 b 681 226 682 226 682 226 b 668 228 676 228 672 228 b 639 231 658 229 649 231 b 578 231 618 231 597 231 b 456 218 538 229 496 225 b 361 197 424 213 392 207 b 189 -126 300 90 242 -17 b 126 -264 167 -171 146 -217 b 78 -404 108 -310 90 -357 b 67 -475 72 -428 68 -451 b 82 -532 67 -497 71 -521 b 136 -546 92 -544 113 -549 b 204 -529 158 -543 181 -537 b 338 -465 250 -512 294 -490 b 467 -387 382 -442 424 -415 b 713 -214 550 -333 632 -274 b 747 -218 724 -206 739 -208 b 742 -253 754 -229 753 -244 b 490 -425 660 -312 576 -371 b 358 -503 447 -453 404 -479 b 218 -568 314 -528 267 -550 b 139 -586 193 -576 167 -583 b 94 -583 125 -587 110 -587 b 53 -558 79 -581 64 -572 b 32 -517 40 -546 35 -531 b 28 -474 28 -501 28 -487 b 42 -394 29 -446 35 -419 b 93 -249 54 -344 74 -296 b 157 -111 113 -203 135 -156 b 317 183 207 -11 261 88 b 282 167 304 179 293 174 b 239 126 265 157 249 143 b 204 115 232 113 217 108 b 193 151 190 122 186 138 b 208 164 196 157 201 161 l 210 164 l 274 183 b 326 201 292 190 310 196 b 454 419 369 275 411 347 b 608 682 506 507 558 594 b 681 814 633 725 658 769 b 708 871 690 833 700 851 b 619 846 678 864 649 856 b 415 739 546 822 472 788 b 382 740 406 729 390 731 b 383 775 372 751 374 767 b 386 776 385 775 386 776 b 611 875 457 822 533 853 b 721 903 647 886 685 894 b 725 915 722 907 724 911 b 729 932 728 922 728 928 b 729 940 729 938 728 942 b 726 956 724 944 722 951 b 742 958 731 961 738 961 b 750 943 747 954 750 947 b 751 931 751 939 751 935 b 747 910 750 924 749 917 b 747 908 747 910 747 908 b 846 926 779 915 813 921 b 965 940 886 932 926 938 b 1086 949 1006 944 1046 947 b 1207 951 1126 951 1167 951 b 1268 950 1226 951 1247 951 b 1299 947 1278 950 1288 949 b 1315 944 1304 947 1310 946 b 1326 942 1318 944 1322 943 b 1329 940 1326 942 1328 940 b 1335 938 1331 939 1332 939 b 1339 933 1336 936 1338 935 b 1344 925 1339 933 1343 929 b 1346 913 1346 921 1346 917 b 1340 900 1344 907 1342 903 b 1306 897 1331 890 1317 889 b 1303 900 1306 897 1304 899 b 1292 903 1300 901 1296 901 b 1264 907 1283 904 1274 906 m 1308 899 b 1308 899 1308 899 1308 897 b 1307 899 1308 899 1308 899 b 1308 899 1308 899 1308 899 m 1300 925 b 1300 926 1300 925 1300 926 b 1300 925 1300 926 1300 925 m 688 225 b 685 225 686 225 686 225 l 686 225 b 688 225 686 225 688 225 b 688 225 689 225 688 225 m 676 256 b 679 260 676 257 678 258 b 676 256 678 258 676 257 "},"Ê":{"ha":808,"x_min":0,"x_max":0,"o":"m 1264 907 b 1292 903 1274 906 1283 904 b 1303 900 1296 901 1300 901 b 1306 897 1304 899 1306 897 b 1340 900 1317 889 1331 890 b 1346 913 1342 903 1344 907 b 1344 925 1346 917 1346 921 b 1339 933 1343 929 1339 933 b 1335 938 1338 935 1336 936 b 1329 940 1332 939 1331 939 b 1326 942 1328 940 1326 942 b 1315 944 1322 943 1318 944 b 1299 947 1310 946 1304 947 b 1268 950 1288 949 1278 950 b 1207 951 1247 951 1226 951 b 1086 949 1167 951 1126 951 b 965 940 1046 947 1006 944 b 846 926 926 938 886 932 b 747 908 813 921 779 915 b 747 910 747 908 747 910 b 751 931 749 917 750 924 b 750 943 751 935 751 939 b 742 958 750 947 747 954 b 726 956 738 961 731 961 b 729 940 722 951 724 944 b 729 932 728 942 729 938 b 725 915 728 928 728 922 b 721 903 724 911 722 907 b 611 875 685 894 647 886 b 386 776 533 853 457 822 b 383 775 386 776 385 775 b 382 740 374 767 372 751 b 415 739 390 731 406 729 b 619 846 472 788 546 822 b 708 871 649 856 678 864 b 681 814 700 851 690 833 b 608 682 658 769 633 725 b 454 419 558 594 506 507 b 326 201 411 347 369 275 b 274 183 310 196 292 190 l 210 164 l 208 164 b 193 151 201 161 196 157 b 204 115 186 138 190 122 b 239 126 217 108 232 113 b 282 167 249 143 265 157 b 317 183 293 174 304 179 b 157 -111 261 88 207 -11 b 93 -249 135 -156 113 -203 b 42 -394 74 -296 54 -344 b 28 -474 35 -419 29 -446 b 32 -517 28 -487 28 -501 b 53 -558 35 -531 40 -546 b 94 -583 64 -572 79 -581 b 139 -586 110 -587 125 -587 b 218 -568 167 -583 193 -576 b 358 -503 267 -550 314 -528 b 490 -425 404 -479 447 -453 b 742 -253 576 -371 660 -312 b 747 -218 753 -244 754 -229 b 713 -214 739 -208 724 -206 b 467 -387 632 -274 550 -333 b 338 -465 424 -415 382 -442 b 204 -529 294 -490 250 -512 b 136 -546 181 -537 158 -543 b 82 -532 113 -549 92 -544 b 67 -475 71 -521 67 -497 b 78 -404 68 -451 72 -428 b 126 -264 90 -357 108 -310 b 189 -126 146 -217 167 -171 b 361 197 242 -17 300 90 b 456 218 392 207 424 213 b 578 231 496 225 538 229 b 639 231 597 231 618 231 b 668 228 649 231 658 229 b 681 226 672 228 676 228 b 682 226 682 226 682 226 b 715 229 692 218 707 219 b 719 238 717 232 718 235 b 721 249 721 240 721 243 b 715 261 721 253 718 258 b 711 264 714 263 713 263 b 708 267 711 265 708 267 l 706 268 b 703 269 704 268 703 269 b 694 271 699 271 697 271 b 685 271 692 271 688 271 b 668 269 679 271 674 271 b 636 267 657 269 647 268 b 575 258 615 264 596 261 b 453 235 533 251 493 244 b 371 215 425 229 397 222 b 479 406 406 279 443 342 b 631 669 529 493 581 581 b 701 803 654 714 679 758 b 735 872 714 826 725 849 b 736 878 735 875 735 876 b 850 897 774 886 813 892 b 1088 914 929 908 1008 914 b 1206 913 1126 915 1167 914 b 1264 907 1225 911 1244 908 m 1308 899 b 1307 899 1308 899 1308 899 b 1308 899 1308 899 1308 899 b 1308 899 1308 897 1308 899 m 1300 925 b 1300 926 1300 925 1300 926 b 1300 925 1300 926 1300 925 m 688 225 b 688 225 688 225 689 225 b 686 225 688 225 686 225 l 685 225 b 688 225 686 225 686 225 m 676 256 b 679 260 676 257 678 258 b 676 256 678 258 676 257 "},"Ë":{"ha":808,"x_min":0,"x_max":0,"o":"m 1264 907 b 1206 913 1244 908 1225 911 b 1088 914 1167 914 1126 915 b 850 897 1008 914 929 908 b 736 878 813 892 774 886 b 735 872 735 876 735 875 b 701 803 725 849 714 826 b 631 669 679 758 654 714 b 479 406 581 581 529 493 b 371 215 443 342 406 279 b 453 235 397 222 425 229 b 575 258 493 244 533 251 b 636 267 596 261 615 264 b 668 269 647 268 657 269 b 685 271 674 271 679 271 b 694 271 688 271 692 271 b 703 269 697 271 699 271 b 706 268 703 269 704 268 l 708 267 b 711 264 708 267 711 265 b 715 261 713 263 714 263 b 721 249 718 258 721 253 b 719 238 721 243 721 240 b 715 229 718 235 717 232 b 682 226 707 219 692 218 b 681 226 682 226 682 226 b 668 228 676 228 672 228 b 639 231 658 229 649 231 b 578 231 618 231 597 231 b 456 218 538 229 496 225 b 361 197 424 213 392 207 b 189 -126 300 90 242 -17 b 126 -264 167 -171 146 -217 b 78 -404 108 -310 90 -357 b 67 -475 72 -428 68 -451 b 82 -532 67 -497 71 -521 b 136 -546 92 -544 113 -549 b 204 -529 158 -543 181 -537 b 338 -465 250 -512 294 -490 b 467 -387 382 -442 424 -415 b 713 -214 550 -333 632 -274 b 747 -218 724 -206 739 -208 b 742 -253 754 -229 753 -244 b 490 -425 660 -312 576 -371 b 358 -503 447 -453 404 -479 b 218 -568 314 -528 267 -550 b 139 -586 193 -576 167 -583 b 94 -583 125 -587 110 -587 b 53 -558 79 -581 64 -572 b 32 -517 40 -546 35 -531 b 28 -474 28 -501 28 -487 b 42 -394 29 -446 35 -419 b 93 -249 54 -344 74 -296 b 157 -111 113 -203 135 -156 b 317 183 207 -11 261 88 b 282 167 304 179 293 174 b 239 126 265 157 249 143 b 204 115 232 113 217 108 b 193 151 190 122 186 138 b 208 164 196 157 201 161 l 210 164 l 274 183 b 326 201 292 190 310 196 b 454 419 369 275 411 347 b 608 682 506 507 558 594 b 681 814 633 725 658 769 b 708 871 690 833 700 851 b 619 846 678 864 649 856 b 415 739 546 822 472 788 b 382 740 406 729 390 731 b 383 775 372 751 374 767 b 386 776 385 775 386 776 b 611 875 457 822 533 853 b 721 903 647 886 685 894 b 725 915 722 907 724 911 b 729 932 728 922 728 928 b 729 940 729 938 728 942 b 726 956 724 944 722 951 b 742 958 731 961 738 961 b 750 943 747 954 750 947 b 751 931 751 939 751 935 b 747 910 750 924 749 917 b 747 908 747 910 747 908 b 846 926 779 915 813 921 b 965 940 886 932 926 938 b 1086 949 1006 944 1046 947 b 1207 951 1126 951 1167 951 b 1268 950 1226 951 1247 951 b 1299 947 1278 950 1288 949 b 1315 944 1304 947 1310 946 b 1326 942 1318 944 1322 943 b 1329 940 1326 942 1328 940 b 1335 938 1331 939 1332 939 b 1339 933 1336 936 1338 935 b 1344 925 1339 933 1343 929 b 1346 913 1346 921 1346 917 b 1340 900 1344 907 1342 903 b 1306 897 1331 890 1317 889 b 1303 900 1306 897 1304 899 b 1292 903 1300 901 1296 901 b 1264 907 1283 904 1274 906 m 1308 899 b 1308 899 1308 899 1308 897 b 1307 899 1308 899 1308 899 b 1308 899 1308 899 1308 899 m 1300 925 b 1300 926 1300 925 1300 926 b 1300 925 1300 926 1300 925 m 688 225 b 685 225 686 225 686 225 l 686 225 b 688 225 686 225 688 225 b 688 225 689 225 688 225 m 676 256 b 679 260 676 257 678 258 b 676 256 678 258 676 257 "},"F":{"ha":882,"x_min":0,"x_max":0,"o":"m 724 740 b 639 551 697 676 669 614 b 476 228 588 443 532 335 b 510 235 488 231 499 233 b 632 257 550 243 590 251 b 693 267 653 261 672 264 b 725 269 704 268 714 269 b 742 271 731 269 736 271 b 751 271 744 271 749 271 b 760 269 754 271 756 269 b 763 268 760 269 761 268 l 765 267 b 769 264 765 267 768 265 b 772 261 771 263 772 261 b 778 249 775 258 778 253 b 776 238 778 243 778 240 b 772 229 776 235 774 232 b 739 226 764 219 749 218 b 739 226 739 226 739 226 b 725 228 735 228 729 228 b 696 231 715 229 706 231 b 635 231 675 231 654 231 b 513 218 594 228 553 225 b 467 210 497 215 482 213 b 454 183 463 201 458 193 b 260 -179 390 63 325 -58 l 163 -361 l 115 -451 l 92 -496 l 81 -519 l 76 -531 l 74 -535 l 74 -536 b 54 -557 72 -546 65 -554 b 26 -537 42 -558 29 -550 b 26 -529 26 -535 26 -532 b 28 -525 26 -528 26 -526 b 28 -524 28 -524 28 -524 l 29 -518 b 32 -511 31 -515 32 -514 l 38 -499 l 50 -475 l 74 -429 l 124 -339 l 211 -182 l 228 -144 l 261 -67 b 278 -28 267 -54 274 -42 l 293 11 l 322 90 b 349 172 332 118 340 144 b 339 167 344 171 342 169 b 296 126 322 157 306 143 b 261 115 289 113 274 108 b 250 150 247 122 243 138 b 265 163 253 157 258 161 l 267 164 l 331 183 b 354 192 339 186 346 189 b 403 418 375 267 393 342 b 407 586 408 474 413 531 l 406 607 l 401 628 l 399 649 b 393 668 397 656 394 663 b 386 689 390 675 389 682 l 376 707 b 367 722 374 713 371 718 b 347 728 360 721 353 724 b 343 763 336 738 335 753 b 353 769 346 765 350 768 l 354 769 b 479 819 397 788 438 804 b 604 864 521 835 563 851 b 732 896 647 876 689 886 b 753 899 739 897 746 897 b 754 915 753 906 754 911 b 751 931 754 924 753 931 b 746 946 746 933 743 940 b 760 951 747 951 754 954 b 764 949 761 951 763 950 b 772 940 767 946 771 943 b 775 932 772 938 775 935 b 776 915 776 926 776 921 b 776 904 776 911 776 908 b 863 918 804 910 833 914 b 1125 944 950 932 1038 940 b 1257 950 1169 947 1214 950 b 1325 949 1279 950 1301 950 b 1358 946 1336 949 1347 947 b 1376 944 1364 946 1371 946 b 1388 942 1381 943 1383 943 b 1392 940 1389 942 1390 940 l 1393 939 l 1394 939 l 1397 938 b 1400 933 1399 936 1400 935 b 1403 932 1401 933 1401 933 b 1407 925 1404 931 1406 928 b 1408 911 1408 921 1410 917 b 1401 899 1407 907 1406 901 b 1368 897 1393 889 1378 888 b 1367 899 1368 897 1367 899 b 1353 903 1363 900 1357 901 b 1321 907 1342 904 1332 907 b 1257 914 1300 910 1278 913 b 1126 918 1213 917 1169 918 b 864 904 1039 918 951 914 b 774 890 835 900 804 896 b 774 888 774 890 774 889 b 760 838 771 871 765 854 b 724 740 750 804 738 772 m 1371 897 b 1371 897 1371 897 1372 897 b 1371 897 1371 897 1371 897 m 1363 924 b 1367 931 1364 926 1365 928 b 1363 924 1365 929 1364 926 m 1361 919 b 1361 919 1361 919 1361 919 b 1361 918 1361 919 1361 918 b 1361 919 1361 919 1361 919 m 744 225 b 742 225 744 225 743 225 l 743 225 b 744 225 743 225 744 225 b 744 225 746 225 744 225 m 733 256 b 736 260 733 257 735 258 b 733 256 735 258 733 257 m 74 -535 b 74 -533 74 -535 74 -533 b 74 -529 74 -532 74 -531 b 74 -535 74 -531 74 -533 m 299 -24 b 422 199 340 50 382 124 b 394 190 413 196 403 193 b 367 181 385 188 376 185 b 339 85 358 149 349 117 l 310 6 l 299 -24 m 432 215 b 614 564 493 331 556 447 b 700 750 644 625 674 688 b 738 844 714 781 726 813 b 750 886 742 858 746 872 b 607 853 701 878 654 867 b 485 808 565 840 524 828 b 388 738 449 789 414 767 b 394 714 390 729 393 722 l 401 693 b 407 672 403 686 404 679 b 415 631 411 658 413 644 l 418 608 l 421 588 b 417 417 426 531 422 474 b 372 197 408 343 392 269 b 390 204 378 200 383 201 b 432 215 404 208 418 213 "},"G":{"ha":1319,"x_min":0,"x_max":0,"o":"m 1222 956 b 1246 919 1235 946 1242 932 b 1250 882 1250 907 1250 894 b 1238 817 1249 858 1243 838 b 1188 701 1224 776 1207 738 b 1125 594 1168 665 1149 629 b 1092 588 1118 583 1103 581 b 1085 621 1082 594 1078 610 l 1086 621 b 1146 724 1107 653 1128 688 b 1193 831 1165 758 1182 794 b 1204 885 1199 849 1204 867 b 1203 907 1204 893 1204 900 b 1194 921 1200 914 1197 918 b 1151 928 1186 928 1169 931 b 1097 917 1135 926 1115 922 b 893 801 1025 893 957 849 b 714 642 831 753 771 699 b 406 271 601 526 499 401 b 157 -143 313 139 226 1 b 72 -367 122 -215 90 -290 b 61 -482 63 -406 57 -444 b 78 -532 63 -500 68 -518 b 119 -560 88 -546 101 -556 b 175 -562 136 -564 156 -564 b 232 -553 194 -561 214 -558 b 343 -510 271 -543 307 -528 b 542 -378 414 -474 479 -428 b 889 -39 668 -276 781 -160 b 1182 325 992 78 1090 199 b 1182 325 1182 325 1182 325 l 1176 324 b 1150 317 1168 322 1158 319 b 954 218 1082 293 1017 257 b 776 88 892 179 832 136 b 699 11 749 64 722 39 b 669 -32 688 -3 678 -17 b 657 -72 661 -46 656 -61 b 635 -99 658 -86 647 -97 b 610 -76 621 -99 610 -89 b 610 -74 610 -75 610 -74 l 610 -72 b 632 -10 611 -46 621 -26 b 669 38 643 8 656 24 b 754 114 696 65 725 90 b 940 240 813 161 876 203 b 1039 294 972 260 1006 278 b 1143 340 1072 313 1107 328 b 1171 347 1153 343 1161 346 l 1179 349 b 1189 349 1182 349 1183 349 b 1203 343 1192 349 1197 347 b 1206 339 1203 342 1204 340 b 1207 333 1207 338 1207 336 b 1208 331 1208 332 1208 331 b 1207 313 1208 322 1208 317 b 1201 297 1206 307 1204 301 b 1190 271 1199 288 1194 279 b 1135 172 1174 236 1154 204 b 888 -200 1056 46 969 -75 b 768 -387 847 -262 806 -324 b 714 -483 749 -419 731 -451 b 692 -532 706 -500 697 -517 b 683 -556 688 -540 685 -549 b 682 -567 683 -560 682 -564 b 682 -568 682 -567 682 -568 b 671 -599 688 -581 682 -593 b 639 -587 658 -604 644 -600 b 635 -561 633 -576 635 -568 b 639 -544 636 -556 638 -550 b 650 -515 642 -533 646 -524 b 676 -464 658 -497 667 -481 b 736 -368 696 -431 715 -399 b 863 -183 778 -306 819 -243 b 1114 186 947 -61 1033 61 b 1164 271 1131 214 1149 242 b 904 -53 1082 160 994 51 b 558 -396 797 -175 683 -293 b 354 -533 494 -447 428 -496 b 239 -579 318 -553 279 -569 b 176 -590 219 -585 199 -589 b 144 -592 167 -592 156 -592 b 113 -587 135 -592 124 -590 b 54 -549 90 -582 68 -568 b 32 -486 40 -529 35 -507 b 42 -360 26 -442 33 -400 b 128 -129 61 -279 93 -203 b 376 292 197 18 282 158 b 686 669 469 425 572 551 b 868 835 743 728 803 783 b 1083 958 933 885 1003 931 b 1149 972 1104 964 1125 969 b 1183 972 1160 974 1171 974 b 1222 956 1196 969 1210 965 "},"H":{"ha":1264,"x_min":0,"x_max":0,"o":"m 1213 256 b 1219 251 1214 256 1215 254 b 1226 235 1221 250 1226 243 b 1224 224 1226 231 1225 225 b 1219 217 1222 221 1221 219 b 1186 215 1211 207 1196 207 b 1185 217 1186 215 1185 215 b 1183 217 1185 217 1183 217 b 1165 219 1178 218 1172 218 b 1131 222 1154 221 1142 222 b 1057 226 1106 224 1082 225 b 996 226 1036 226 1017 226 b 986 211 993 221 989 217 b 776 -179 914 82 843 -47 b 683 -378 743 -244 711 -311 b 644 -481 668 -412 656 -446 b 632 -531 639 -497 635 -514 b 632 -551 631 -537 631 -546 b 632 -553 632 -551 632 -551 b 647 -579 643 -557 649 -568 b 619 -599 644 -592 632 -601 b 593 -581 610 -597 597 -589 b 585 -557 588 -572 585 -564 b 586 -524 583 -544 585 -533 b 601 -467 589 -503 594 -485 b 642 -361 613 -429 628 -394 b 740 -160 672 -293 706 -226 b 957 226 810 -29 882 99 b 911 225 942 225 926 225 b 618 201 813 222 715 214 b 483 181 572 196 528 189 b 317 -90 429 90 374 0 l 231 -231 l 188 -300 b 168 -335 181 -311 174 -324 b 158 -353 164 -340 161 -347 b 154 -360 157 -356 156 -358 b 153 -364 154 -361 153 -362 b 153 -364 153 -364 153 -364 b 133 -383 151 -374 144 -382 b 106 -364 121 -386 108 -378 b 107 -351 106 -360 106 -354 l 108 -347 b 111 -340 110 -344 110 -343 b 117 -331 113 -337 114 -333 b 124 -317 118 -326 121 -321 b 144 -247 132 -293 139 -271 b 163 -136 154 -210 160 -172 b 140 -29 163 -99 157 -61 b 65 25 125 -1 96 19 b 35 31 54 19 42 22 b 39 65 26 42 28 57 b 42 67 39 65 40 67 b 179 131 86 93 132 113 b 322 172 226 147 275 161 b 454 201 367 183 410 193 b 460 210 456 204 458 207 b 629 490 518 301 575 396 b 704 636 656 539 682 586 b 736 710 717 660 728 685 b 747 749 740 722 744 736 b 747 781 750 760 750 774 l 746 782 b 751 797 744 788 746 794 b 767 792 757 800 764 797 b 769 744 775 774 772 758 b 758 703 767 729 763 715 b 728 625 750 676 739 650 b 654 476 704 575 679 525 b 500 210 604 386 553 297 b 614 228 539 217 576 222 b 908 257 713 242 810 250 b 979 261 932 260 956 260 b 1190 606 1047 378 1118 492 b 1313 792 1231 668 1271 731 b 1375 883 1333 822 1354 853 b 1408 928 1386 899 1397 913 b 1426 950 1415 935 1421 942 b 1436 960 1431 953 1433 957 b 1450 971 1440 964 1443 967 b 1463 967 1454 974 1460 971 b 1458 956 1464 963 1463 957 l 1458 954 b 1450 947 1456 954 1453 950 b 1440 938 1447 944 1443 942 b 1424 917 1435 931 1429 924 b 1392 872 1413 901 1401 886 b 1331 779 1371 842 1350 811 b 1211 593 1289 718 1250 656 b 1017 263 1144 483 1081 374 b 1057 264 1031 264 1043 264 b 1132 265 1082 265 1107 265 b 1169 264 1144 265 1157 265 b 1190 263 1176 264 1183 264 b 1201 261 1193 263 1197 261 b 1210 258 1203 260 1206 260 b 1213 256 1211 257 1211 257 m 153 -362 b 153 -361 153 -362 153 -361 b 153 -362 153 -361 153 -362 m 153 -361 b 153 -356 154 -360 154 -357 b 153 -361 153 -358 153 -360 m 282 -68 b 436 172 333 13 385 92 b 329 146 400 164 365 156 b 192 99 282 133 236 117 b 83 38 153 81 117 61 b 157 -19 114 29 140 8 b 186 -136 178 -56 185 -96 b 176 -233 185 -168 182 -201 l 193 -206 l 282 -68 m 628 -551 b 629 -551 628 -551 628 -551 b 628 -551 628 -551 628 -551 m 1183 249 b 1181 243 1182 247 1181 246 b 1179 242 1181 243 1179 243 b 1183 249 1181 244 1182 247 m 1190 215 b 1189 215 1190 214 1190 215 b 1189 215 1189 215 1189 215 b 1190 215 1189 215 1189 215 "},"I":{"ha":1088,"x_min":0,"x_max":0,"o":"m 1596 907 b 1532 911 1575 908 1553 911 b 1401 914 1489 914 1444 915 b 1213 904 1339 914 1275 910 b 1210 897 1211 901 1211 900 b 1192 847 1206 879 1199 863 b 1146 754 1178 815 1161 785 b 1047 574 1114 693 1081 633 b 842 221 981 456 913 338 b 633 -131 772 104 703 -12 b 532 -307 599 -189 564 -247 b 485 -397 515 -337 500 -367 b 465 -436 478 -410 471 -422 b 633 -415 521 -428 578 -421 b 733 -407 667 -412 700 -410 b 783 -404 750 -406 767 -406 b 810 -404 793 -404 801 -404 b 824 -404 814 -404 819 -404 b 832 -406 826 -406 829 -406 b 836 -407 833 -406 835 -407 b 840 -408 838 -407 838 -407 b 846 -411 842 -410 844 -410 l 847 -414 b 850 -415 847 -414 849 -414 b 853 -421 851 -417 851 -418 b 854 -437 856 -426 856 -435 b 847 -450 853 -443 850 -447 b 817 -451 839 -458 826 -457 b 807 -450 814 -450 811 -450 b 783 -449 800 -449 792 -449 b 735 -447 768 -447 751 -447 b 636 -450 703 -447 669 -449 b 453 -467 575 -453 514 -460 b 450 -475 451 -469 450 -472 l 449 -479 b 449 -481 449 -481 449 -481 l 446 -489 b 417 -504 443 -500 429 -507 b 401 -479 406 -500 400 -490 b 401 -474 401 -476 401 -475 b 246 -504 350 -482 297 -492 b 68 -578 183 -521 119 -543 b 35 -572 57 -586 43 -583 b 42 -539 28 -561 31 -546 b 44 -536 43 -537 43 -537 b 142 -500 76 -521 110 -510 b 239 -475 174 -492 207 -483 b 413 -443 297 -462 354 -453 b 422 -422 415 -436 418 -429 b 446 -376 429 -407 438 -392 b 499 -287 464 -347 481 -317 l 601 -122 b 603 -115 601 -119 601 -117 b 603 -115 603 -115 603 -115 l 603 -114 b 731 122 649 -36 692 42 b 832 372 769 204 804 286 b 850 436 839 393 844 414 b 857 468 853 447 854 458 l 860 485 l 863 501 b 861 633 869 546 871 590 b 786 732 853 675 826 714 b 724 746 767 740 746 746 b 661 732 703 746 679 742 b 657 731 660 732 658 731 b 624 735 646 722 632 724 b 626 768 615 744 617 760 b 629 769 628 769 628 769 b 878 872 707 818 792 849 b 1138 925 963 896 1050 914 b 1172 931 1149 928 1161 929 b 1171 938 1172 936 1169 940 b 1175 971 1163 949 1165 964 b 1210 965 1186 979 1201 976 b 1215 954 1211 963 1214 958 b 1217 943 1215 950 1217 947 b 1217 935 1217 940 1217 938 b 1268 940 1235 938 1251 939 b 1400 949 1313 944 1357 947 b 1533 951 1444 951 1489 951 b 1600 950 1556 951 1578 951 b 1635 947 1611 949 1622 949 b 1653 944 1640 946 1646 946 b 1663 942 1656 944 1658 943 b 1667 940 1664 942 1665 940 l 1669 939 l 1672 938 b 1676 935 1674 936 1675 935 b 1678 932 1676 933 1676 933 b 1682 925 1679 931 1681 928 b 1683 911 1683 921 1685 917 b 1678 899 1683 907 1681 901 b 1644 897 1668 889 1654 888 b 1642 899 1643 897 1643 899 b 1642 899 1642 899 1642 899 b 1628 901 1638 900 1632 901 b 1596 907 1618 904 1607 906 m 1638 924 b 1642 931 1639 926 1640 928 b 1638 924 1640 929 1639 926 m 1638 919 b 1636 919 1636 919 1636 919 b 1636 918 1636 919 1636 918 b 1638 919 1636 918 1636 919 m 821 -451 b 822 -451 822 -451 822 -451 b 821 -451 821 -451 821 -451 b 821 -451 821 -451 821 -451 m 810 -421 b 815 -414 811 -418 813 -417 b 810 -421 813 -417 811 -418 m 808 -424 b 808 -425 808 -425 808 -425 b 808 -428 808 -425 808 -426 b 808 -424 808 -426 808 -425 m 1158 860 b 1168 900 1163 874 1165 886 b 1140 896 1160 899 1150 897 b 886 844 1054 885 968 869 b 701 763 821 824 757 797 b 725 761 708 761 717 761 b 793 744 747 758 771 754 b 847 700 814 735 833 719 b 875 636 861 681 871 660 b 878 500 886 592 883 544 l 875 482 l 872 465 b 865 432 869 454 868 443 b 847 367 860 411 854 389 b 757 129 824 285 792 207 b 821 233 779 164 800 199 b 1029 585 892 350 963 465 b 1121 767 1061 644 1093 704 b 1158 860 1135 797 1147 828 "},"Ì":{"ha":1088,"x_min":0,"x_max":0,"o":"m 1596 907 b 1628 901 1607 906 1618 904 b 1642 899 1632 901 1638 900 b 1642 899 1642 899 1642 899 b 1644 897 1643 899 1643 897 b 1678 899 1654 888 1668 889 b 1683 911 1681 901 1683 907 b 1682 925 1685 917 1683 921 b 1678 932 1681 928 1679 931 b 1676 935 1676 933 1676 933 b 1672 938 1675 935 1674 936 l 1669 939 l 1667 940 b 1663 942 1665 940 1664 942 b 1653 944 1658 943 1656 944 b 1635 947 1646 946 1640 946 b 1600 950 1622 949 1611 949 b 1533 951 1578 951 1556 951 b 1400 949 1489 951 1444 951 b 1268 940 1357 947 1313 944 b 1217 935 1251 939 1235 938 b 1217 943 1217 938 1217 940 b 1215 954 1217 947 1215 950 b 1210 965 1214 958 1211 963 b 1175 971 1201 976 1186 979 b 1171 938 1165 964 1163 949 b 1172 931 1169 940 1172 936 b 1138 925 1161 929 1149 928 b 878 872 1050 914 963 896 b 629 769 792 849 707 818 b 626 768 628 769 628 769 b 624 735 617 760 615 744 b 657 731 632 724 646 722 b 661 732 658 731 660 732 b 724 746 679 742 703 746 b 786 732 746 746 767 740 b 861 633 826 714 853 675 b 863 501 871 590 869 546 l 860 485 l 857 468 b 850 436 854 458 853 447 b 832 372 844 414 839 393 b 731 122 804 286 769 204 b 603 -114 692 42 649 -36 l 603 -115 b 603 -115 603 -115 603 -115 b 601 -122 601 -117 601 -119 l 499 -287 b 446 -376 481 -317 464 -347 b 422 -422 438 -392 429 -407 b 413 -443 418 -429 415 -436 b 239 -475 354 -453 297 -462 b 142 -500 207 -483 174 -492 b 44 -536 110 -510 76 -521 b 42 -539 43 -537 43 -537 b 35 -572 31 -546 28 -561 b 68 -578 43 -583 57 -586 b 246 -504 119 -543 183 -521 b 401 -474 297 -492 350 -482 b 401 -479 401 -475 401 -476 b 417 -504 400 -490 406 -500 b 446 -489 429 -507 443 -500 l 449 -481 b 449 -479 449 -481 449 -481 l 450 -475 b 453 -467 450 -472 451 -469 b 636 -450 514 -460 575 -453 b 735 -447 669 -449 703 -447 b 783 -449 751 -447 768 -447 b 807 -450 792 -449 800 -449 b 817 -451 811 -450 814 -450 b 847 -450 826 -457 839 -458 b 854 -437 850 -447 853 -443 b 853 -421 856 -435 856 -426 b 850 -415 851 -418 851 -417 b 847 -414 849 -414 847 -414 l 846 -411 b 840 -408 844 -410 842 -410 b 836 -407 838 -407 838 -407 b 832 -406 835 -407 833 -406 b 824 -404 829 -406 826 -406 b 810 -404 819 -404 814 -404 b 783 -404 801 -404 793 -404 b 733 -407 767 -406 750 -406 b 633 -415 700 -410 667 -412 b 465 -436 578 -421 521 -428 b 485 -397 471 -422 478 -410 b 532 -307 500 -367 515 -337 b 633 -131 564 -247 599 -189 b 842 221 703 -12 772 104 b 1047 574 913 338 981 456 b 1146 754 1081 633 1114 693 b 1192 847 1161 785 1178 815 b 1210 897 1199 863 1206 879 b 1213 904 1211 900 1211 901 b 1401 914 1275 910 1339 914 b 1532 911 1444 915 1489 914 b 1596 907 1553 911 1575 908 m 1638 924 b 1642 931 1639 926 1640 929 b 1638 924 1640 928 1639 926 m 1638 919 b 1636 918 1636 919 1636 918 b 1636 919 1636 918 1636 919 b 1638 919 1636 919 1636 919 m 821 -451 b 821 -451 821 -451 821 -451 b 822 -451 821 -451 821 -451 b 821 -451 822 -451 822 -451 m 810 -421 b 815 -414 811 -418 813 -417 b 810 -421 813 -417 811 -418 m 808 -424 b 808 -428 808 -425 808 -426 b 808 -425 808 -426 808 -425 b 808 -424 808 -425 808 -425 m 1158 860 b 1121 767 1147 828 1135 797 b 1029 585 1093 704 1061 644 b 821 233 963 465 892 350 b 757 129 800 199 779 164 b 847 367 792 207 824 285 b 865 432 854 389 860 411 b 872 465 868 443 869 454 l 875 482 l 878 500 b 875 636 883 544 886 592 b 847 700 871 660 861 681 b 793 744 833 719 814 735 b 725 761 771 754 747 758 b 701 763 717 761 708 761 b 886 844 757 797 821 824 b 1140 896 968 869 1054 885 b 1168 900 1150 897 1160 899 b 1158 860 1165 886 1163 874 "},"Í":{"ha":1088,"x_min":0,"x_max":0,"o":"m 1596 907 b 1532 911 1575 908 1553 911 b 1401 914 1489 914 1444 915 b 1213 904 1339 914 1275 910 b 1210 897 1211 901 1211 900 b 1192 847 1206 879 1199 863 b 1146 754 1178 815 1161 785 b 1047 574 1114 693 1081 633 b 842 221 981 456 913 338 b 633 -131 772 104 703 -12 b 532 -307 599 -189 564 -247 b 485 -397 515 -337 500 -367 b 465 -436 478 -410 471 -422 b 633 -415 521 -428 578 -421 b 733 -407 667 -412 700 -410 b 783 -404 750 -406 767 -406 b 810 -404 793 -404 801 -404 b 824 -404 814 -404 819 -404 b 832 -406 826 -406 829 -406 b 836 -407 833 -406 835 -407 b 840 -408 838 -407 838 -407 b 846 -411 842 -410 844 -410 l 847 -414 b 850 -415 847 -414 849 -414 b 853 -421 851 -417 851 -418 b 854 -437 856 -426 856 -435 b 847 -450 853 -443 850 -447 b 817 -451 839 -458 826 -457 b 807 -450 814 -450 811 -450 b 783 -449 800 -449 792 -449 b 735 -447 768 -447 751 -447 b 636 -450 703 -447 669 -449 b 453 -467 575 -453 514 -460 b 450 -475 451 -469 450 -472 l 449 -479 b 449 -481 449 -481 449 -481 l 446 -489 b 417 -504 443 -500 429 -507 b 401 -479 406 -500 400 -490 b 401 -474 401 -476 401 -475 b 246 -504 350 -482 297 -492 b 68 -578 183 -521 119 -543 b 35 -572 57 -586 43 -583 b 42 -539 28 -561 31 -546 b 44 -536 43 -537 43 -537 b 142 -500 76 -521 110 -510 b 239 -475 174 -492 207 -483 b 413 -443 297 -462 354 -453 b 422 -422 415 -436 418 -429 b 446 -376 429 -407 438 -392 b 499 -287 464 -347 481 -317 l 601 -122 b 603 -115 601 -119 601 -117 b 603 -115 603 -115 603 -115 l 603 -114 b 731 122 649 -36 692 42 b 832 372 769 204 804 286 b 850 436 839 393 844 414 b 857 468 853 447 854 458 l 860 485 l 863 501 b 861 633 869 546 871 590 b 786 732 853 675 826 714 b 724 746 767 740 746 746 b 661 732 703 746 679 742 b 657 731 660 732 658 731 b 624 735 646 722 632 724 b 626 768 615 744 617 760 b 629 769 628 769 628 769 b 878 872 707 818 792 849 b 1138 925 963 896 1050 914 b 1172 931 1149 928 1161 929 b 1171 938 1172 936 1169 940 b 1175 971 1163 949 1165 964 b 1210 965 1186 979 1201 976 b 1215 954 1211 963 1214 958 b 1217 943 1215 950 1217 947 b 1217 935 1217 940 1217 938 b 1268 940 1235 938 1251 939 b 1400 949 1313 944 1357 947 b 1533 951 1444 951 1489 951 b 1600 950 1556 951 1578 951 b 1635 947 1611 949 1622 949 b 1653 944 1640 946 1646 946 b 1663 942 1656 944 1658 943 b 1667 940 1664 942 1665 940 l 1669 939 l 1672 938 b 1676 935 1674 936 1675 935 b 1678 932 1676 933 1676 933 b 1682 925 1679 931 1681 928 b 1683 911 1683 921 1685 917 b 1678 899 1683 907 1681 901 b 1644 897 1668 889 1654 888 b 1642 899 1643 897 1643 899 b 1642 899 1642 899 1642 899 b 1628 901 1638 900 1632 901 b 1596 907 1618 904 1607 906 m 1638 924 b 1642 931 1639 926 1640 928 b 1638 924 1640 929 1639 926 m 1638 919 b 1636 919 1636 919 1636 919 b 1636 918 1636 919 1636 918 b 1638 919 1636 918 1636 919 m 821 -451 b 822 -451 822 -451 822 -451 b 821 -451 821 -451 821 -451 b 821 -451 821 -451 821 -451 m 810 -421 b 815 -414 811 -418 813 -417 b 810 -421 813 -417 811 -418 m 808 -424 b 808 -425 808 -425 808 -425 b 808 -428 808 -425 808 -426 b 808 -424 808 -426 808 -425 m 1158 860 b 1168 900 1163 874 1165 886 b 1140 896 1160 899 1150 897 b 886 844 1054 885 968 869 b 701 763 821 824 757 797 b 725 761 708 761 717 761 b 793 744 747 758 771 754 b 847 700 814 735 833 719 b 875 636 861 681 871 660 b 878 500 886 592 883 544 l 875 482 l 872 465 b 865 432 869 454 868 443 b 847 367 860 411 854 389 b 757 129 824 285 792 207 b 821 233 779 164 800 199 b 1029 585 892 350 963 465 b 1121 767 1061 644 1093 704 b 1158 860 1135 797 1147 828 "},"Î":{"ha":1088,"x_min":0,"x_max":0,"o":"m 1596 907 b 1628 901 1607 906 1618 904 b 1642 899 1632 901 1638 900 b 1642 899 1642 899 1642 899 b 1644 897 1643 899 1643 897 b 1678 899 1654 888 1668 889 b 1683 911 1681 901 1683 907 b 1682 925 1685 917 1683 921 b 1678 932 1681 928 1679 931 b 1676 935 1676 933 1676 933 b 1672 938 1675 935 1674 936 l 1669 939 l 1667 940 b 1663 942 1665 940 1664 942 b 1653 944 1658 943 1656 944 b 1635 947 1646 946 1640 946 b 1600 950 1622 949 1611 949 b 1533 951 1578 951 1556 951 b 1400 949 1489 951 1444 951 b 1268 940 1357 947 1313 944 b 1217 935 1251 939 1235 938 b 1217 943 1217 938 1217 940 b 1215 954 1217 947 1215 950 b 1210 965 1214 958 1211 963 b 1175 971 1201 976 1186 979 b 1171 938 1165 964 1163 949 b 1172 931 1169 940 1172 936 b 1138 925 1161 929 1149 928 b 878 872 1050 914 963 896 b 629 769 792 849 707 818 b 626 768 628 769 628 769 b 624 735 617 760 615 744 b 657 731 632 724 646 722 b 661 732 658 731 660 732 b 724 746 679 742 703 746 b 786 732 746 746 767 740 b 861 633 826 714 853 675 b 863 501 871 590 869 546 l 860 485 l 857 468 b 850 436 854 458 853 447 b 832 372 844 414 839 393 b 731 122 804 286 769 204 b 603 -114 692 42 649 -36 l 603 -115 b 603 -115 603 -115 603 -115 b 601 -122 601 -117 601 -119 l 499 -287 b 446 -376 481 -317 464 -347 b 422 -422 438 -392 429 -407 b 413 -443 418 -429 415 -436 b 239 -475 354 -453 297 -462 b 142 -500 207 -483 174 -492 b 44 -536 110 -510 76 -521 b 42 -539 43 -537 43 -537 b 35 -572 31 -546 28 -561 b 68 -578 43 -583 57 -586 b 246 -504 119 -543 183 -521 b 401 -474 297 -492 350 -482 b 401 -479 401 -475 401 -476 b 417 -504 400 -490 406 -500 b 446 -489 429 -507 443 -500 l 449 -481 b 449 -479 449 -481 449 -481 l 450 -475 b 453 -467 450 -472 451 -469 b 636 -450 514 -460 575 -453 b 735 -447 669 -449 703 -447 b 783 -449 751 -447 768 -447 b 807 -450 792 -449 800 -449 b 817 -451 811 -450 814 -450 b 847 -450 826 -457 839 -458 b 854 -437 850 -447 853 -443 b 853 -421 856 -435 856 -426 b 850 -415 851 -418 851 -417 b 847 -414 849 -414 847 -414 l 846 -411 b 840 -408 844 -410 842 -410 b 836 -407 838 -407 838 -407 b 832 -406 835 -407 833 -406 b 824 -404 829 -406 826 -406 b 810 -404 819 -404 814 -404 b 783 -404 801 -404 793 -404 b 733 -407 767 -406 750 -406 b 633 -415 700 -410 667 -412 b 465 -436 578 -421 521 -428 b 485 -397 471 -422 478 -410 b 532 -307 500 -367 515 -337 b 633 -131 564 -247 599 -189 b 842 221 703 -12 772 104 b 1047 574 913 338 981 456 b 1146 754 1081 633 1114 693 b 1192 847 1161 785 1178 815 b 1210 897 1199 863 1206 879 b 1213 904 1211 900 1211 901 b 1401 914 1275 910 1339 914 b 1532 911 1444 915 1489 914 b 1596 907 1553 911 1575 908 m 1638 924 b 1642 931 1639 926 1640 929 b 1638 924 1640 928 1639 926 m 1638 919 b 1636 918 1636 919 1636 918 b 1636 919 1636 918 1636 919 b 1638 919 1636 919 1636 919 m 821 -451 b 821 -451 821 -451 821 -451 b 822 -451 821 -451 821 -451 b 821 -451 822 -451 822 -451 m 810 -421 b 815 -414 811 -418 813 -417 b 810 -421 813 -417 811 -418 m 808 -424 b 808 -428 808 -425 808 -426 b 808 -425 808 -426 808 -425 b 808 -424 808 -425 808 -425 m 1158 860 b 1121 767 1147 828 1135 797 b 1029 585 1093 704 1061 644 b 821 233 963 465 892 350 b 757 129 800 199 779 164 b 847 367 792 207 824 285 b 865 432 854 389 860 411 b 872 465 868 443 869 454 l 875 482 l 878 500 b 875 636 883 544 886 592 b 847 700 871 660 861 681 b 793 744 833 719 814 735 b 725 761 771 754 747 758 b 701 763 717 761 708 761 b 886 844 757 797 821 824 b 1140 896 968 869 1054 885 b 1168 900 1150 897 1160 899 b 1158 860 1165 886 1163 874 "},"Ï":{"ha":1088,"x_min":0,"x_max":0,"o":"m 1596 907 b 1532 911 1575 908 1553 911 b 1401 914 1489 914 1444 915 b 1213 904 1339 914 1275 910 b 1210 897 1211 901 1211 900 b 1192 847 1206 879 1199 863 b 1146 754 1178 815 1161 785 b 1047 574 1114 693 1081 633 b 842 221 981 456 913 338 b 633 -131 772 104 703 -12 b 532 -307 599 -189 564 -247 b 485 -397 515 -337 500 -367 b 465 -436 478 -410 471 -422 b 633 -415 521 -428 578 -421 b 733 -407 667 -412 700 -410 b 783 -404 750 -406 767 -406 b 810 -404 793 -404 801 -404 b 824 -404 814 -404 819 -404 b 832 -406 826 -406 829 -406 b 836 -407 833 -406 835 -407 b 840 -408 838 -407 838 -407 b 846 -411 842 -410 844 -410 l 847 -414 b 850 -415 847 -414 849 -414 b 853 -421 851 -417 851 -418 b 854 -437 856 -426 856 -435 b 847 -450 853 -443 850 -447 b 817 -451 839 -458 826 -457 b 807 -450 814 -450 811 -450 b 783 -449 800 -449 792 -449 b 735 -447 768 -447 751 -447 b 636 -450 703 -447 669 -449 b 453 -467 575 -453 514 -460 b 450 -475 451 -469 450 -472 l 449 -479 b 449 -481 449 -481 449 -481 l 446 -489 b 417 -504 443 -500 429 -507 b 401 -479 406 -500 400 -490 b 401 -474 401 -476 401 -475 b 246 -504 350 -482 297 -492 b 68 -578 183 -521 119 -543 b 35 -572 57 -586 43 -583 b 42 -539 28 -561 31 -546 b 44 -536 43 -537 43 -537 b 142 -500 76 -521 110 -510 b 239 -475 174 -492 207 -483 b 413 -443 297 -462 354 -453 b 422 -422 415 -436 418 -429 b 446 -376 429 -407 438 -392 b 499 -287 464 -347 481 -317 l 601 -122 b 603 -115 601 -119 601 -117 b 603 -115 603 -115 603 -115 l 603 -114 b 731 122 649 -36 692 42 b 832 372 769 204 804 286 b 850 436 839 393 844 414 b 857 468 853 447 854 458 l 860 485 l 863 501 b 861 633 869 546 871 590 b 786 732 853 675 826 714 b 724 746 767 740 746 746 b 661 732 703 746 679 742 b 657 731 660 732 658 731 b 624 735 646 722 632 724 b 626 768 615 744 617 760 b 629 769 628 769 628 769 b 878 872 707 818 792 849 b 1138 925 963 896 1050 914 b 1172 931 1149 928 1161 929 b 1171 938 1172 936 1169 940 b 1175 971 1163 949 1165 964 b 1210 965 1186 979 1201 976 b 1215 954 1211 963 1214 958 b 1217 943 1215 950 1217 947 b 1217 935 1217 940 1217 938 b 1268 940 1235 938 1251 939 b 1400 949 1313 944 1357 947 b 1533 951 1444 951 1489 951 b 1600 950 1556 951 1578 951 b 1635 947 1611 949 1622 949 b 1653 944 1640 946 1646 946 b 1663 942 1656 944 1658 943 b 1667 940 1664 942 1665 940 l 1669 939 l 1672 938 b 1676 935 1674 936 1675 935 b 1678 932 1676 933 1676 933 b 1682 925 1679 931 1681 928 b 1683 911 1683 921 1685 917 b 1678 899 1683 907 1681 901 b 1644 897 1668 889 1654 888 b 1642 899 1643 897 1643 899 b 1642 899 1642 899 1642 899 b 1628 901 1638 900 1632 901 b 1596 907 1618 904 1607 906 m 1638 924 b 1642 931 1639 926 1640 928 b 1638 924 1640 929 1639 926 m 1638 919 b 1636 919 1636 919 1636 919 b 1636 918 1636 919 1636 918 b 1638 919 1636 918 1636 919 m 821 -451 b 822 -451 822 -451 822 -451 b 821 -451 821 -451 821 -451 b 821 -451 821 -451 821 -451 m 810 -421 b 815 -414 811 -418 813 -417 b 810 -421 813 -417 811 -418 m 808 -424 b 808 -425 808 -425 808 -425 b 808 -428 808 -425 808 -426 b 808 -424 808 -426 808 -425 m 1158 860 b 1168 900 1163 874 1165 886 b 1140 896 1160 899 1150 897 b 886 844 1054 885 968 869 b 701 763 821 824 757 797 b 725 761 708 761 717 761 b 793 744 747 758 771 754 b 847 700 814 735 833 719 b 875 636 861 681 871 660 b 878 500 886 592 883 544 l 875 482 l 872 465 b 865 432 869 454 868 443 b 847 367 860 411 854 389 b 757 129 824 285 792 207 b 821 233 779 164 800 199 b 1029 585 892 350 963 465 b 1121 767 1061 644 1093 704 b 1158 860 1135 797 1147 828 "},"J":{"ha":1425,"x_min":0,"x_max":0,"o":"m 1440 250 b 1444 244 1443 250 1444 247 b 1440 240 1444 242 1443 240 l 1439 240 b 1135 211 1338 243 1235 229 b 886 -169 1060 79 976 -47 b 661 -419 821 -260 747 -346 b 521 -517 618 -457 571 -490 b 356 -571 469 -544 414 -564 b 181 -551 297 -578 236 -575 b 104 -506 153 -540 126 -525 b 47 -435 81 -486 60 -462 b 28 -344 33 -407 26 -375 b 53 -258 29 -314 39 -285 b 169 -131 82 -206 124 -165 b 314 -43 214 -96 264 -68 b 390 -8 339 -31 365 -19 b 467 25 415 3 442 14 b 782 136 571 67 676 104 b 1107 217 889 168 997 196 b 1110 217 1108 217 1108 217 b 1214 413 1147 281 1182 346 b 1321 724 1260 513 1301 617 b 1317 883 1329 778 1333 835 b 1271 942 1308 908 1293 929 b 1197 954 1250 954 1224 957 b 1038 918 1143 949 1089 936 b 885 856 985 901 933 881 b 607 678 786 807 693 746 b 375 444 521 608 442 531 b 294 306 343 400 313 354 b 279 232 285 281 278 256 b 306 179 281 210 289 192 b 313 146 317 172 319 157 b 279 140 306 135 290 132 b 279 140 279 140 279 140 l 278 140 b 244 182 264 151 251 165 b 233 232 238 197 233 215 b 254 321 233 264 243 293 b 344 467 276 375 310 422 b 588 701 415 556 499 633 b 872 879 676 769 771 831 b 1194 978 974 928 1082 965 b 1282 961 1224 979 1256 976 b 1339 892 1310 946 1329 919 b 1351 806 1349 863 1351 833 b 1343 721 1351 776 1347 749 b 1233 403 1322 608 1281 504 b 1142 222 1206 342 1174 282 b 1440 250 1240 240 1339 253 m 864 -153 b 1103 204 949 -37 1031 81 b 786 122 996 183 890 156 b 474 7 681 89 576 51 b 399 -26 449 -3 424 -14 b 324 -62 372 -37 347 -49 b 185 -151 275 -87 228 -117 b 82 -272 143 -186 106 -226 b 64 -346 71 -296 64 -321 b 82 -417 64 -371 69 -396 b 196 -511 106 -461 149 -493 b 350 -528 244 -531 299 -535 b 638 -392 456 -515 553 -460 b 864 -153 722 -324 797 -240 "},"K":{"ha":1125,"x_min":0,"x_max":0,"o":"m 1447 844 b 1453 811 1457 836 1460 821 b 1451 810 1451 810 1451 810 b 1344 694 1418 768 1382 732 b 1232 590 1308 658 1271 624 b 988 401 1153 524 1072 460 b 728 238 904 343 817 289 b 457 94 640 186 549 139 l 433 83 b 321 -92 396 25 358 -33 b 458 -112 367 -100 413 -107 b 763 -149 558 -126 661 -137 b 915 -171 813 -156 864 -162 b 992 -187 940 -175 967 -181 b 1032 -203 1006 -192 1018 -196 b 1054 -221 1039 -207 1046 -211 b 1063 -239 1057 -225 1061 -231 b 1060 -261 1064 -247 1063 -256 b 1029 -274 1056 -274 1042 -279 b 1015 -246 1018 -269 1013 -257 b 1010 -242 1014 -244 1013 -243 b 979 -226 1001 -236 990 -231 b 908 -206 957 -218 932 -211 b 758 -175 858 -193 808 -183 b 456 -128 658 -157 557 -143 b 314 -103 408 -121 361 -112 b 285 -149 304 -118 294 -133 l 175 -318 l 121 -403 l 96 -446 l 83 -468 b 78 -478 81 -471 79 -475 l 75 -482 b 75 -483 75 -482 75 -482 b 56 -503 74 -492 67 -500 b 28 -483 43 -504 31 -496 b 28 -474 28 -481 28 -476 b 29 -469 28 -472 29 -471 b 29 -468 29 -468 29 -469 l 32 -464 b 35 -456 33 -460 33 -458 b 42 -444 38 -451 39 -449 l 56 -422 l 82 -379 l 138 -294 l 250 -125 b 272 -94 258 -115 265 -104 b 229 -82 257 -90 243 -86 b 193 -67 217 -78 206 -74 b 176 -54 188 -64 182 -60 b 172 -42 174 -50 172 -47 b 174 -29 171 -37 172 -33 b 207 -4 182 -17 194 -10 b 242 13 218 3 231 7 l 313 42 l 382 74 l 383 75 b 475 213 414 121 444 167 b 690 554 549 325 621 439 b 790 729 725 613 760 671 b 835 819 807 760 822 789 b 851 865 842 835 847 850 b 856 889 854 874 856 882 b 854 903 857 896 856 901 b 847 917 849 904 844 911 b 861 924 849 922 856 926 b 867 921 864 924 865 922 l 868 919 b 875 911 869 918 874 914 b 878 903 876 908 878 906 l 879 894 b 879 888 879 892 879 889 b 874 860 878 878 876 868 b 857 811 869 843 863 826 b 814 718 843 779 829 749 b 715 540 782 657 749 599 b 504 193 647 422 576 308 b 447 106 485 164 467 135 l 451 107 b 719 251 542 151 632 200 b 974 421 807 304 892 361 b 1210 615 1056 482 1135 546 b 1317 722 1246 650 1282 686 b 1413 838 1351 760 1385 799 l 1414 839 b 1447 844 1421 849 1436 851 m 75 -482 b 75 -481 75 -481 75 -481 b 75 -479 75 -481 75 -479 b 75 -482 75 -481 75 -481 m 1017 -247 b 1017 -249 1017 -249 1018 -249 b 1017 -247 1017 -249 1017 -247 m 233 -71 b 279 -83 249 -76 264 -79 b 371 54 310 -37 340 8 l 317 31 l 246 1 b 211 -14 235 -4 222 -8 b 185 -35 201 -19 189 -26 b 199 -57 179 -43 189 -51 b 233 -71 210 -62 221 -67 "},"L":{"ha":700,"x_min":0,"x_max":0,"o":"m 822 893 b 829 860 833 886 836 871 b 828 860 828 860 828 860 b 671 633 775 785 722 710 b 517 406 618 558 567 482 b 224 -62 415 251 317 97 b 96 -304 178 -142 133 -221 b 71 -367 86 -325 78 -346 b 61 -399 67 -378 63 -387 b 56 -428 58 -408 56 -419 b 58 -437 57 -432 57 -436 b 64 -442 60 -439 61 -440 b 76 -442 67 -442 71 -443 b 83 -442 78 -442 81 -442 l 92 -440 b 160 -428 114 -436 136 -432 b 429 -369 249 -410 339 -390 b 565 -343 474 -360 519 -351 b 636 -335 589 -339 611 -336 b 675 -337 649 -335 661 -335 b 700 -346 683 -339 690 -340 b 714 -361 704 -349 710 -354 b 718 -382 718 -368 718 -375 b 693 -404 717 -394 706 -404 b 671 -383 681 -403 672 -394 b 667 -382 669 -382 668 -382 b 638 -379 658 -379 647 -379 b 571 -382 615 -378 593 -381 b 436 -404 525 -387 481 -396 b 165 -457 346 -419 256 -442 b 96 -469 142 -461 119 -465 b 56 -469 86 -471 71 -474 b 33 -453 47 -467 39 -461 b 26 -429 29 -446 28 -437 b 32 -392 26 -415 29 -404 b 42 -357 35 -379 38 -368 b 68 -292 50 -335 58 -312 b 197 -46 107 -207 151 -126 b 486 425 289 114 386 269 b 789 886 586 579 686 733 b 822 893 796 897 811 900 m 672 -383 b 674 -385 674 -385 674 -385 b 672 -383 674 -385 674 -385 "},"M":{"ha":1494,"x_min":0,"x_max":0,"o":"m 1422 517 b 1424 492 1425 508 1424 500 b 1401 399 1421 460 1411 429 b 1368 310 1392 368 1381 339 b 1300 133 1346 250 1321 192 b 1269 44 1289 103 1278 74 b 1260 0 1265 29 1261 14 b 1258 -19 1258 -7 1257 -14 b 1258 -19 1258 -19 1258 -19 b 1267 -47 1267 -25 1271 -36 b 1238 -61 1263 -60 1250 -67 b 1222 -51 1231 -60 1226 -56 b 1218 -44 1219 -49 1219 -47 b 1215 -37 1217 -42 1215 -40 b 1214 -19 1213 -31 1214 -25 b 1219 8 1214 -8 1217 0 b 1236 56 1224 25 1229 40 b 1275 143 1247 86 1261 114 b 1354 315 1301 200 1329 257 b 1389 403 1367 344 1378 374 b 1413 493 1399 432 1408 463 b 1403 531 1414 507 1413 525 b 1383 532 1397 533 1390 533 b 1363 525 1376 531 1369 526 b 1286 471 1335 511 1310 492 b 1160 331 1240 428 1200 379 b 1047 179 1121 282 1085 231 b 847 -140 976 75 908 -32 b 843 -146 846 -143 844 -144 b 813 -156 838 -156 824 -161 b 801 -124 801 -150 796 -136 b 801 -124 801 -124 801 -124 b 824 -79 810 -107 817 -93 l 847 -36 l 893 49 l 985 218 b 1158 563 1044 332 1103 447 b 1238 738 1186 621 1213 679 b 1271 828 1249 768 1261 797 b 1293 917 1281 857 1290 888 b 1293 936 1293 924 1293 931 b 1292 940 1292 938 1292 939 b 1290 942 1292 940 1290 942 b 1290 943 1290 942 1290 943 b 1289 943 1290 943 1289 943 b 1275 940 1288 943 1281 943 b 1256 932 1269 939 1263 935 b 1182 874 1231 915 1206 894 b 1047 736 1135 831 1092 783 b 797 443 961 642 878 543 b 556 142 715 344 635 243 b 183 -349 429 -21 306 -183 l 163 -383 l 114 -467 l 92 -508 l 81 -529 l 76 -539 b 74 -543 75 -540 74 -543 l 74 -544 b 54 -564 72 -554 65 -562 b 26 -544 42 -567 29 -558 b 26 -537 26 -543 26 -540 b 28 -532 26 -535 28 -532 l 29 -526 b 32 -519 31 -524 32 -522 l 39 -508 l 50 -486 l 75 -444 l 124 -361 l 225 -196 b 424 135 292 -86 358 25 b 614 471 489 246 553 357 b 701 642 644 526 675 583 b 739 729 715 671 728 700 b 753 775 744 744 749 760 b 756 796 754 782 756 789 b 754 806 756 800 754 803 b 753 808 754 806 754 807 b 753 810 753 808 753 808 l 751 819 b 758 829 750 824 753 829 b 765 828 761 831 764 829 b 772 819 768 825 771 822 b 776 811 774 817 775 814 b 778 796 778 806 778 801 b 775 769 778 786 776 778 b 761 722 771 753 767 738 b 725 632 750 692 738 661 b 640 457 699 572 669 514 b 454 118 581 343 517 231 b 260 -217 390 6 325 -106 l 214 -296 b 544 151 322 -146 432 3 b 781 457 622 253 701 356 b 1029 754 861 557 943 657 b 1163 894 1072 801 1115 850 b 1240 957 1188 917 1211 939 b 1264 969 1247 961 1256 965 b 1297 972 1274 972 1283 976 b 1307 968 1301 971 1304 969 b 1315 960 1311 965 1313 963 b 1319 951 1318 957 1319 954 b 1322 943 1321 949 1322 946 b 1324 915 1325 933 1325 924 b 1301 817 1321 879 1311 849 b 1268 725 1292 786 1281 756 b 1192 547 1244 665 1218 606 b 1022 199 1138 429 1081 314 l 992 142 b 1031 192 1004 158 1017 175 b 1149 340 1068 243 1107 292 b 1278 479 1189 389 1232 436 b 1357 535 1303 500 1328 521 b 1381 543 1365 538 1372 542 b 1407 540 1389 544 1399 544 b 1422 517 1417 535 1421 525 m 74 -544 b 74 -542 74 -543 74 -542 b 74 -537 75 -540 74 -539 b 74 -544 74 -539 74 -542 m 1258 -22 b 1258 -21 1258 -22 1258 -22 b 1258 -24 1258 -22 1258 -24 b 1258 -22 1258 -24 1258 -24 "},"N":{"ha":1250,"x_min":0,"x_max":0,"o":"m 1425 886 b 1422 871 1425 881 1424 876 b 1404 819 1418 853 1411 836 b 1306 638 1375 756 1340 697 b 1200 461 1271 578 1236 519 b 993 108 1129 343 1058 226 b 901 -74 960 49 928 -12 b 869 -167 889 -104 876 -136 b 867 -208 867 -182 864 -197 b 871 -219 867 -214 869 -218 b 879 -224 872 -221 875 -222 l 881 -224 b 900 -251 893 -225 901 -237 b 872 -271 897 -264 885 -272 b 836 -251 861 -268 846 -264 b 819 -217 826 -240 821 -228 b 824 -157 817 -193 821 -175 b 860 -56 833 -121 846 -87 b 956 129 889 8 921 68 b 1168 481 1022 249 1096 365 b 1275 656 1204 539 1240 597 b 1374 833 1310 714 1346 774 b 1390 879 1381 849 1388 864 b 1392 889 1392 882 1392 886 b 1392 890 1392 889 1392 890 b 1389 889 1392 890 1390 890 b 1347 868 1375 886 1361 876 b 1307 839 1333 858 1321 849 b 1156 701 1254 796 1206 749 b 872 406 1058 606 965 507 b 599 100 779 306 689 203 b 332 -212 508 -3 419 -107 b 90 -511 250 -311 168 -408 l 81 -529 l 76 -539 b 74 -543 75 -540 74 -543 l 74 -544 b 54 -564 72 -554 65 -562 b 26 -544 42 -567 29 -558 b 26 -537 26 -543 26 -540 b 28 -532 26 -535 28 -532 l 29 -526 b 32 -519 31 -524 32 -522 l 39 -508 l 50 -486 l 75 -444 l 124 -361 l 225 -196 b 424 135 292 -86 358 25 b 614 471 489 246 553 357 b 701 642 644 526 675 583 b 739 729 715 671 728 700 b 753 775 744 744 749 760 b 756 796 754 782 756 789 b 754 806 756 800 754 803 b 753 808 754 806 754 807 b 753 810 753 808 753 808 l 750 819 b 758 829 750 824 753 829 b 765 826 761 831 764 829 b 772 819 768 825 771 822 b 776 811 774 817 775 814 b 778 796 778 806 778 800 b 775 769 778 786 776 778 b 761 722 771 753 767 738 b 725 632 750 690 738 661 b 640 457 699 572 669 514 b 454 118 581 343 517 231 b 260 -217 390 6 325 -106 l 163 -383 l 129 -440 b 319 -203 192 -360 256 -282 b 583 113 407 -97 494 8 b 854 422 672 217 763 321 b 1136 722 946 524 1039 625 b 1288 863 1185 771 1233 818 b 1329 894 1301 874 1315 885 b 1379 921 1344 904 1360 914 b 1397 924 1385 922 1390 924 b 1411 919 1401 922 1407 922 b 1421 907 1415 917 1419 911 b 1425 886 1425 899 1425 893 m 74 -544 b 74 -542 74 -543 74 -542 b 74 -537 75 -540 74 -539 b 74 -544 74 -539 74 -542 "},"Ñ":{"ha":1250,"x_min":0,"x_max":0,"o":"m 1425 886 b 1421 907 1425 893 1425 899 b 1411 919 1419 911 1415 917 b 1397 924 1407 922 1401 922 b 1379 921 1390 924 1385 922 b 1329 894 1360 914 1344 904 b 1288 863 1315 885 1301 874 b 1136 722 1233 818 1185 771 b 854 422 1039 625 946 524 b 583 113 763 321 672 217 b 319 -203 494 8 407 -97 b 129 -440 256 -282 192 -360 l 163 -383 l 260 -217 b 454 118 325 -106 390 6 b 640 457 517 231 581 343 b 725 632 669 514 699 572 b 761 722 738 661 750 690 b 775 769 767 738 771 753 b 778 796 776 778 778 786 b 776 811 778 800 778 806 b 772 819 775 814 774 817 b 765 826 771 822 768 825 b 758 829 764 829 761 831 b 750 819 753 829 750 824 l 753 810 b 753 808 753 808 753 808 b 754 806 754 807 754 806 b 756 796 754 803 756 800 b 753 775 756 789 754 782 b 739 729 749 760 744 744 b 701 642 728 700 715 671 b 614 471 675 583 644 526 b 424 135 553 357 489 246 b 225 -196 358 25 292 -86 l 124 -361 l 75 -444 l 50 -486 l 39 -508 l 32 -519 b 29 -526 32 -522 31 -524 l 28 -532 b 26 -537 28 -532 26 -535 b 26 -544 26 -540 26 -543 b 54 -564 29 -558 42 -567 b 74 -544 65 -562 72 -554 l 74 -543 b 76 -539 74 -543 75 -540 l 81 -529 l 90 -511 b 332 -212 168 -408 250 -311 b 599 100 419 -107 508 -3 b 872 406 689 203 779 306 b 1156 701 965 507 1058 606 b 1307 839 1206 749 1254 796 b 1347 868 1321 849 1333 858 b 1389 889 1361 876 1375 886 b 1392 890 1390 890 1392 890 b 1392 889 1392 890 1392 889 b 1390 879 1392 886 1392 882 b 1374 833 1388 864 1381 849 b 1275 656 1346 774 1310 714 b 1168 481 1240 597 1204 539 b 956 129 1096 365 1022 249 b 860 -56 921 68 889 8 b 824 -157 846 -87 833 -121 b 819 -217 821 -175 817 -193 b 836 -251 821 -228 826 -240 b 872 -271 846 -264 861 -268 b 900 -251 885 -272 897 -264 b 881 -224 901 -237 893 -225 l 879 -224 b 871 -219 875 -222 872 -221 b 867 -208 869 -218 867 -214 b 869 -167 864 -197 867 -182 b 901 -74 876 -136 889 -104 b 993 108 928 -12 960 49 b 1200 461 1058 226 1129 343 b 1306 638 1236 519 1271 578 b 1404 819 1340 697 1375 756 b 1422 871 1411 836 1418 853 b 1425 886 1424 876 1425 881 m 74 -544 b 74 -537 74 -542 74 -539 b 74 -542 74 -539 75 -540 b 74 -544 74 -542 74 -543 "},"O":{"ha":1238,"x_min":0,"x_max":0,"o":"m 1189 574 b 1103 278 1174 471 1142 372 b 964 6 1064 183 1017 93 b 789 -246 911 -82 853 -165 b 576 -467 724 -325 654 -400 b 450 -554 536 -499 494 -529 b 301 -604 404 -579 356 -599 b 224 -594 276 -606 249 -603 b 154 -556 197 -586 175 -571 b 65 -428 114 -522 83 -476 b 32 -278 46 -381 36 -329 b 35 -124 28 -226 29 -175 b 104 175 46 -22 71 78 b 233 453 139 271 182 364 b 411 706 283 542 342 626 b 444 708 419 715 435 717 b 447 674 454 699 456 683 b 444 671 446 674 444 672 b 253 442 369 607 306 526 b 122 168 199 356 157 264 b 53 -125 89 74 64 -25 b 50 -276 49 -175 46 -226 b 82 -422 54 -326 63 -375 b 167 -540 100 -468 128 -510 b 229 -576 186 -556 207 -569 b 300 -585 251 -585 276 -586 b 440 -536 349 -581 396 -561 b 563 -450 483 -512 524 -482 b 771 -232 639 -385 708 -310 b 943 18 835 -153 892 -69 b 1081 288 994 104 1042 194 b 1164 576 1118 381 1150 478 b 1167 725 1171 626 1172 676 b 1121 864 1158 774 1144 822 b 1075 917 1108 885 1094 904 b 1013 940 1057 931 1035 939 b 876 900 965 943 918 924 b 653 701 790 849 718 776 b 475 456 586 624 528 542 b 342 185 422 369 376 279 b 303 40 324 138 310 89 b 303 -33 300 15 299 -10 b 331 -97 306 -58 315 -81 b 331 -108 335 -101 335 -106 b 319 -108 328 -112 322 -112 b 286 -36 300 -89 290 -62 b 285 42 282 -10 282 17 b 322 192 290 93 306 143 b 456 468 356 289 403 379 b 633 717 508 556 567 639 b 739 828 667 756 701 793 b 863 922 778 863 818 896 b 933 956 885 936 908 947 b 1014 968 958 964 986 969 b 1092 939 1042 967 1069 956 b 1144 878 1114 924 1131 901 b 1175 806 1158 854 1168 831 b 1193 729 1183 781 1189 754 b 1189 574 1200 676 1197 624 "},"Ò":{"ha":1238,"x_min":0,"x_max":0,"o":"m 1189 574 b 1193 729 1197 624 1200 676 b 1175 806 1189 754 1183 781 b 1144 878 1168 831 1158 854 b 1092 939 1131 901 1114 924 b 1014 968 1069 956 1042 967 b 933 956 986 969 958 964 b 863 922 908 947 885 936 b 739 828 818 896 778 863 b 633 717 701 793 667 756 b 456 468 567 639 508 556 b 322 192 403 379 356 289 b 285 42 306 143 290 93 b 286 -36 282 17 282 -10 b 319 -108 290 -62 300 -89 b 331 -108 322 -112 328 -112 b 331 -97 335 -106 335 -101 b 303 -33 315 -81 306 -58 b 303 40 299 -10 300 15 b 342 185 310 89 324 138 b 475 456 376 279 422 369 b 653 701 528 542 586 624 b 876 900 718 776 790 849 b 1013 940 918 924 965 943 b 1075 917 1035 939 1057 931 b 1121 864 1094 904 1108 885 b 1167 725 1144 822 1158 774 b 1164 576 1172 676 1171 626 b 1081 288 1150 478 1118 381 b 943 18 1042 194 994 104 b 771 -232 892 -69 835 -153 b 563 -450 708 -310 639 -385 b 440 -536 524 -482 483 -512 b 300 -585 396 -561 349 -581 b 229 -576 276 -586 251 -585 b 167 -540 207 -569 186 -556 b 82 -422 128 -510 100 -468 b 50 -276 63 -375 54 -326 b 53 -125 46 -226 49 -175 b 122 168 64 -25 89 74 b 253 442 157 264 199 356 b 444 671 306 526 369 607 b 447 674 444 672 446 674 b 444 708 456 683 454 699 b 411 706 435 717 419 715 b 233 453 342 626 283 542 b 104 175 182 364 139 271 b 35 -124 71 78 46 -22 b 32 -278 29 -175 28 -226 b 65 -428 36 -329 46 -381 b 154 -556 83 -476 114 -522 b 224 -594 175 -571 197 -586 b 301 -604 249 -603 276 -606 b 450 -554 356 -599 404 -579 b 576 -467 494 -529 536 -499 b 789 -246 654 -400 724 -325 b 964 6 853 -165 911 -82 b 1103 278 1017 93 1064 183 b 1189 574 1142 372 1174 471 "},"Ó":{"ha":1238,"x_min":0,"x_max":0,"o":"m 1189 574 b 1103 278 1174 471 1142 372 b 964 6 1064 183 1017 93 b 789 -246 911 -82 853 -165 b 576 -467 724 -325 654 -400 b 450 -554 536 -499 494 -529 b 301 -604 404 -579 356 -599 b 224 -594 276 -606 249 -603 b 154 -556 197 -586 175 -571 b 65 -428 114 -522 83 -476 b 32 -278 46 -381 36 -329 b 35 -124 28 -226 29 -175 b 104 175 46 -22 71 78 b 233 453 139 271 182 364 b 411 706 283 542 342 626 b 444 708 419 715 435 717 b 447 674 454 699 456 683 b 444 671 446 674 444 672 b 253 442 369 607 306 526 b 122 168 199 356 157 264 b 53 -125 89 74 64 -25 b 50 -276 49 -175 46 -226 b 82 -422 54 -326 63 -375 b 167 -540 100 -468 128 -510 b 229 -576 186 -556 207 -569 b 300 -585 251 -585 276 -586 b 440 -536 349 -581 396 -561 b 563 -450 483 -512 524 -482 b 771 -232 639 -385 708 -310 b 943 18 835 -153 892 -69 b 1081 288 994 104 1042 194 b 1164 576 1118 381 1150 478 b 1167 725 1171 626 1172 676 b 1121 864 1158 774 1144 822 b 1075 917 1108 885 1094 904 b 1013 940 1057 931 1035 939 b 876 900 965 943 918 924 b 653 701 790 849 718 776 b 475 456 586 624 528 542 b 342 185 422 369 376 279 b 303 40 324 138 310 89 b 303 -33 300 15 299 -10 b 331 -97 306 -58 315 -81 b 331 -108 335 -101 335 -106 b 319 -108 328 -112 322 -112 b 286 -36 300 -89 290 -62 b 285 42 282 -10 282 17 b 322 192 290 93 306 143 b 456 468 356 289 403 379 b 633 717 508 556 567 639 b 739 828 667 756 701 793 b 863 922 778 863 818 896 b 933 956 885 936 908 947 b 1014 968 958 964 986 969 b 1092 939 1042 967 1069 956 b 1144 878 1114 924 1131 901 b 1175 806 1158 854 1168 831 b 1193 729 1183 781 1189 754 b 1189 574 1200 676 1197 624 "},"Ô":{"ha":1238,"x_min":0,"x_max":0,"o":"m 1189 574 b 1193 729 1197 624 1200 676 b 1175 806 1189 754 1183 781 b 1144 878 1168 831 1158 854 b 1092 939 1131 901 1114 924 b 1014 968 1069 956 1042 967 b 933 956 986 969 958 964 b 863 922 908 947 885 936 b 739 828 818 896 778 863 b 633 717 701 793 667 756 b 456 468 567 639 508 556 b 322 192 403 379 356 289 b 285 42 306 143 290 93 b 286 -36 282 17 282 -10 b 319 -108 290 -62 300 -89 b 331 -108 322 -112 328 -112 b 331 -97 335 -106 335 -101 b 303 -33 315 -81 306 -58 b 303 40 299 -10 300 15 b 342 185 310 89 324 138 b 475 456 376 279 422 369 b 653 701 528 542 586 624 b 876 900 718 776 790 849 b 1013 940 918 924 965 943 b 1075 917 1035 939 1057 931 b 1121 864 1094 904 1108 885 b 1167 725 1144 822 1158 774 b 1164 576 1172 676 1171 626 b 1081 288 1150 478 1118 381 b 943 18 1042 194 994 104 b 771 -232 892 -69 835 -153 b 563 -450 708 -310 639 -385 b 440 -536 524 -482 483 -512 b 300 -585 396 -561 349 -581 b 229 -576 276 -586 251 -585 b 167 -540 207 -569 186 -556 b 82 -422 128 -510 100 -468 b 50 -276 63 -375 54 -326 b 53 -125 46 -226 49 -175 b 122 168 64 -25 89 74 b 253 442 157 264 199 356 b 444 671 306 526 369 607 b 447 674 444 672 446 674 b 444 708 456 683 454 699 b 411 706 435 717 419 715 b 233 453 342 626 283 542 b 104 175 182 364 139 271 b 35 -124 71 78 46 -22 b 32 -278 29 -175 28 -226 b 65 -428 36 -329 46 -381 b 154 -556 83 -476 114 -522 b 224 -594 175 -571 197 -586 b 301 -604 249 -603 276 -606 b 450 -554 356 -599 404 -579 b 576 -467 494 -529 536 -499 b 789 -246 654 -400 724 -325 b 964 6 853 -165 911 -82 b 1103 278 1017 93 1064 183 b 1189 574 1142 372 1174 471 "},"Õ":{"ha":1238,"x_min":0,"x_max":0,"o":"m 1189 574 b 1103 278 1174 471 1142 372 b 964 6 1064 183 1017 93 b 789 -246 911 -82 853 -165 b 576 -467 724 -325 654 -400 b 450 -554 536 -499 494 -529 b 301 -604 404 -579 356 -599 b 224 -594 276 -606 249 -603 b 154 -556 197 -586 175 -571 b 65 -428 114 -522 83 -476 b 32 -278 46 -381 36 -329 b 35 -124 28 -226 29 -175 b 104 175 46 -22 71 78 b 233 453 139 271 182 364 b 411 706 283 542 342 626 b 444 708 419 715 435 717 b 447 674 454 699 456 683 b 444 671 446 674 444 672 b 253 442 369 607 306 526 b 122 168 199 356 157 264 b 53 -125 89 74 64 -25 b 50 -276 49 -175 46 -226 b 82 -422 54 -326 63 -375 b 167 -540 100 -468 128 -510 b 229 -576 186 -556 207 -569 b 300 -585 251 -585 276 -586 b 440 -536 349 -581 396 -561 b 563 -450 483 -512 524 -482 b 771 -232 639 -385 708 -310 b 943 18 835 -153 892 -69 b 1081 288 994 104 1042 194 b 1164 576 1118 381 1150 478 b 1167 725 1171 626 1172 676 b 1121 864 1158 774 1144 822 b 1075 917 1108 885 1094 904 b 1013 940 1057 931 1035 939 b 876 900 965 943 918 924 b 653 701 790 849 718 776 b 475 456 586 624 528 542 b 342 185 422 369 376 279 b 303 40 324 138 310 89 b 303 -33 300 15 299 -10 b 331 -97 306 -58 315 -81 b 331 -108 335 -101 335 -106 b 319 -108 328 -112 322 -112 b 286 -36 300 -89 290 -62 b 285 42 282 -10 282 17 b 322 192 290 93 306 143 b 456 468 356 289 403 379 b 633 717 508 556 567 639 b 739 828 667 756 701 793 b 863 922 778 863 818 896 b 933 956 885 936 908 947 b 1014 968 958 964 986 969 b 1092 939 1042 967 1069 956 b 1144 878 1114 924 1131 901 b 1175 806 1158 854 1168 831 b 1193 729 1183 781 1189 754 b 1189 574 1200 676 1197 624 "},"Ö":{"ha":1238,"x_min":0,"x_max":0,"o":"m 1189 574 b 1193 729 1197 624 1200 676 b 1175 806 1189 754 1183 781 b 1144 878 1168 831 1158 854 b 1092 939 1131 901 1114 924 b 1014 968 1069 956 1042 967 b 933 956 986 969 958 964 b 863 922 908 947 885 936 b 739 828 818 896 778 863 b 633 717 701 793 667 756 b 456 468 567 639 508 556 b 322 192 403 379 356 289 b 285 42 306 143 290 93 b 286 -36 282 17 282 -10 b 319 -108 290 -62 300 -89 b 331 -108 322 -112 328 -112 b 331 -97 335 -106 335 -101 b 303 -33 315 -81 306 -58 b 303 40 299 -10 300 15 b 342 185 310 89 324 138 b 475 456 376 279 422 369 b 653 701 528 542 586 624 b 876 900 718 776 790 849 b 1013 940 918 924 965 943 b 1075 917 1035 939 1057 931 b 1121 864 1094 904 1108 885 b 1167 725 1144 822 1158 774 b 1164 576 1172 676 1171 626 b 1081 288 1150 478 1118 381 b 943 18 1042 194 994 104 b 771 -232 892 -69 835 -153 b 563 -450 708 -310 639 -385 b 440 -536 524 -482 483 -512 b 300 -585 396 -561 349 -581 b 229 -576 276 -586 251 -585 b 167 -540 207 -569 186 -556 b 82 -422 128 -510 100 -468 b 50 -276 63 -375 54 -326 b 53 -125 46 -226 49 -175 b 122 168 64 -25 89 74 b 253 442 157 264 199 356 b 444 671 306 526 369 607 b 447 674 444 672 446 674 b 444 708 456 683 454 699 b 411 706 435 717 419 715 b 233 453 342 626 283 542 b 104 175 182 364 139 271 b 35 -124 71 78 46 -22 b 32 -278 29 -175 28 -226 b 65 -428 36 -329 46 -381 b 154 -556 83 -476 114 -522 b 224 -594 175 -571 197 -586 b 301 -604 249 -603 276 -606 b 450 -554 356 -599 404 -579 b 576 -467 494 -529 536 -499 b 789 -246 654 -400 724 -325 b 964 6 853 -165 911 -82 b 1103 278 1017 93 1064 183 b 1189 574 1142 372 1174 471 "},"Ø":{"ha":1238,"x_min":0,"x_max":0,"o":"m 1189 574 b 1103 278 1174 471 1142 372 b 964 6 1064 183 1017 93 b 789 -246 911 -82 853 -165 b 576 -467 724 -325 654 -400 b 450 -554 536 -499 494 -529 b 301 -604 404 -579 356 -599 b 224 -594 276 -606 249 -603 b 154 -556 197 -586 175 -571 b 65 -428 114 -522 83 -476 b 32 -278 46 -381 36 -329 b 35 -124 28 -226 29 -175 b 104 175 46 -22 71 78 b 233 453 139 271 182 364 b 411 706 283 542 342 626 b 444 708 419 715 435 717 b 447 674 454 699 456 683 b 444 671 446 674 444 672 b 253 442 369 607 306 526 b 122 168 199 356 157 264 b 53 -125 89 74 64 -25 b 50 -276 49 -175 46 -226 b 82 -422 54 -326 63 -375 b 167 -540 100 -468 128 -510 b 229 -576 186 -556 207 -569 b 300 -585 251 -585 276 -586 b 440 -536 349 -581 396 -561 b 563 -450 483 -512 524 -482 b 771 -232 639 -385 708 -310 b 943 18 835 -153 892 -69 b 1081 288 994 104 1042 194 b 1164 576 1118 381 1150 478 b 1167 725 1171 626 1172 676 b 1121 864 1158 774 1144 822 b 1075 917 1108 885 1094 904 b 1013 940 1057 931 1035 939 b 876 900 965 943 918 924 b 653 701 790 849 718 776 b 475 456 586 624 528 542 b 342 185 422 369 376 279 b 303 40 324 138 310 89 b 303 -33 300 15 299 -10 b 331 -97 306 -58 315 -81 b 331 -108 335 -101 335 -106 b 319 -108 328 -112 322 -112 b 286 -36 300 -89 290 -62 b 285 42 282 -10 282 17 b 322 192 290 93 306 143 b 456 468 356 289 403 379 b 633 717 508 556 567 639 b 739 828 667 756 701 793 b 863 922 778 863 818 896 b 933 956 885 936 908 947 b 1014 968 958 964 986 969 b 1092 939 1042 967 1069 956 b 1144 878 1114 924 1131 901 b 1175 806 1158 854 1168 831 b 1193 729 1183 781 1189 754 b 1189 574 1200 676 1197 624 "},"P":{"ha":1479,"x_min":0,"x_max":0,"o":"m 1496 247 b 1499 244 1497 247 1499 246 b 1496 243 1499 244 1497 243 b 1158 217 1383 239 1269 232 b 1006 38 1110 154 1060 94 b 781 -157 938 -33 864 -103 b 643 -219 739 -183 693 -207 b 606 -225 632 -222 618 -224 b 586 -226 600 -226 593 -226 b 567 -224 581 -225 574 -225 b 501 -179 542 -217 517 -203 b 490 -103 486 -157 485 -128 b 521 -32 496 -78 507 -54 b 632 68 550 10 590 42 b 908 178 718 121 813 153 b 1133 221 982 197 1057 211 b 1176 281 1147 240 1163 261 b 1335 529 1235 360 1288 443 b 1401 660 1358 572 1381 615 b 1450 797 1421 704 1439 750 b 1463 867 1457 821 1461 844 b 1451 929 1464 890 1461 914 b 1400 951 1442 946 1422 953 b 1367 947 1389 951 1378 950 l 1349 943 l 1332 938 b 1083 792 1242 908 1160 853 b 871 590 1008 731 938 661 b 501 131 738 446 617 290 b 178 -364 388 -31 279 -194 b 171 -371 176 -367 174 -369 l 164 -383 l 115 -467 l 93 -508 l 82 -529 l 78 -539 b 75 -543 76 -540 75 -543 l 75 -544 b 56 -564 74 -554 67 -562 b 28 -544 43 -567 31 -558 b 28 -537 28 -543 28 -540 b 29 -532 28 -535 29 -532 l 31 -526 b 33 -519 32 -524 33 -522 l 40 -508 l 51 -486 l 76 -444 l 125 -361 l 133 -347 b 136 -339 135 -344 135 -342 l 138 -339 b 203 -233 158 -304 181 -268 l 226 -196 b 425 135 293 -86 360 25 b 615 471 490 246 554 357 b 703 642 646 526 676 583 b 740 729 717 671 729 700 b 754 775 746 744 750 760 b 757 796 756 782 757 789 b 756 806 757 800 756 803 b 754 808 756 806 756 807 b 754 810 754 808 754 808 l 751 819 b 760 829 751 824 754 829 b 767 828 763 831 765 829 b 774 819 769 825 772 822 b 778 811 775 817 776 814 b 779 796 778 806 779 800 b 776 769 779 786 778 778 b 763 722 772 753 768 738 b 726 632 751 690 739 661 b 642 457 700 572 671 514 b 506 207 597 372 551 289 b 843 615 611 349 722 486 b 1063 818 913 688 983 756 b 1322 968 1140 881 1225 938 l 1342 974 l 1360 978 b 1400 983 1372 981 1386 983 b 1442 975 1414 983 1428 981 b 1476 946 1456 969 1469 958 b 1492 865 1493 919 1493 892 b 1478 790 1490 839 1485 814 b 1426 649 1465 740 1446 694 b 1358 517 1406 604 1382 560 b 1196 267 1308 429 1254 347 b 1164 225 1185 253 1175 239 b 1496 247 1274 239 1385 244 m 75 -544 b 75 -542 75 -543 75 -542 b 75 -537 76 -540 75 -539 b 75 -544 75 -539 75 -542 m 990 51 b 1125 213 1039 103 1083 157 b 910 168 1053 201 982 188 b 639 57 815 143 722 110 b 532 -40 599 31 560 0 b 506 -106 519 -60 510 -82 b 514 -171 500 -128 503 -153 b 571 -207 526 -190 549 -203 b 588 -210 576 -208 581 -210 b 604 -208 593 -210 599 -210 b 640 -203 617 -208 628 -206 b 771 -142 686 -192 729 -168 b 990 51 851 -87 924 -19 "},"Q":{"ha":1208,"x_min":0,"x_max":0,"o":"m 1103 915 b 1168 776 1139 875 1157 825 b 1179 625 1182 728 1183 675 b 1154 478 1176 575 1167 526 b 1051 199 1131 382 1093 289 b 907 -60 1008 110 960 24 b 729 -297 853 -143 793 -222 b 658 -374 707 -324 683 -349 b 690 -393 669 -381 681 -386 b 831 -457 736 -417 782 -440 b 903 -475 854 -465 879 -471 b 964 -467 926 -478 951 -476 b 999 -472 975 -458 990 -461 b 993 -506 1006 -482 1003 -497 b 989 -508 992 -507 990 -507 l 986 -508 b 939 -517 969 -515 954 -517 b 896 -511 924 -517 910 -514 b 819 -483 869 -504 844 -494 b 682 -408 771 -461 726 -435 b 647 -386 669 -401 658 -393 b 514 -503 606 -428 561 -467 b 385 -578 474 -532 431 -558 b 235 -601 339 -597 288 -610 b 164 -572 210 -597 185 -587 b 107 -522 142 -558 124 -542 b 46 -385 74 -482 56 -433 b 61 -87 26 -285 39 -185 b 158 193 83 8 118 103 b 301 453 200 282 249 369 b 481 692 356 536 414 617 b 514 694 489 701 504 703 b 517 661 524 686 525 671 b 514 658 515 660 515 658 b 321 440 440 594 376 519 b 176 185 265 360 217 274 b 79 -92 136 96 101 3 b 63 -381 57 -186 44 -286 b 121 -510 72 -428 90 -474 b 174 -557 136 -528 154 -544 b 239 -583 194 -569 215 -579 b 376 -560 285 -590 333 -579 b 501 -486 421 -542 463 -515 b 629 -374 547 -453 589 -414 b 551 -322 603 -357 576 -340 b 488 -276 531 -307 510 -290 b 454 -256 476 -269 465 -262 l 436 -246 b 426 -239 433 -243 429 -242 b 421 -235 425 -237 422 -236 b 417 -228 419 -233 418 -232 l 415 -225 b 414 -217 414 -224 414 -219 b 417 -206 414 -212 414 -211 b 431 -194 419 -200 426 -196 b 461 -211 443 -190 457 -197 b 461 -219 461 -214 461 -217 b 472 -235 464 -225 468 -229 b 499 -262 481 -244 489 -254 b 560 -310 518 -281 539 -296 b 640 -362 586 -328 613 -346 b 713 -283 665 -337 689 -310 b 888 -47 776 -208 835 -129 b 1029 210 940 35 988 121 b 1131 485 1071 299 1106 390 b 1154 628 1142 532 1150 579 b 1143 769 1157 675 1154 724 b 1083 896 1131 817 1114 863 b 1028 935 1068 914 1049 926 b 961 943 1007 943 985 946 b 829 896 915 939 871 919 b 713 810 788 872 749 842 b 519 590 640 744 576 671 b 378 336 463 511 414 426 b 336 196 360 290 344 244 b 339 54 328 149 325 100 b 335 44 340 50 339 46 b 325 49 331 43 326 44 b 318 199 308 99 310 150 b 358 343 325 249 340 297 b 500 604 394 436 444 522 b 696 828 557 685 622 761 b 817 918 733 861 772 893 b 960 969 860 943 907 965 b 1038 960 986 972 1013 969 b 1103 915 1064 951 1086 935 m 457 -208 b 457 -211 456 -208 457 -210 b 460 -218 458 -214 458 -215 b 460 -212 460 -215 460 -212 l 458 -211 b 457 -208 457 -208 457 -208 m 449 -239 b 444 -240 447 -239 446 -240 b 449 -239 446 -240 447 -239 "},"R":{"ha":1329,"x_min":0,"x_max":0,"o":"m 1493 958 b 1521 896 1510 940 1518 917 b 1518 833 1524 874 1522 853 b 1483 719 1513 793 1499 756 b 1428 618 1467 685 1449 650 b 1117 278 1344 486 1238 374 b 714 60 996 183 860 107 b 406 10 614 28 510 11 b 372 -39 394 -7 383 -22 b 476 -117 407 -65 442 -92 b 683 -244 543 -162 613 -207 b 793 -297 719 -264 756 -282 b 908 -335 831 -312 869 -325 b 1028 -350 947 -344 988 -350 b 1144 -324 1068 -349 1108 -342 b 1150 -326 1147 -324 1149 -324 b 1149 -331 1151 -328 1150 -331 b 1028 -362 1111 -350 1069 -360 b 904 -353 986 -365 944 -360 b 785 -318 864 -344 824 -332 b 671 -269 746 -304 708 -287 b 456 -147 596 -233 525 -192 b 347 -74 419 -124 383 -100 b 315 -122 336 -90 326 -106 b 260 -217 297 -154 278 -185 l 163 -383 l 114 -467 l 92 -508 l 81 -529 l 76 -539 b 74 -543 75 -540 75 -543 l 74 -544 b 54 -564 72 -554 65 -562 b 26 -544 42 -567 29 -558 b 26 -537 26 -543 26 -540 b 28 -532 26 -535 28 -532 l 29 -526 b 32 -519 31 -524 32 -522 l 39 -508 l 50 -486 l 75 -444 l 124 -361 l 225 -196 b 314 -49 254 -147 283 -97 b 254 -3 293 -33 274 -18 b 250 31 244 6 243 21 b 285 35 258 42 274 43 b 285 33 285 35 285 33 l 286 33 b 286 32 286 33 286 33 b 360 29 311 31 336 29 b 424 135 381 64 403 100 b 614 471 489 246 553 357 b 701 642 644 526 675 583 b 739 729 715 671 728 700 b 753 775 744 744 749 760 b 756 796 754 782 756 789 b 754 806 756 800 754 803 b 753 808 754 806 754 807 b 753 810 753 808 753 808 l 751 819 b 758 829 750 824 753 829 b 765 828 761 831 764 829 b 772 819 768 825 771 822 b 776 811 774 817 775 814 b 778 796 778 806 778 801 b 775 769 778 786 776 778 b 761 722 771 753 767 738 b 725 632 750 690 738 661 b 640 457 699 572 669 514 b 481 165 589 358 535 261 b 663 407 539 247 600 328 b 972 746 758 526 860 642 b 1153 889 1029 797 1089 847 b 1368 985 1218 932 1288 969 b 1431 988 1388 988 1408 990 b 1493 958 1451 985 1475 975 m 74 -544 b 74 -542 74 -543 74 -542 b 74 -537 75 -540 74 -539 b 74 -544 74 -539 74 -542 m 310 13 b 336 -10 318 6 328 -3 b 349 11 340 -3 344 4 b 310 13 336 11 322 11 m 1481 839 b 1464 931 1486 874 1485 911 b 1375 944 1446 950 1408 951 b 1272 910 1339 939 1304 926 b 1175 856 1239 894 1206 876 b 999 717 1113 815 1054 768 b 690 385 888 615 788 501 b 421 31 596 271 507 151 b 706 86 518 35 614 54 b 1096 304 847 133 979 210 b 1260 458 1156 351 1210 403 b 1396 638 1310 514 1357 574 b 1449 736 1415 669 1433 701 b 1481 839 1463 769 1475 804 "},"S":{"ha":1188,"x_min":0,"x_max":0,"o":"m 1164 965 b 1206 938 1179 961 1196 953 b 1217 889 1215 922 1218 904 b 1208 847 1215 874 1213 860 b 1125 711 1189 796 1158 753 b 1072 653 1108 692 1092 671 b 1043 626 1063 643 1053 635 b 1006 601 1032 618 1021 608 b 974 614 993 596 979 601 b 985 644 968 625 974 639 b 986 646 986 646 986 646 b 1014 663 994 649 1004 656 b 1042 686 1024 669 1032 678 b 1093 739 1060 703 1076 719 b 1171 860 1125 776 1154 817 b 1175 917 1179 882 1183 906 b 1122 936 1168 929 1144 936 b 979 907 1074 936 1026 924 b 706 776 885 872 794 825 b 446 618 617 728 531 675 b 204 435 361 563 279 501 b 151 382 185 418 167 400 b 129 353 143 372 135 363 b 122 326 124 343 119 331 b 150 318 125 321 139 318 b 186 321 163 318 175 319 b 260 339 211 325 235 332 b 563 390 358 364 460 385 b 715 381 614 392 665 390 b 858 322 767 372 817 354 b 943 193 901 292 931 244 b 940 38 954 142 951 89 b 810 -239 918 -64 869 -156 b 593 -457 749 -322 676 -396 b 314 -585 510 -517 415 -564 b 157 -581 263 -594 208 -597 b 86 -539 131 -572 107 -558 b 44 -469 67 -519 51 -496 b 50 -311 28 -417 35 -361 b 121 -171 67 -260 92 -214 b 339 49 181 -85 257 -12 b 606 207 422 110 513 163 b 638 196 617 213 632 207 b 626 164 643 183 638 169 b 625 164 625 164 625 164 b 363 17 533 124 444 75 b 147 -189 281 -40 206 -108 b 79 -319 118 -229 94 -274 b 69 -461 64 -365 57 -415 b 104 -521 76 -483 89 -504 b 164 -557 121 -537 142 -549 b 310 -562 210 -572 261 -571 b 582 -440 407 -544 500 -500 b 796 -229 664 -382 736 -310 b 925 42 854 -147 903 -57 b 928 189 935 90 939 142 b 850 311 917 238 889 282 b 713 367 811 340 763 358 b 563 375 664 375 613 378 b 264 322 463 369 363 349 b 189 304 240 315 215 308 b 150 300 176 303 164 300 b 129 303 143 300 136 301 b 108 317 122 304 114 308 b 106 342 103 325 103 335 b 114 361 107 349 110 356 b 138 393 121 374 129 383 b 192 449 154 413 172 431 b 433 636 268 517 350 578 b 693 800 518 693 604 749 b 968 935 782 850 872 899 b 1122 971 1017 953 1067 969 b 1164 965 1136 971 1150 969 "},"T":{"ha":794,"x_min":0,"x_max":0,"o":"m 1158 922 b 842 911 1053 922 947 918 b 839 897 842 907 840 901 b 819 847 833 879 826 863 b 774 754 806 815 790 785 b 675 574 742 693 710 633 b 471 221 608 456 540 338 b 261 -131 400 104 331 -12 b 160 -307 226 -189 193 -247 b 113 -397 143 -337 128 -367 b 90 -442 104 -411 97 -426 b 82 -464 88 -450 85 -457 b 78 -475 81 -468 79 -471 l 78 -479 b 76 -481 76 -481 76 -481 l 75 -489 b 46 -504 71 -501 58 -507 b 29 -479 35 -500 28 -490 b 39 -447 31 -462 35 -456 b 50 -422 42 -439 46 -431 b 75 -376 58 -407 67 -392 b 126 -287 92 -347 110 -317 l 229 -122 b 231 -115 229 -119 231 -117 b 232 -114 231 -115 232 -115 b 364 144 281 -31 325 56 b 453 419 403 233 436 325 b 461 492 458 443 460 467 l 463 528 b 460 563 463 539 460 551 b 408 693 454 610 439 657 b 356 739 394 711 375 726 b 290 768 336 751 314 761 b 219 779 268 774 244 778 b 150 769 196 781 171 778 b 140 769 146 768 143 768 b 117 782 131 768 121 774 b 128 814 111 794 115 808 b 129 815 128 814 129 815 b 468 897 240 857 354 879 b 640 921 525 907 583 915 b 799 938 693 928 746 933 b 799 938 799 939 799 939 b 804 971 792 949 793 964 b 838 965 815 979 829 976 b 843 954 840 963 842 958 b 844 943 844 950 844 947 b 844 942 844 943 844 942 b 1157 957 949 949 1053 954 b 1331 960 1215 960 1272 960 b 1418 958 1360 960 1389 960 b 1461 957 1432 958 1447 958 b 1483 956 1468 957 1476 956 b 1496 954 1488 954 1492 954 b 1504 951 1499 953 1500 953 b 1507 950 1504 951 1506 951 b 1513 949 1508 950 1510 950 b 1517 944 1513 949 1515 946 b 1521 939 1518 943 1518 943 b 1524 931 1522 936 1524 933 b 1522 919 1524 926 1524 924 b 1518 913 1522 917 1519 913 b 1513 906 1517 910 1515 908 b 1483 908 1504 900 1492 901 b 1478 908 1482 908 1481 908 b 1457 911 1471 910 1464 911 b 1415 915 1443 914 1429 914 b 1329 919 1388 918 1358 919 b 1158 922 1272 922 1215 922 m 786 860 b 799 907 792 875 796 892 b 799 908 799 907 799 907 b 643 893 747 904 694 899 b 474 868 586 886 531 878 b 307 829 418 858 361 844 b 226 804 279 822 253 814 b 204 796 218 801 211 799 l 221 793 b 294 781 246 792 271 788 b 363 751 318 774 342 765 b 419 703 385 739 404 722 b 475 565 453 664 469 614 b 478 528 475 553 478 540 l 478 490 b 469 417 475 465 474 442 b 385 136 454 319 422 226 b 375 111 382 128 378 119 b 450 233 400 151 425 193 b 657 585 519 350 590 465 b 749 767 690 644 721 704 b 786 860 763 797 776 828 "},"U":{"ha":1444,"x_min":0,"x_max":0,"o":"m 1533 938 b 1308 593 1453 826 1379 710 b 1099 239 1238 475 1168 357 b 897 -119 1031 121 964 0 b 803 -301 865 -179 833 -240 b 758 -393 788 -332 772 -362 b 739 -440 751 -408 746 -425 b 731 -462 736 -447 733 -456 l 728 -474 b 726 -481 728 -476 728 -479 l 725 -487 b 697 -506 722 -500 710 -508 b 679 -479 685 -503 676 -492 b 682 -461 681 -472 681 -467 l 688 -447 b 697 -422 690 -439 694 -431 b 721 -375 706 -407 713 -390 b 768 -283 736 -344 753 -314 b 869 -104 801 -224 836 -164 b 1078 251 939 15 1008 132 l 1289 604 b 1399 792 1326 667 1363 729 b 1379 768 1392 783 1386 776 l 1243 594 b 969 247 1151 479 1061 363 b 686 -93 878 132 783 19 b 378 -410 589 -203 490 -312 b 290 -479 350 -435 321 -458 b 192 -532 260 -500 228 -519 b 135 -539 174 -537 153 -540 b 78 -526 115 -539 96 -536 b 36 -483 60 -518 44 -503 b 26 -426 29 -465 26 -446 b 47 -317 26 -389 36 -351 b 86 -212 58 -281 72 -246 b 186 -15 117 -144 150 -79 b 415 364 258 114 336 239 b 532 550 456 425 496 488 b 583 647 550 582 568 614 b 606 696 592 663 599 679 b 611 718 608 703 610 711 l 611 719 b 604 731 608 722 606 726 b 622 760 601 743 610 756 b 632 760 628 761 629 760 b 640 757 635 760 638 758 b 653 747 646 756 651 750 b 657 740 654 744 656 743 b 658 736 657 739 657 738 b 660 728 658 733 660 731 b 658 717 660 725 660 721 l 657 708 b 646 679 654 697 650 688 b 621 628 639 661 631 644 b 564 532 603 594 583 563 b 440 347 524 468 482 408 b 203 -24 358 225 276 103 b 101 -219 167 -87 132 -153 b 63 -321 86 -253 74 -286 b 42 -426 51 -356 43 -392 b 50 -478 42 -444 44 -462 b 85 -512 57 -493 69 -506 b 135 -524 100 -521 117 -524 b 186 -517 153 -525 169 -522 b 282 -465 221 -506 251 -486 b 367 -397 311 -444 339 -421 b 672 -79 476 -300 575 -190 b 949 264 768 32 858 147 b 1215 615 1039 381 1128 497 l 1347 793 b 1415 881 1369 822 1392 851 b 1450 924 1426 896 1439 910 b 1469 946 1457 932 1463 939 b 1481 957 1474 949 1478 953 b 1489 963 1483 958 1486 960 b 1493 965 1489 963 1492 964 b 1494 967 1493 965 1494 965 b 1525 972 1501 975 1514 978 b 1535 940 1536 967 1540 951 b 1533 938 1533 939 1533 938 "},"Ù":{"ha":1444,"x_min":0,"x_max":0,"o":"m 1533 938 b 1535 940 1533 938 1533 939 b 1525 972 1540 951 1536 967 b 1494 967 1514 978 1501 975 b 1493 965 1494 965 1493 965 b 1489 963 1492 964 1489 963 b 1481 957 1486 960 1483 958 b 1469 946 1478 953 1474 949 b 1450 924 1463 939 1457 932 b 1415 881 1439 910 1426 896 b 1347 793 1392 851 1369 822 l 1215 615 b 949 264 1128 497 1039 381 b 672 -79 858 147 768 32 b 367 -397 575 -190 476 -300 b 282 -465 339 -421 311 -444 b 186 -517 251 -486 221 -506 b 135 -524 169 -522 153 -525 b 85 -512 117 -524 100 -521 b 50 -478 69 -506 57 -493 b 42 -426 44 -462 42 -444 b 63 -321 43 -392 51 -356 b 101 -219 74 -286 86 -253 b 203 -24 132 -153 167 -87 b 440 347 276 103 358 225 b 564 532 482 408 524 468 b 621 628 583 563 603 594 b 646 679 631 644 639 661 b 657 708 650 688 654 697 l 658 717 b 660 728 660 721 660 725 b 658 736 660 731 658 733 b 657 740 657 738 657 739 b 653 747 656 743 654 744 b 640 757 651 750 646 756 b 632 760 638 758 635 760 b 622 760 629 760 628 761 b 604 731 610 756 601 743 b 611 719 606 726 608 722 l 611 718 b 606 696 610 711 608 703 b 583 647 599 679 592 663 b 532 550 568 614 550 582 b 415 364 496 488 456 425 b 186 -15 336 239 258 114 b 86 -212 150 -79 117 -144 b 47 -317 72 -246 58 -281 b 26 -426 36 -351 26 -389 b 36 -483 26 -446 29 -465 b 78 -526 44 -503 60 -518 b 135 -539 96 -536 115 -539 b 192 -532 153 -540 174 -537 b 290 -479 228 -519 260 -500 b 378 -410 321 -458 350 -435 b 686 -93 490 -312 589 -203 b 969 247 783 19 878 132 b 1243 594 1061 363 1151 479 l 1379 768 b 1399 792 1386 776 1392 783 b 1289 604 1363 729 1326 667 l 1078 251 b 869 -104 1008 132 939 15 b 768 -283 836 -164 801 -224 b 721 -375 753 -314 736 -344 b 697 -422 713 -390 706 -407 b 688 -447 694 -431 690 -439 l 682 -461 b 679 -479 681 -467 681 -472 b 697 -506 676 -492 685 -503 b 725 -487 710 -508 722 -500 l 726 -481 b 728 -474 728 -479 728 -476 l 731 -462 b 739 -440 733 -456 736 -447 b 758 -393 746 -425 751 -408 b 803 -301 772 -362 788 -332 b 897 -119 833 -240 865 -179 b 1099 239 964 0 1031 121 b 1308 593 1168 357 1238 475 b 1533 938 1379 710 1453 826 "},"Ú":{"ha":1444,"x_min":0,"x_max":0,"o":"m 1533 938 b 1308 593 1453 826 1379 710 b 1099 239 1238 475 1168 357 b 897 -119 1031 121 964 0 b 803 -301 865 -179 833 -240 b 758 -393 788 -332 772 -362 b 739 -440 751 -408 746 -425 b 731 -462 736 -447 733 -456 l 728 -474 b 726 -481 728 -476 728 -479 l 725 -487 b 697 -506 722 -500 710 -508 b 679 -479 685 -503 676 -492 b 682 -461 681 -472 681 -467 l 688 -447 b 697 -422 690 -439 694 -431 b 721 -375 706 -407 713 -390 b 768 -283 736 -344 753 -314 b 869 -104 801 -224 836 -164 b 1078 251 939 15 1008 132 l 1289 604 b 1399 792 1326 667 1363 729 b 1379 768 1392 783 1386 776 l 1243 594 b 969 247 1151 479 1061 363 b 686 -93 878 132 783 19 b 378 -410 589 -203 490 -312 b 290 -479 350 -435 321 -458 b 192 -532 260 -500 228 -519 b 135 -539 174 -537 153 -540 b 78 -526 115 -539 96 -536 b 36 -483 60 -518 44 -503 b 26 -426 29 -465 26 -446 b 47 -317 26 -389 36 -351 b 86 -212 58 -281 72 -246 b 186 -15 117 -144 150 -79 b 415 364 258 114 336 239 b 532 550 456 425 496 488 b 583 647 550 582 568 614 b 606 696 592 663 599 679 b 611 718 608 703 610 711 l 611 719 b 604 731 608 722 606 726 b 622 760 601 743 610 756 b 632 760 628 761 629 760 b 640 757 635 760 638 758 b 653 747 646 756 651 750 b 657 740 654 744 656 743 b 658 736 657 739 657 738 b 660 728 658 733 660 731 b 658 717 660 725 660 721 l 657 708 b 646 679 654 697 650 688 b 621 628 639 661 631 644 b 564 532 603 594 583 563 b 440 347 524 468 482 408 b 203 -24 358 225 276 103 b 101 -219 167 -87 132 -153 b 63 -321 86 -253 74 -286 b 42 -426 51 -356 43 -392 b 50 -478 42 -444 44 -462 b 85 -512 57 -493 69 -506 b 135 -524 100 -521 117 -524 b 186 -517 153 -525 169 -522 b 282 -465 221 -506 251 -486 b 367 -397 311 -444 339 -421 b 672 -79 476 -300 575 -190 b 949 264 768 32 858 147 b 1215 615 1039 381 1128 497 l 1347 793 b 1415 881 1369 822 1392 851 b 1450 924 1426 896 1439 910 b 1469 946 1457 932 1463 939 b 1481 957 1474 949 1478 953 b 1489 963 1483 958 1486 960 b 1493 965 1489 963 1492 964 b 1494 967 1493 965 1494 965 b 1525 972 1501 975 1514 978 b 1535 940 1536 967 1540 951 b 1533 938 1533 939 1533 938 "},"Û":{"ha":1444,"x_min":0,"x_max":0,"o":"m 1533 938 b 1535 940 1533 938 1533 939 b 1525 972 1540 951 1536 967 b 1494 967 1514 978 1501 975 b 1493 965 1494 965 1493 965 b 1489 963 1492 964 1489 963 b 1481 957 1486 960 1483 958 b 1469 946 1478 953 1474 949 b 1450 924 1463 939 1457 932 b 1415 881 1439 910 1426 896 b 1347 793 1392 851 1369 822 l 1215 615 b 949 264 1128 497 1039 381 b 672 -79 858 147 768 32 b 367 -397 575 -190 476 -300 b 282 -465 339 -421 311 -444 b 186 -517 251 -486 221 -506 b 135 -524 169 -522 153 -525 b 85 -512 117 -524 100 -521 b 50 -478 69 -506 57 -493 b 42 -426 44 -462 42 -444 b 63 -321 43 -392 51 -356 b 101 -219 74 -286 86 -253 b 203 -24 132 -153 167 -87 b 440 347 276 103 358 225 b 564 532 482 408 524 468 b 621 628 583 563 603 594 b 646 679 631 644 639 661 b 657 708 650 688 654 697 l 658 717 b 660 728 660 721 660 725 b 658 736 660 731 658 733 b 657 740 657 738 657 739 b 653 747 656 743 654 744 b 640 757 651 750 646 756 b 632 760 638 758 635 760 b 622 760 629 760 628 761 b 604 731 610 756 601 743 b 611 719 606 726 608 722 l 611 718 b 606 696 610 711 608 703 b 583 647 599 679 592 663 b 532 550 568 614 550 582 b 415 364 496 488 456 425 b 186 -15 336 239 258 114 b 86 -212 150 -79 117 -144 b 47 -317 72 -246 58 -281 b 26 -426 36 -351 26 -389 b 36 -483 26 -446 29 -465 b 78 -526 44 -503 60 -518 b 135 -539 96 -536 115 -539 b 192 -532 153 -540 174 -537 b 290 -479 228 -519 260 -500 b 378 -410 321 -458 350 -435 b 686 -93 490 -312 589 -203 b 969 247 783 19 878 132 b 1243 594 1061 363 1151 479 l 1379 768 b 1399 792 1386 776 1392 783 b 1289 604 1363 729 1326 667 l 1078 251 b 869 -104 1008 132 939 15 b 768 -283 836 -164 801 -224 b 721 -375 753 -314 736 -344 b 697 -422 713 -390 706 -407 b 688 -447 694 -431 690 -439 l 682 -461 b 679 -479 681 -467 681 -472 b 697 -506 676 -492 685 -503 b 725 -487 710 -508 722 -500 l 726 -481 b 728 -474 728 -479 728 -476 l 731 -462 b 739 -440 733 -456 736 -447 b 758 -393 746 -425 751 -408 b 803 -301 772 -362 788 -332 b 897 -119 833 -240 865 -179 b 1099 239 964 0 1031 121 b 1308 593 1168 357 1238 475 b 1533 938 1379 710 1453 826 "},"Ü":{"ha":1444,"x_min":0,"x_max":0,"o":"m 1533 938 b 1308 593 1453 826 1379 710 b 1099 239 1238 475 1168 357 b 897 -119 1031 121 964 0 b 803 -301 865 -179 833 -240 b 758 -393 788 -332 772 -362 b 739 -440 751 -408 746 -425 b 731 -462 736 -447 733 -456 l 728 -474 b 726 -481 728 -476 728 -479 l 725 -487 b 697 -506 722 -500 710 -508 b 679 -479 685 -503 676 -492 b 682 -461 681 -472 681 -467 l 688 -447 b 697 -422 690 -439 694 -431 b 721 -375 706 -407 713 -390 b 768 -283 736 -344 753 -314 b 869 -104 801 -224 836 -164 b 1078 251 939 15 1008 132 l 1289 604 b 1399 792 1326 667 1363 729 b 1379 768 1392 783 1386 776 l 1243 594 b 969 247 1151 479 1061 363 b 686 -93 878 132 783 19 b 378 -410 589 -203 490 -312 b 290 -479 350 -435 321 -458 b 192 -532 260 -500 228 -519 b 135 -539 174 -537 153 -540 b 78 -526 115 -539 96 -536 b 36 -483 60 -518 44 -503 b 26 -426 29 -465 26 -446 b 47 -317 26 -389 36 -351 b 86 -212 58 -281 72 -246 b 186 -15 117 -144 150 -79 b 415 364 258 114 336 239 b 532 550 456 425 496 488 b 583 647 550 582 568 614 b 606 696 592 663 599 679 b 611 718 608 703 610 711 l 611 719 b 604 731 608 722 606 726 b 622 760 601 743 610 756 b 632 760 628 761 629 760 b 640 757 635 760 638 758 b 653 747 646 756 651 750 b 657 740 654 744 656 743 b 658 736 657 739 657 738 b 660 728 658 733 660 731 b 658 717 660 725 660 721 l 657 708 b 646 679 654 697 650 688 b 621 628 639 661 631 644 b 564 532 603 594 583 563 b 440 347 524 468 482 408 b 203 -24 358 225 276 103 b 101 -219 167 -87 132 -153 b 63 -321 86 -253 74 -286 b 42 -426 51 -356 43 -392 b 50 -478 42 -444 44 -462 b 85 -512 57 -493 69 -506 b 135 -524 100 -521 117 -524 b 186 -517 153 -525 169 -522 b 282 -465 221 -506 251 -486 b 367 -397 311 -444 339 -421 b 672 -79 476 -300 575 -190 b 949 264 768 32 858 147 b 1215 615 1039 381 1128 497 l 1347 793 b 1415 881 1369 822 1392 851 b 1450 924 1426 896 1439 910 b 1469 946 1457 932 1463 939 b 1481 957 1474 949 1478 953 b 1489 963 1483 958 1486 960 b 1493 965 1489 963 1492 964 b 1494 967 1493 965 1494 965 b 1525 972 1501 975 1514 978 b 1535 940 1536 967 1540 951 b 1533 938 1533 939 1533 938 "},"V":{"ha":1119,"x_min":0,"x_max":0,"o":"m 1346 940 b 1346 939 1346 940 1346 940 b 854 231 1185 700 1022 464 b 596 -115 769 114 683 -1 b 317 -446 507 -229 417 -342 b 239 -521 292 -472 267 -497 b 150 -586 211 -544 183 -568 b 93 -600 133 -594 114 -601 b 76 -596 88 -600 82 -599 b 63 -587 72 -593 67 -590 b 44 -562 54 -581 49 -572 b 29 -507 35 -544 31 -526 b 28 -451 26 -489 26 -471 b 63 -237 31 -379 46 -307 b 124 -31 81 -168 101 -99 b 271 376 168 107 218 242 b 436 775 324 510 379 643 b 468 788 442 788 456 793 b 481 757 479 782 485 768 b 479 756 481 756 479 756 b 147 -37 354 497 242 233 b 86 -243 125 -106 104 -174 b 49 -453 68 -312 53 -382 b 50 -506 49 -471 49 -487 b 63 -553 51 -522 56 -539 b 76 -572 67 -560 71 -567 b 85 -578 79 -575 82 -575 b 94 -579 88 -578 92 -579 b 140 -567 108 -581 125 -575 b 225 -506 171 -550 199 -528 b 301 -431 251 -482 276 -456 b 576 -100 400 -326 489 -214 b 831 247 664 13 749 129 b 1306 965 994 482 1154 722 b 1339 974 1313 976 1328 981 b 1346 940 1350 967 1353 951 "},"W":{"ha":1432,"x_min":0,"x_max":0,"o":"m 1378 444 b 1246 210 1336 365 1292 286 b 1106 -21 1200 132 1154 56 b 956 -244 1057 -96 1008 -171 b 790 -457 903 -318 849 -389 b 693 -553 760 -490 729 -524 b 636 -592 676 -568 657 -582 b 600 -603 625 -597 614 -601 b 561 -593 588 -604 572 -601 b 540 -561 550 -585 544 -572 b 529 -528 535 -550 532 -539 b 521 -460 524 -506 521 -482 b 535 -324 519 -414 526 -368 b 617 -67 554 -235 583 -150 b 724 181 649 18 686 100 b 838 424 761 263 801 342 b 864 485 847 444 856 465 b 874 517 868 496 871 506 b 878 546 876 526 879 538 b 876 549 878 547 878 549 b 874 549 876 549 876 549 b 861 544 871 549 865 546 b 833 528 851 539 843 533 b 782 486 815 514 799 500 b 592 297 715 426 653 363 b 413 97 531 232 471 165 b 71 -315 296 -37 182 -175 b 42 -324 65 -325 53 -329 b 26 -301 32 -319 26 -311 b 28 -299 28 -300 28 -299 b 28 -297 28 -299 28 -297 b 32 -287 28 -293 29 -290 b 181 -28 82 -201 132 -114 l 329 236 b 481 499 379 324 428 411 l 519 563 b 554 629 532 585 544 607 b 581 697 565 651 574 674 b 588 731 585 708 586 719 b 589 746 589 736 589 742 b 588 753 589 749 589 751 b 588 754 588 753 588 753 b 588 754 588 754 588 754 b 588 754 588 754 588 754 b 588 756 588 754 588 754 b 588 756 588 756 588 756 b 588 756 588 756 588 756 b 599 786 583 767 588 781 b 631 775 611 792 625 786 b 633 768 633 771 632 769 b 633 764 633 767 633 765 b 635 757 635 761 635 760 b 635 744 635 753 635 749 b 631 722 633 736 632 729 b 618 683 626 710 622 696 b 583 614 607 660 596 636 b 499 486 558 569 528 528 b 343 229 442 404 392 317 b 271 96 318 185 294 140 b 201 -39 247 51 224 7 b 139 -169 181 -82 158 -125 l 214 -86 b 394 114 274 -19 333 47 b 771 497 517 244 638 378 b 825 540 789 513 806 526 b 854 558 833 546 843 553 b 872 564 860 561 865 564 b 886 561 876 564 882 564 b 893 549 890 558 893 553 b 889 513 896 535 892 524 b 879 479 886 501 882 490 b 853 417 871 458 863 438 b 739 174 817 335 776 254 b 633 -72 701 92 665 11 b 554 -328 601 -156 572 -240 b 540 -458 546 -371 539 -415 b 549 -524 540 -481 543 -503 b 558 -554 551 -533 554 -544 b 574 -576 563 -564 567 -571 b 626 -574 588 -587 608 -583 b 681 -537 646 -564 664 -551 b 772 -443 714 -508 744 -476 b 935 -229 831 -375 883 -303 b 1082 -6 986 -157 1035 -82 b 1346 461 1176 146 1264 301 b 1461 703 1386 540 1425 621 b 1510 826 1478 743 1494 785 b 1528 889 1517 847 1522 868 b 1533 919 1531 899 1532 910 b 1533 944 1535 929 1535 939 b 1551 974 1531 957 1539 969 b 1581 956 1564 976 1576 968 b 1581 954 1581 956 1581 954 b 1581 913 1583 938 1582 925 b 1572 876 1578 900 1575 889 b 1551 811 1567 854 1558 832 b 1499 686 1535 768 1517 726 b 1378 444 1461 604 1421 524 "},"X":{"ha":1050,"x_min":0,"x_max":0,"o":"m 1472 926 b 1263 774 1399 882 1331 828 b 1067 601 1196 718 1131 660 b 693 235 938 483 814 361 b 547 78 644 183 596 131 l 554 35 b 568 -46 557 7 563 -19 b 585 -124 572 -72 579 -97 l 594 -162 b 606 -201 599 -176 603 -189 b 736 -493 636 -304 678 -404 b 729 -525 743 -504 740 -518 b 696 -519 718 -533 703 -529 b 694 -517 696 -518 694 -517 b 586 -207 646 -417 613 -312 b 538 67 564 -117 549 -25 b 344 -157 472 -7 407 -81 b 186 -362 290 -224 236 -292 b 115 -472 161 -399 138 -435 b 86 -528 104 -490 94 -510 b 71 -581 78 -546 69 -567 l 71 -582 b 47 -606 71 -594 60 -606 b 22 -582 33 -607 22 -596 b 22 -581 22 -582 22 -581 b 47 -508 25 -550 36 -529 b 82 -451 58 -489 69 -469 b 160 -344 107 -414 133 -379 b 328 -142 214 -275 271 -207 b 535 90 396 -62 464 14 b 532 113 533 97 532 106 b 518 438 521 221 517 329 b 528 600 519 492 522 546 b 533 640 529 614 531 628 b 540 682 535 654 536 668 b 549 722 543 696 546 710 l 563 764 b 593 779 567 776 581 783 b 608 750 606 775 613 763 b 607 746 608 749 607 747 l 606 743 l 589 710 b 575 672 583 697 579 685 b 564 635 571 661 568 647 b 556 596 561 622 558 608 b 543 517 551 569 546 543 b 535 436 540 490 536 464 b 543 114 528 329 531 221 l 544 101 b 681 247 590 150 635 199 b 1049 621 800 374 924 499 b 1240 800 1111 681 1175 740 b 1446 967 1306 858 1372 915 b 1479 961 1457 974 1472 971 b 1474 928 1488 950 1485 935 b 1472 926 1474 926 1472 926 "},"Y":{"ha":1303,"x_min":0,"x_max":0,"o":"m 1315 253 b 1324 246 1319 253 1324 250 b 1318 238 1325 242 1322 239 b 989 181 1207 225 1097 206 b 936 83 972 147 954 115 b 667 -307 858 -54 771 -186 b 497 -475 615 -367 560 -424 b 292 -597 436 -525 368 -568 b 175 -624 254 -611 215 -619 b 113 -619 154 -625 133 -625 b 57 -585 92 -614 72 -603 b 32 -528 43 -569 35 -547 b 32 -465 28 -507 29 -485 b 74 -351 39 -425 54 -386 b 225 -167 113 -281 167 -221 b 417 -26 283 -114 349 -67 b 851 160 553 54 700 114 b 961 189 888 169 925 179 b 1113 522 1018 297 1068 408 b 1186 746 1140 596 1165 671 b 1225 921 1203 804 1217 863 b 1214 910 1222 917 1218 913 b 1168 863 1199 894 1183 879 l 1079 768 l 900 576 b 715 389 839 513 778 450 b 522 213 654 328 589 268 b 414 136 488 185 451 158 b 385 121 404 131 394 125 l 368 114 b 353 108 364 111 358 110 b 318 101 342 104 331 104 b 283 106 307 101 296 103 b 254 128 272 110 261 118 b 243 163 247 139 243 151 b 250 231 240 186 244 208 b 294 354 260 274 276 314 b 419 586 332 435 375 511 b 488 699 442 624 465 661 b 558 810 511 736 535 772 b 592 817 567 821 581 824 b 599 783 603 810 607 794 b 597 782 599 783 599 782 b 518 678 571 749 544 713 b 444 571 493 643 468 607 b 375 461 419 535 396 499 b 313 346 353 424 331 386 b 265 226 293 307 276 268 b 258 164 260 206 257 185 b 289 121 260 144 269 126 b 318 117 297 118 308 117 b 349 124 328 118 339 119 b 363 128 353 125 358 126 l 378 135 b 406 150 388 139 396 144 b 511 225 443 171 478 197 b 703 403 579 279 642 340 b 881 594 764 464 822 529 b 1053 790 939 660 996 724 l 1139 890 l 1182 940 b 1206 964 1190 949 1197 956 b 1218 976 1210 968 1214 972 l 1225 983 b 1238 990 1229 986 1233 989 b 1246 993 1240 992 1243 993 b 1258 996 1249 994 1254 996 b 1281 969 1272 994 1282 982 b 1281 968 1281 968 1281 968 b 1222 735 1267 888 1246 811 b 1142 511 1197 660 1171 585 b 999 197 1099 404 1051 300 b 1315 253 1103 221 1210 239 m 913 97 b 953 171 926 122 939 146 b 856 144 919 163 888 154 b 425 -40 706 100 558 42 b 236 -181 358 -81 294 -128 b 90 -361 179 -233 128 -293 b 51 -468 72 -394 57 -431 b 74 -572 46 -506 50 -546 b 172 -603 96 -599 136 -607 b 285 -576 211 -599 249 -589 b 483 -457 357 -549 422 -506 b 649 -292 543 -407 597 -350 b 913 97 749 -172 836 -40 "},"Ý":{"ha":1303,"x_min":0,"x_max":0,"o":"m 1315 253 b 999 197 1210 239 1103 221 b 1142 511 1051 300 1099 404 b 1222 735 1171 585 1197 660 b 1281 968 1246 811 1267 888 b 1281 969 1281 968 1281 968 b 1258 996 1282 982 1272 994 b 1246 993 1254 996 1249 994 b 1238 990 1243 993 1240 992 b 1225 983 1233 989 1229 986 l 1218 976 b 1206 964 1214 972 1210 968 b 1182 940 1197 956 1190 949 l 1139 890 l 1053 790 b 881 594 996 724 939 660 b 703 403 822 529 764 464 b 511 225 642 340 579 279 b 406 150 478 197 443 171 b 378 135 396 144 388 139 l 363 128 b 349 124 358 126 353 125 b 318 117 339 119 328 118 b 289 121 308 117 297 118 b 258 164 269 126 260 144 b 265 226 257 185 260 206 b 313 346 276 268 293 307 b 375 461 331 386 353 424 b 444 571 396 499 419 535 b 518 678 468 607 493 643 b 597 782 544 713 571 749 b 599 783 599 782 599 783 b 592 817 607 794 603 810 b 558 810 581 824 567 821 b 488 699 535 772 511 736 b 419 586 465 661 442 624 b 294 354 375 511 332 435 b 250 231 276 314 260 274 b 243 163 244 208 240 186 b 254 128 243 151 247 139 b 283 106 261 118 272 110 b 318 101 296 103 307 101 b 353 108 331 104 342 104 b 368 114 358 110 364 111 l 385 121 b 414 136 394 125 404 131 b 522 213 451 158 488 185 b 715 389 589 268 654 328 b 900 576 778 450 839 513 l 1079 768 l 1168 863 b 1214 910 1183 879 1199 894 b 1225 921 1218 913 1222 917 b 1186 746 1217 863 1203 804 b 1113 522 1165 671 1140 596 b 961 189 1068 408 1018 297 b 851 160 925 179 888 169 b 417 -26 700 114 553 54 b 225 -167 349 -67 283 -114 b 74 -351 167 -221 113 -281 b 32 -465 54 -386 39 -425 b 32 -528 29 -485 28 -507 b 57 -585 35 -547 43 -569 b 113 -619 72 -603 92 -614 b 175 -624 133 -625 154 -625 b 292 -597 215 -619 254 -611 b 497 -475 368 -568 436 -525 b 667 -307 560 -424 615 -367 b 936 83 771 -186 858 -54 b 989 181 954 115 972 147 b 1318 238 1097 206 1207 225 b 1324 246 1322 239 1325 242 b 1315 253 1324 250 1319 253 m 913 97 b 649 -292 836 -40 749 -172 b 483 -457 597 -350 543 -407 b 285 -576 422 -506 357 -549 b 172 -603 249 -589 211 -599 b 74 -572 136 -607 96 -599 b 51 -468 50 -546 46 -506 b 90 -361 57 -431 72 -394 b 236 -181 128 -293 179 -233 b 425 -40 294 -128 358 -81 b 856 144 558 42 706 100 b 953 171 888 154 919 163 b 913 97 939 146 926 122 "},"Ÿ":{"ha":1303,"x_min":0,"x_max":0,"o":"m 1315 253 b 1324 246 1319 253 1324 250 b 1318 238 1325 242 1322 239 b 989 181 1207 225 1097 206 b 936 83 972 147 954 115 b 667 -307 858 -54 771 -186 b 497 -475 615 -367 560 -424 b 292 -597 436 -525 368 -568 b 175 -624 254 -611 215 -619 b 113 -619 154 -625 133 -625 b 57 -585 92 -614 72 -603 b 32 -528 43 -569 35 -547 b 32 -465 28 -507 29 -485 b 74 -351 39 -425 54 -386 b 225 -167 113 -281 167 -221 b 417 -26 283 -114 349 -67 b 851 160 553 54 700 114 b 961 189 888 169 925 179 b 1113 522 1018 297 1068 408 b 1186 746 1140 596 1165 671 b 1225 921 1203 804 1217 863 b 1214 910 1222 917 1218 913 b 1168 863 1199 894 1183 879 l 1079 768 l 900 576 b 715 389 839 513 778 450 b 522 213 654 328 589 268 b 414 136 488 185 451 158 b 385 121 404 131 394 125 l 368 114 b 353 108 364 111 358 110 b 318 101 342 104 331 104 b 283 106 307 101 296 103 b 254 128 272 110 261 118 b 243 163 247 139 243 151 b 250 231 240 186 244 208 b 294 354 260 274 276 314 b 419 586 332 435 375 511 b 488 699 442 624 465 661 b 558 810 511 736 535 772 b 592 817 567 821 581 824 b 599 783 603 810 607 794 b 597 782 599 783 599 782 b 518 678 571 749 544 713 b 444 571 493 643 468 607 b 375 461 419 535 396 499 b 313 346 353 424 331 386 b 265 226 293 307 276 268 b 258 164 260 206 257 185 b 289 121 260 144 269 126 b 318 117 297 118 308 117 b 349 124 328 118 339 119 b 363 128 353 125 358 126 l 378 135 b 406 150 388 139 396 144 b 511 225 443 171 478 197 b 703 403 579 279 642 340 b 881 594 764 464 822 529 b 1053 790 939 660 996 724 l 1139 890 l 1182 940 b 1206 964 1190 949 1197 956 b 1218 976 1210 968 1214 972 l 1225 983 b 1238 990 1229 986 1233 989 b 1246 993 1240 992 1243 993 b 1258 996 1249 994 1254 996 b 1281 969 1272 994 1282 982 b 1281 968 1281 968 1281 968 b 1222 735 1267 888 1246 811 b 1142 511 1197 660 1171 585 b 999 197 1099 404 1051 300 b 1315 253 1103 221 1210 239 m 913 97 b 953 171 926 122 939 146 b 856 144 919 163 888 154 b 425 -40 706 100 558 42 b 236 -181 358 -81 294 -128 b 90 -361 179 -233 128 -293 b 51 -468 72 -394 57 -431 b 74 -572 46 -506 50 -546 b 172 -603 96 -599 136 -607 b 285 -576 211 -599 249 -589 b 483 -457 357 -549 422 -506 b 649 -292 543 -407 597 -350 b 913 97 749 -172 836 -40 "},"Z":{"ha":1104,"x_min":0,"x_max":0,"o":"m 1213 971 b 1214 950 1215 963 1215 956 b 1189 889 1210 926 1199 908 b 1153 835 1178 871 1165 853 b 1075 733 1128 800 1101 767 b 910 536 1022 667 967 601 b 574 151 799 407 686 279 b 244 -240 461 22 350 -107 b 96 -446 192 -307 139 -374 b 68 -501 86 -464 75 -482 b 60 -526 64 -510 60 -519 b 60 -531 60 -528 60 -529 b 60 -532 60 -531 60 -532 b 63 -535 60 -533 61 -533 b 88 -535 68 -536 78 -536 b 117 -528 97 -533 107 -531 b 176 -508 136 -522 156 -515 b 407 -403 254 -478 331 -440 l 638 -290 b 871 -185 714 -253 792 -217 b 993 -142 911 -168 951 -153 b 1058 -131 1014 -136 1036 -132 b 1093 -133 1069 -131 1081 -131 b 1122 -160 1106 -137 1118 -146 b 1117 -171 1124 -164 1121 -169 b 1106 -165 1113 -172 1108 -169 b 1088 -151 1103 -158 1097 -154 b 1060 -150 1079 -149 1069 -149 b 999 -162 1039 -151 1019 -156 b 881 -207 958 -174 919 -190 b 650 -315 803 -240 726 -278 b 421 -431 574 -354 497 -393 b 188 -539 344 -468 268 -507 b 125 -560 167 -546 147 -554 b 92 -567 114 -562 104 -565 b 53 -565 81 -568 68 -569 b 42 -560 49 -564 44 -562 b 36 -554 39 -558 38 -556 b 32 -549 35 -553 33 -550 b 26 -535 28 -544 28 -540 b 26 -524 26 -531 26 -528 b 38 -487 28 -510 33 -499 b 68 -429 46 -467 57 -449 b 221 -221 114 -356 167 -287 b 556 167 328 -87 442 39 b 899 547 671 293 785 419 b 1064 742 954 611 1010 676 b 1142 843 1090 775 1117 808 b 1176 896 1153 861 1165 878 b 1200 953 1186 914 1197 933 b 1199 964 1200 957 1200 961 b 1192 968 1197 965 1196 968 b 1176 968 1188 969 1182 968 b 1161 967 1172 968 1167 968 b 1099 957 1140 965 1119 963 b 978 921 1058 947 1018 935 b 747 813 899 890 821 856 b 539 669 674 771 603 724 b 454 579 508 642 478 613 b 422 529 442 564 431 547 b 411 478 415 511 411 493 l 411 476 b 388 453 411 464 401 453 b 364 475 375 451 364 463 b 364 478 364 476 364 476 b 383 549 364 504 374 528 b 422 604 394 569 408 588 b 518 694 451 639 485 668 b 736 833 586 749 660 793 b 972 938 813 874 890 910 b 1096 974 1013 951 1054 964 b 1160 983 1117 978 1139 981 b 1176 983 1165 983 1171 983 b 1194 983 1182 983 1188 985 b 1213 971 1200 982 1208 978 "},"\\":{"ha":172,"x_min":0,"x_max":0,"o":"m 144 860 b 144 836 146 851 144 843 b 140 794 143 822 142 808 l 133 713 b 121 550 128 658 125 604 l 101 224 l 92 61 b 82 -101 88 7 85 -47 b 76 -264 79 -156 78 -210 l 74 -346 b 74 -386 74 -360 74 -372 b 76 -424 74 -399 75 -414 l 76 -425 b 56 -451 78 -437 68 -450 b 29 -431 43 -453 31 -444 b 28 -429 29 -431 28 -429 b 29 -385 28 -412 29 -399 l 33 -344 l 40 -262 l 57 -100 b 86 225 67 8 78 117 b 111 550 96 333 104 442 b 117 714 115 604 118 660 b 114 794 117 740 117 768 b 110 826 113 806 111 817 b 107 826 108 826 108 826 b 86 854 94 829 85 842 b 90 864 88 858 89 861 l 92 867 b 97 875 93 869 94 872 b 103 881 99 876 100 878 b 106 882 104 882 104 882 b 110 885 107 883 108 885 b 125 886 113 886 121 888 b 132 883 128 886 131 885 b 136 879 135 882 136 881 b 140 874 138 878 140 875 b 143 871 142 872 142 872 l 143 868 b 144 860 144 864 144 863 m 103 851 b 104 850 103 851 104 850 b 104 851 104 850 104 851 b 103 854 104 853 103 854 l 103 853 b 103 851 103 853 103 853 "},"^":{"ha":178,"x_min":0,"x_max":0,"o":"m 149 893 b 150 886 150 892 151 889 b 144 885 149 885 147 883 b 129 893 136 886 133 890 l 117 904 b 106 913 114 907 110 910 b 104 914 106 914 104 914 b 101 914 104 914 103 914 b 78 897 94 910 86 903 b 54 879 71 892 63 885 b 32 881 47 874 38 874 b 35 903 26 888 28 897 b 36 906 35 904 36 904 b 64 919 46 910 56 915 b 94 933 74 925 83 929 b 100 935 96 933 97 935 b 106 935 101 935 104 935 b 110 933 107 935 108 933 b 118 926 114 931 115 929 b 128 914 122 922 125 918 l 138 903 b 146 893 140 899 144 894 l 149 893 m 103 914 b 103 914 103 914 103 914 b 101 915 103 914 101 915 b 103 914 101 915 101 914 "},"a":{"ha":374,"x_min":0,"x_max":0,"o":"m 393 250 b 392 246 394 249 393 247 b 315 189 367 226 342 207 b 232 140 289 171 261 154 b 185 124 217 133 201 126 b 131 124 168 119 150 117 b 106 142 121 126 113 133 b 94 168 100 150 96 160 b 92 188 93 175 92 181 b 19 119 68 164 44 140 b -32 82 4 106 -11 93 b -54 78 -37 81 -43 76 b -64 82 -57 79 -61 81 b -71 92 -67 85 -69 89 b -72 104 -72 97 -72 101 b -61 139 -71 119 -65 128 b 7 243 -44 176 -21 211 b 31 267 14 251 22 260 b 64 285 40 274 49 281 b 76 288 68 286 71 288 b 83 288 79 288 81 288 b 92 286 86 288 89 286 b 106 278 97 285 101 281 b 115 267 110 274 113 269 b 124 244 119 258 121 251 b 125 225 125 238 125 233 b 125 224 125 224 125 224 b 125 217 125 221 126 219 b 125 215 125 217 125 217 b 140 147 118 189 119 156 b 181 146 151 143 165 143 b 224 158 194 147 210 153 b 307 200 253 169 281 185 b 388 251 335 217 361 233 b 393 250 389 253 392 253 m 78 243 b 76 243 76 243 76 243 b 76 243 76 243 76 243 b 78 243 76 243 76 243 m 6 136 b 89 204 35 157 63 181 b 78 224 82 208 78 215 b 78 226 78 225 78 225 b 75 243 78 232 76 242 b 75 243 75 243 75 243 b 75 243 75 243 75 243 b 56 233 71 243 63 239 b 35 217 49 228 42 224 b -35 125 8 190 -17 158 b -43 106 -37 119 -40 111 b -42 106 -43 106 -43 106 b 6 136 -26 113 -10 125 "},"à":{"ha":374,"x_min":0,"x_max":0,"o":"m 393 250 b 388 251 392 253 389 253 b 307 200 361 233 335 217 b 224 158 281 185 253 169 b 181 146 210 153 194 147 b 140 147 165 143 151 143 b 125 215 119 156 118 189 b 125 217 125 217 125 217 b 125 224 126 219 125 221 b 125 225 125 224 125 224 b 124 244 125 233 125 238 b 115 267 121 251 119 258 b 106 278 113 269 110 274 b 92 286 101 281 97 285 b 83 288 89 286 86 288 b 76 288 81 288 79 288 b 64 285 71 288 68 286 b 31 267 49 281 40 274 b 7 243 22 260 14 251 b -61 139 -21 211 -44 176 b -72 104 -65 128 -71 119 b -71 92 -72 101 -72 97 b -64 82 -69 89 -67 85 b -54 78 -61 81 -57 79 b -32 82 -43 76 -37 81 b 19 119 -11 93 4 106 b 92 188 44 140 68 164 b 94 168 92 181 93 175 b 106 142 96 160 100 150 b 131 124 113 133 121 126 b 185 124 150 117 168 119 b 232 140 201 126 217 133 b 315 189 261 154 289 171 b 392 246 342 207 367 226 b 393 250 393 247 394 249 m 78 243 b 76 243 76 243 76 243 b 76 243 76 243 76 243 b 78 243 76 243 76 243 m 6 136 b -42 106 -10 125 -26 113 b -43 106 -43 106 -43 106 b -35 125 -40 111 -37 119 b 35 217 -17 158 8 190 b 56 233 42 224 49 228 b 75 243 63 239 71 243 b 75 243 75 243 75 243 b 75 243 75 243 75 243 b 78 226 76 242 78 232 b 78 224 78 225 78 225 b 89 204 78 215 82 208 b 6 136 63 181 35 157 "},"á":{"ha":374,"x_min":0,"x_max":0,"o":"m 393 250 b 392 246 394 249 393 247 b 315 189 367 226 342 207 b 232 140 289 171 261 154 b 185 124 217 133 201 126 b 131 124 168 119 150 117 b 106 142 121 126 113 133 b 94 168 100 150 96 160 b 92 188 93 175 92 181 b 19 119 68 164 44 140 b -32 82 4 106 -11 93 b -54 78 -37 81 -43 76 b -64 82 -57 79 -61 81 b -71 92 -67 85 -69 89 b -72 104 -72 97 -72 101 b -61 139 -71 119 -65 128 b 7 243 -44 176 -21 211 b 31 267 14 251 22 260 b 64 285 40 274 49 281 b 76 288 68 286 71 288 b 83 288 79 288 81 288 b 92 286 86 288 89 286 b 106 278 97 285 101 281 b 115 267 110 274 113 269 b 124 244 119 258 121 251 b 125 225 125 238 125 233 b 125 224 125 224 125 224 b 125 217 125 221 126 219 b 125 215 125 217 125 217 b 140 147 118 189 119 156 b 181 146 151 143 165 143 b 224 158 194 147 210 153 b 307 200 253 169 281 185 b 388 251 335 217 361 233 b 393 250 389 253 392 253 m 78 243 b 76 243 76 243 76 243 b 76 243 76 243 76 243 b 78 243 76 243 76 243 m 6 136 b 89 204 35 157 63 181 b 78 224 82 208 78 215 b 78 226 78 225 78 225 b 75 243 78 232 76 242 b 75 243 75 243 75 243 b 75 243 75 243 75 243 b 56 233 71 243 63 239 b 35 217 49 228 42 224 b -35 125 8 190 -17 158 b -43 106 -37 119 -40 111 b -42 106 -43 106 -43 106 b 6 136 -26 113 -10 125 "},"â":{"ha":374,"x_min":0,"x_max":0,"o":"m 393 250 b 388 251 392 253 389 253 b 307 200 361 233 335 217 b 224 158 281 185 253 169 b 181 146 210 153 194 147 b 140 147 165 143 151 143 b 125 215 119 156 118 189 b 125 217 125 217 125 217 b 125 224 126 219 125 221 b 125 225 125 224 125 224 b 124 244 125 233 125 238 b 115 267 121 251 119 258 b 106 278 113 269 110 274 b 92 286 101 281 97 285 b 83 288 89 286 86 288 b 76 288 81 288 79 288 b 64 285 71 288 68 286 b 31 267 49 281 40 274 b 7 243 22 260 14 251 b -61 139 -21 211 -44 176 b -72 104 -65 128 -71 119 b -71 92 -72 101 -72 97 b -64 82 -69 89 -67 85 b -54 78 -61 81 -57 79 b -32 82 -43 76 -37 81 b 19 119 -11 93 4 106 b 92 188 44 140 68 164 b 94 168 92 181 93 175 b 106 142 96 160 100 150 b 131 124 113 133 121 126 b 185 124 150 117 168 119 b 232 140 201 126 217 133 b 315 189 261 154 289 171 b 392 246 342 207 367 226 b 393 250 393 247 394 249 m 78 243 b 76 243 76 243 76 243 b 76 243 76 243 76 243 b 78 243 76 243 76 243 m 6 136 b -42 106 -10 125 -26 113 b -43 106 -43 106 -43 106 b -35 125 -40 111 -37 119 b 35 217 -17 158 8 190 b 56 233 42 224 49 228 b 75 243 63 239 71 243 b 75 243 75 243 75 243 b 75 243 75 243 75 243 b 78 226 76 242 78 232 b 78 224 78 225 78 225 b 89 204 78 215 82 208 b 6 136 63 181 35 157 "},"ã":{"ha":374,"x_min":0,"x_max":0,"o":"m 393 250 b 392 246 394 249 393 247 b 315 189 367 226 342 207 b 232 140 289 171 261 154 b 185 124 217 133 201 126 b 131 124 168 119 150 117 b 106 142 121 126 113 133 b 94 168 100 150 96 160 b 92 188 93 175 92 181 b 19 119 68 164 44 140 b -32 82 4 106 -11 93 b -54 78 -37 81 -43 76 b -64 82 -57 79 -61 81 b -71 92 -67 85 -69 89 b -72 104 -72 97 -72 101 b -61 139 -71 119 -65 128 b 7 243 -44 176 -21 211 b 31 267 14 251 22 260 b 64 285 40 274 49 281 b 76 288 68 286 71 288 b 83 288 79 288 81 288 b 92 286 86 288 89 286 b 106 278 97 285 101 281 b 115 267 110 274 113 269 b 124 244 119 258 121 251 b 125 225 125 238 125 233 b 125 224 125 224 125 224 b 125 217 125 221 126 219 b 125 215 125 217 125 217 b 140 147 118 189 119 156 b 181 146 151 143 165 143 b 224 158 194 147 210 153 b 307 200 253 169 281 185 b 388 251 335 217 361 233 b 393 250 389 253 392 253 m 78 243 b 76 243 76 243 76 243 b 76 243 76 243 76 243 b 78 243 76 243 76 243 m 6 136 b 89 204 35 157 63 181 b 78 224 82 208 78 215 b 78 226 78 225 78 225 b 75 243 78 232 76 242 b 75 243 75 243 75 243 b 75 243 75 243 75 243 b 56 233 71 243 63 239 b 35 217 49 228 42 224 b -35 125 8 190 -17 158 b -43 106 -37 119 -40 111 b -42 106 -43 106 -43 106 b 6 136 -26 113 -10 125 "},"ä":{"ha":374,"x_min":0,"x_max":0,"o":"m 393 250 b 388 251 392 253 389 253 b 307 200 361 233 335 217 b 224 158 281 185 253 169 b 181 146 210 153 194 147 b 140 147 165 143 151 143 b 125 215 119 156 118 189 b 125 217 125 217 125 217 b 125 224 126 219 125 221 b 125 225 125 224 125 224 b 124 244 125 233 125 238 b 115 267 121 251 119 258 b 106 278 113 269 110 274 b 92 286 101 281 97 285 b 83 288 89 286 86 288 b 76 288 81 288 79 288 b 64 285 71 288 68 286 b 31 267 49 281 40 274 b 7 243 22 260 14 251 b -61 139 -21 211 -44 176 b -72 104 -65 128 -71 119 b -71 92 -72 101 -72 97 b -64 82 -69 89 -67 85 b -54 78 -61 81 -57 79 b -32 82 -43 76 -37 81 b 19 119 -11 93 4 106 b 92 188 44 140 68 164 b 94 168 92 181 93 175 b 106 142 96 160 100 150 b 131 124 113 133 121 126 b 185 124 150 117 168 119 b 232 140 201 126 217 133 b 315 189 261 154 289 171 b 392 246 342 207 367 226 b 393 250 393 247 394 249 m 78 243 b 76 243 76 243 76 243 b 76 243 76 243 76 243 b 78 243 76 243 76 243 m 6 136 b -42 106 -10 125 -26 113 b -43 106 -43 106 -43 106 b -35 125 -40 111 -37 119 b 35 217 -17 158 8 190 b 56 233 42 224 49 228 b 75 243 63 239 71 243 b 75 243 75 243 75 243 b 75 243 75 243 75 243 b 78 226 76 242 78 232 b 78 224 78 225 78 225 b 89 204 78 215 82 208 b 6 136 63 181 35 157 "},"å":{"ha":374,"x_min":0,"x_max":0,"o":"m 393 250 b 392 246 394 249 393 247 b 315 189 367 226 342 207 b 232 140 289 171 261 154 b 185 124 217 133 201 126 b 131 124 168 119 150 117 b 106 142 121 126 113 133 b 94 168 100 150 96 160 b 92 188 93 175 92 181 b 19 119 68 164 44 140 b -32 82 4 106 -11 93 b -54 78 -37 81 -43 76 b -64 82 -57 79 -61 81 b -71 92 -67 85 -69 89 b -72 104 -72 97 -72 101 b -61 139 -71 119 -65 128 b 7 243 -44 176 -21 211 b 31 267 14 251 22 260 b 64 285 40 274 49 281 b 76 288 68 286 71 288 b 83 288 79 288 81 288 b 92 286 86 288 89 286 b 106 278 97 285 101 281 b 115 267 110 274 113 269 b 124 244 119 258 121 251 b 125 225 125 238 125 233 b 125 224 125 224 125 224 b 125 217 125 221 126 219 b 125 215 125 217 125 217 b 140 147 118 189 119 156 b 181 146 151 143 165 143 b 224 158 194 147 210 153 b 307 200 253 169 281 185 b 388 251 335 217 361 233 b 393 250 389 253 392 253 m 78 243 b 76 243 76 243 76 243 b 76 243 76 243 76 243 b 78 243 76 243 76 243 m 6 136 b 89 204 35 157 63 181 b 78 224 82 208 78 215 b 78 226 78 225 78 225 b 75 243 78 232 76 242 b 75 243 75 243 75 243 b 75 243 75 243 75 243 b 56 233 71 243 63 239 b 35 217 49 228 42 224 b -35 125 8 190 -17 158 b -43 106 -37 119 -40 111 b -42 106 -43 106 -43 106 b 6 136 -26 113 -10 125 "},"b":{"ha":790,"x_min":0,"x_max":0,"o":"m 808 249 b 813 246 810 249 813 247 b 808 242 813 243 811 242 b 519 156 708 229 611 197 b 488 140 508 151 499 146 b 479 111 485 131 482 121 b 404 -26 461 61 433 17 b 306 -144 374 -68 342 -108 b 188 -246 269 -182 231 -217 b 119 -285 167 -260 144 -274 b 42 -304 96 -296 69 -303 b -1 -294 28 -304 14 -303 b -19 -275 -8 -290 -17 -285 b -22 -250 -24 -267 -24 -258 b -8 -211 -21 -235 -14 -222 b 14 -178 -1 -199 7 -187 b 124 -69 47 -136 85 -101 b 246 22 163 -36 204 -6 b 450 139 311 65 379 104 b 454 188 454 156 457 174 b 442 208 451 197 447 204 b 415 217 435 213 426 215 b 382 214 404 217 393 217 b 346 207 369 213 358 210 b 276 186 322 201 299 194 b 146 118 231 168 186 144 b 29 25 104 90 65 60 b -69 -85 -6 -8 -40 -46 b -69 -85 -69 -85 -69 -85 b -97 -100 -74 -96 -85 -103 b -115 -71 -110 -97 -118 -85 b -115 -71 -115 -71 -115 -71 b -6 213 -92 29 -51 124 b 153 469 40 303 93 389 b 350 697 213 551 278 628 b 597 872 424 767 504 831 b 669 900 621 883 644 893 b 707 908 682 903 694 907 b 747 911 719 911 733 913 b 771 906 756 911 763 910 b 789 883 778 901 786 893 b 783 839 793 865 788 851 b 743 772 772 814 757 793 b 643 658 713 732 678 694 b 535 556 608 624 571 589 b 300 368 460 489 382 426 b 175 286 260 339 218 311 b 50 226 135 263 94 240 b 32 193 43 215 38 204 b -40 21 4 138 -19 79 b -1 58 -28 33 -15 46 b 122 154 38 93 78 125 b 261 224 165 182 213 206 b 338 246 286 233 311 240 b 376 253 350 249 363 250 b 418 254 389 254 404 256 b 464 239 433 253 449 249 b 490 196 478 228 486 211 b 490 157 492 182 492 169 b 514 168 499 161 506 165 b 808 249 608 207 707 239 m 183 447 b 56 239 136 381 93 311 b 169 296 94 253 132 274 b 292 379 211 321 251 350 b 521 569 372 439 449 501 b 628 674 558 603 593 638 b 724 786 661 710 694 747 b 760 847 738 806 751 826 b 764 876 764 858 767 869 b 758 882 763 879 761 881 b 746 886 756 883 750 885 b 676 874 724 886 700 881 b 610 847 654 867 632 857 b 374 674 521 806 444 742 b 183 447 303 604 240 528 m 376 -7 b 444 119 404 33 429 75 b 257 7 379 86 317 49 b 136 -85 215 -21 175 -51 b 32 -192 99 -118 63 -153 b 1 -253 18 -211 4 -233 b 10 -274 0 -264 3 -269 b 42 -278 18 -278 31 -279 b 108 -260 64 -278 88 -271 b 172 -222 131 -250 151 -237 b 283 -124 213 -194 249 -160 b 376 -7 317 -87 349 -49 "},"c":{"ha":414,"x_min":0,"x_max":0,"o":"m 438 250 b 436 246 439 249 438 246 b 179 92 351 193 267 140 b 46 22 136 67 92 43 b 10 8 33 17 22 13 b -33 3 -4 4 -17 1 b -57 13 -40 4 -50 7 b -72 32 -64 17 -69 25 b -75 76 -78 47 -76 63 b -50 150 -71 103 -61 128 b -12 217 -39 174 -26 196 b 82 336 14 260 46 300 b 143 385 100 354 118 372 b 182 400 156 392 167 397 b 196 400 186 401 190 401 b 213 389 201 400 208 396 b 217 372 217 383 217 376 b 215 360 217 368 217 364 b 201 321 213 346 206 333 b 182 288 194 310 189 299 b 143 222 169 265 157 243 b 110 214 136 210 121 207 b 103 247 99 221 94 236 b 104 251 103 249 104 250 l 106 251 b 151 307 121 268 138 288 b 188 367 165 326 181 347 b 188 374 188 369 188 372 b 186 374 188 374 186 374 b 154 363 176 372 164 368 b 99 319 135 351 117 336 b 8 204 64 285 35 244 b -26 139 -4 183 -17 161 b -49 72 -36 117 -46 94 b -47 42 -50 61 -50 50 b -29 29 -44 35 -39 31 b 3 33 -21 28 -10 29 b 36 44 14 36 25 40 b 169 110 82 63 125 86 b 301 181 214 132 257 156 l 432 251 b 438 250 435 253 436 253 "},"ç":{"ha":414,"x_min":0,"x_max":0,"o":"m 438 250 b 432 251 436 253 435 253 l 301 181 b 169 110 257 156 214 132 b 36 44 125 86 82 63 b 3 33 25 40 14 36 b -29 29 -10 29 -21 28 b -47 42 -39 31 -44 35 b -49 72 -50 50 -50 61 b -26 139 -46 94 -36 117 b 8 204 -17 161 -4 183 b 99 319 35 244 64 285 b 154 363 117 336 135 351 b 186 374 164 368 176 372 b 188 374 186 374 188 374 b 188 367 188 372 188 369 b 151 307 181 347 165 326 b 106 251 138 288 121 268 l 104 251 b 103 247 104 250 103 249 b 110 214 94 236 99 221 b 143 222 121 207 136 210 b 182 288 157 243 169 265 b 201 321 189 299 194 310 b 215 360 206 333 213 346 b 217 372 217 364 217 368 b 213 389 217 376 217 383 b 196 400 208 396 201 400 b 182 400 190 401 186 401 b 143 385 167 397 156 392 b 82 336 118 372 100 354 b -12 217 46 300 14 260 b -50 150 -26 196 -39 174 b -75 76 -61 128 -71 103 b -72 32 -76 63 -78 47 b -57 13 -69 25 -64 17 b -33 3 -50 7 -40 4 b 10 8 -17 1 -4 4 b 46 22 22 13 33 17 b 179 92 92 43 136 67 b 436 246 267 140 351 193 b 438 250 438 246 439 249 "},"d":{"ha":431,"x_min":0,"x_max":0,"o":"m 747 944 b 756 911 758 938 763 922 b 754 910 754 911 754 910 b 558 651 686 825 621 739 b 374 385 494 564 433 475 b 204 110 315 294 257 204 b 128 -32 176 64 151 17 b 97 -106 117 -57 106 -81 b 86 -142 92 -118 89 -129 b 85 -150 85 -144 85 -147 b 83 -158 83 -153 83 -156 b 83 -161 83 -160 83 -160 b 83 -160 83 -161 83 -160 b 83 -161 83 -160 83 -161 b 85 -162 83 -162 85 -162 b 85 -162 85 -162 85 -162 b 83 -161 85 -162 85 -162 b 79 -193 92 -172 89 -186 b 46 -190 69 -201 54 -200 b 40 -178 43 -186 42 -182 b 38 -168 39 -175 39 -172 b 39 -154 38 -164 38 -157 b 42 -142 39 -149 40 -144 b 44 -131 42 -137 43 -133 b 61 -90 49 -115 54 -103 b 100 -17 72 -65 86 -42 b 183 122 126 31 156 76 b 272 258 213 168 242 214 l 360 394 l 454 536 b 288 336 400 468 344 401 b 26 82 206 247 121 160 b -10 54 14 72 3 63 b -53 29 -24 44 -35 36 b -56 28 -53 28 -54 28 l -58 26 b -62 26 -60 26 -61 26 b -71 29 -64 26 -71 28 b -75 31 -72 29 -74 31 b -87 47 -81 35 -85 42 b -87 76 -90 58 -89 68 b -71 122 -83 94 -78 108 b -24 203 -57 151 -40 178 b 125 310 56 317 108 313 b 138 308 129 310 133 310 b 150 303 142 307 146 306 b 168 283 158 297 164 290 b 178 254 174 274 176 264 b 271 351 210 286 240 318 b 629 804 400 493 519 646 b 715 938 658 847 686 892 b 747 944 722 949 736 951 m 10 103 b 168 244 65 146 118 194 b 153 272 164 256 160 265 b 140 281 149 278 144 281 b 133 282 138 282 135 282 b 125 282 131 282 128 282 b 6 183 104 279 72 274 b -43 110 -12 160 -29 135 b -60 71 -50 96 -56 83 b -61 56 -61 65 -61 58 b -60 54 -60 56 -60 56 b -25 75 -50 60 -37 68 b 10 103 -14 83 -1 93 "},"e":{"ha":372,"x_min":0,"x_max":0,"o":"m 392 256 b 392 250 393 253 393 251 b 188 110 328 197 260 150 b 75 57 151 89 114 71 b 13 42 54 50 35 43 b -54 68 -8 39 -40 43 b -61 106 -61 81 -62 94 b -54 139 -61 118 -57 129 b -25 197 -46 161 -36 179 b 14 249 -12 215 0 232 b 61 294 28 265 43 281 b 78 303 67 297 71 300 b 97 310 83 306 89 308 b 111 310 101 311 106 311 b 129 301 117 310 124 307 b 138 283 135 294 136 289 b 138 271 138 279 138 275 b 125 235 136 256 131 244 b 107 206 119 224 114 214 b -8 131 78 169 40 140 b -25 133 -14 129 -19 131 b -26 129 -25 132 -26 131 b -31 81 -33 113 -37 93 b -15 68 -28 75 -22 71 b 10 65 -8 65 1 64 b 68 78 29 67 49 71 b 179 125 106 89 143 106 b 386 256 253 161 321 206 b 392 256 388 257 390 257 m 83 263 b 4 183 54 243 26 214 b 74 232 31 192 54 210 b 89 254 79 239 85 246 b 96 269 92 260 94 265 b 93 269 96 269 94 269 b 83 263 90 268 86 265 "},"è":{"ha":372,"x_min":0,"x_max":0,"o":"m 392 256 b 386 256 390 257 388 257 b 179 125 321 206 253 161 b 68 78 143 106 106 89 b 10 65 49 71 29 67 b -15 68 1 64 -8 65 b -31 81 -22 71 -28 75 b -26 129 -37 93 -33 113 b -25 133 -26 131 -25 132 b -8 131 -19 131 -14 129 b 107 206 40 140 78 169 b 125 235 114 214 119 224 b 138 271 131 244 136 256 b 138 283 138 275 138 279 b 129 301 136 289 135 294 b 111 310 124 307 117 310 b 97 310 106 311 101 311 b 78 303 89 308 83 306 b 61 294 71 300 67 297 b 14 249 43 281 28 265 b -25 197 0 232 -12 215 b -54 139 -36 179 -46 161 b -61 106 -57 129 -61 118 b -54 68 -62 94 -61 81 b 13 42 -40 43 -8 39 b 75 57 35 43 54 50 b 188 110 114 71 151 89 b 392 250 260 150 328 197 b 392 256 393 251 393 253 m 83 263 b 93 269 86 265 90 268 b 96 269 94 269 96 269 b 89 254 94 265 92 260 b 74 232 85 246 79 239 b 4 183 54 210 31 192 b 83 263 26 214 54 243 "},"é":{"ha":372,"x_min":0,"x_max":0,"o":"m 392 256 b 392 250 393 253 393 251 b 188 110 328 197 260 150 b 75 57 151 89 114 71 b 13 42 54 50 35 43 b -54 68 -8 39 -40 43 b -61 106 -61 81 -62 94 b -54 139 -61 118 -57 129 b -25 197 -46 161 -36 179 b 14 249 -12 215 0 232 b 61 294 28 265 43 281 b 78 303 67 297 71 300 b 97 310 83 306 89 308 b 111 310 101 311 106 311 b 129 301 117 310 124 307 b 138 283 135 294 136 289 b 138 271 138 279 138 275 b 125 235 136 256 131 244 b 107 206 119 224 114 214 b -8 131 78 169 40 140 b -25 133 -14 129 -19 131 b -26 129 -25 132 -26 131 b -31 81 -33 113 -37 93 b -15 68 -28 75 -22 71 b 10 65 -8 65 1 64 b 68 78 29 67 49 71 b 179 125 106 89 143 106 b 386 256 253 161 321 206 b 392 256 388 257 390 257 m 83 263 b 4 183 54 243 26 214 b 74 232 31 192 54 210 b 89 254 79 239 85 246 b 96 269 92 260 94 265 b 93 269 96 269 94 269 b 83 263 90 268 86 265 "},"ê":{"ha":372,"x_min":0,"x_max":0,"o":"m 392 256 b 386 256 390 257 388 257 b 179 125 321 206 253 161 b 68 78 143 106 106 89 b 10 65 49 71 29 67 b -15 68 1 64 -8 65 b -31 81 -22 71 -28 75 b -26 129 -37 93 -33 113 b -25 133 -26 131 -25 132 b -8 131 -19 131 -14 129 b 107 206 40 140 78 169 b 125 235 114 214 119 224 b 138 271 131 244 136 256 b 138 283 138 275 138 279 b 129 301 136 289 135 294 b 111 310 124 307 117 310 b 97 310 106 311 101 311 b 78 303 89 308 83 306 b 61 294 71 300 67 297 b 14 249 43 281 28 265 b -25 197 0 232 -12 215 b -54 139 -36 179 -46 161 b -61 106 -57 129 -61 118 b -54 68 -62 94 -61 81 b 13 42 -40 43 -8 39 b 75 57 35 43 54 50 b 188 110 114 71 151 89 b 392 250 260 150 328 197 b 392 256 393 251 393 253 m 83 263 b 93 269 86 265 90 268 b 96 269 94 269 96 269 b 89 254 94 265 92 260 b 74 232 85 246 79 239 b 4 183 54 210 31 192 b 83 263 26 214 54 243 "},"ë":{"ha":372,"x_min":0,"x_max":0,"o":"m 392 256 b 392 250 393 253 393 251 b 188 110 328 197 260 150 b 75 57 151 89 114 71 b 13 42 54 50 35 43 b -54 68 -8 39 -40 43 b -61 106 -61 81 -62 94 b -54 139 -61 118 -57 129 b -25 197 -46 161 -36 179 b 14 249 -12 215 0 232 b 61 294 28 265 43 281 b 78 303 67 297 71 300 b 97 310 83 306 89 308 b 111 310 101 311 106 311 b 129 301 117 310 124 307 b 138 283 135 294 136 289 b 138 271 138 279 138 275 b 125 235 136 256 131 244 b 107 206 119 224 114 214 b -8 131 78 169 40 140 b -25 133 -14 129 -19 131 b -26 129 -25 132 -26 131 b -31 81 -33 113 -37 93 b -15 68 -28 75 -22 71 b 10 65 -8 65 1 64 b 68 78 29 67 49 71 b 179 125 106 89 143 106 b 386 256 253 161 321 206 b 392 256 388 257 390 257 m 83 263 b 4 183 54 243 26 214 b 74 232 31 192 54 210 b 89 254 79 239 85 246 b 96 269 92 260 94 265 b 93 269 96 269 94 269 b 83 263 90 268 86 265 "},"f":{"ha":331,"x_min":0,"x_max":0,"o":"m 414 751 b 415 729 415 743 415 736 b 404 660 414 704 410 682 b 375 642 401 647 388 639 b 357 671 363 646 354 658 b 357 671 357 671 357 671 l 358 672 b 368 731 363 692 368 713 b 368 729 368 731 368 731 b 325 686 353 718 339 703 b 286 636 311 671 299 654 b 144 421 235 568 189 494 b 14 181 99 342 54 263 b 86 183 38 181 63 181 b 174 197 115 186 144 190 b 344 250 232 208 290 226 b 351 249 347 251 350 250 b 349 242 351 246 351 243 b 265 206 322 228 294 217 b 179 176 238 194 208 185 b 89 157 149 168 119 163 b 15 150 65 153 40 151 b 15 -93 35 69 29 -14 b -68 -343 0 -179 -26 -264 b -104 -399 -79 -362 -90 -381 b -128 -426 -111 -408 -117 -417 b -149 -436 -133 -431 -140 -435 b -164 -433 -154 -436 -160 -436 b -175 -425 -169 -432 -172 -428 b -189 -387 -186 -411 -187 -399 b -192 -353 -190 -376 -192 -365 b -186 -286 -192 -331 -190 -308 b -117 -32 -174 -199 -147 -114 b 110 440 -54 132 24 289 b 250 663 153 517 199 590 b 290 715 263 681 276 699 b 339 765 306 733 319 750 b 357 778 344 769 350 774 b 369 782 360 779 364 781 b 390 781 375 783 382 783 b 408 765 400 778 406 771 b 414 751 413 760 413 756 m -4 -89 b -1 149 11 -11 17 71 b -1 149 -1 149 -1 149 b -86 -44 -32 86 -60 21 b -158 -290 -117 -124 -144 -207 b -164 -353 -161 -311 -164 -332 b -161 -383 -162 -364 -162 -374 b -154 -408 -160 -393 -158 -404 b -153 -410 -153 -410 -153 -408 b -144 -406 -151 -410 -147 -407 b -125 -383 -137 -400 -132 -392 b -90 -331 -112 -367 -101 -349 b -4 -89 -49 -256 -21 -174 "}}}
